<?xml version="1.0" encoding="utf-8" standalone="no"?>
<!DOCTYPE svg PUBLIC "-//W3C//DTD SVG 1.1//EN"
  "http://www.w3.org/Graphics/SVG/1.1/DTD/svg11.dtd">
<!-- Created with matplotlib (http://matplotlib.sourceforge.net/) -->
<svg height="667pt" version="1.1" viewBox="0 0 1093 667" width="1093pt" xmlns="http://www.w3.org/2000/svg" xmlns:xlink="http://www.w3.org/1999/xlink">
 <defs>
  <style type="text/css">
*{stroke-linecap:square;stroke-linejoin:round;}
  </style>
 </defs>
 <g id="figure_1">
  <g id="patch_1">
   <path d="
M0 667.8
L1093.5 667.8
L1093.5 0
L0 0
z
" style="fill:#ffffff;"/>
  </g>
  <g id="axes_1">
   <g id="patch_2">
    <path d="
M136.688 601.02
L984.15 601.02
L984.15 66.78
L136.688 66.78
z
" style="fill:#ffffff;"/>
   </g>
   <g id="line2d_1">
    <path clip-path="url(#pc1c77b9b39)" d="
M136.829 601.02
L137.012 601.02
L137.012 601.02
L137.012 601.02
L137.097 600.753
L137.368 600.664
L137.471 600.486
L138.083 600.397
L138.083 600.308
L138.977 600.219
L139.077 599.952
L139.134 599.862
L139.134 599.773
L140.487 599.684
L140.535 599.506
L140.66 599.417
L140.717 599.239
L141.109 599.15
L141.109 599.061
L141.464 598.972
L141.464 598.883
L141.952 598.794
L141.952 598.705
L142.89 598.616
L142.96 598.438
L143.064 598.349
L143.064 598.26
L143.32 598.171
L143.32 598.082
L143.649 597.993
L143.732 597.815
L143.965 597.726
L143.965 597.636
L144.504 597.547
L144.591 597.191
L144.765 597.102
L144.813 596.924
L145.13 596.835
L145.13 596.746
L145.415 596.657
L145.415 596.568
L145.723 596.479
L145.723 596.39
L146.39 596.301
L146.39 596.212
L146.777 596.123
L146.777 596.034
L147.231 595.945
L147.231 595.856
L147.627 595.767
L147.627 595.678
L147.957 595.589
L148.063 595.41
L148.552 595.321
L148.598 595.054
L148.816 594.965
L148.909 594.698
L149.017 594.609
L149.027 594.431
L149.355 594.342
L149.376 594.164
L149.755 594.075
L149.755 593.986
L149.993 593.897
L150.066 593.719
L150.215 593.63
L150.295 593.452
L150.546 593.363
L150.546 593.274
L150.977 593.184
L150.977 593.095
L152.03 593.006
L152.03 592.917
L152.274 592.828
L152.274 592.739
L152.876 592.65
L152.969 592.472
L153.212 592.383
L153.212 592.294
L153.543 592.205
L153.576 592.027
L153.891 591.938
L153.952 591.76
L154.26 591.671
L154.26 591.582
L154.708 591.493
L154.794 591.315
L154.896 591.226
L154.988 590.958
L155.188 590.869
L155.265 590.691
L155.723 590.602
L155.723 590.513
L156.037 590.424
L156.073 590.246
L156.465 590.157
L156.465 590.068
L156.627 589.979
L156.627 589.89
L157.031 589.801
L157.091 589.356
L157.299 589.267
L157.325 589.089
L157.575 589
L157.642 588.822
L157.847 588.732
L157.847 588.643
L158.238 588.554
L158.339 588.198
L158.439 588.109
L158.439 588.02
L158.67 587.931
L158.779 587.664
L158.95 587.575
L158.95 587.486
L159.213 587.397
L159.255 587.219
L160.037 587.13
L160.071 586.952
L160.353 586.863
L160.409 586.685
L160.712 586.596
L160.712 586.506
L160.87 586.417
L160.965 586.061
L161.131 585.972
L161.131 585.883
L162.096 585.794
L162.173 585.527
L162.401 585.438
L162.482 585.171
L162.624 585.082
L162.711 584.815
L162.859 584.726
L162.911 584.548
L163.103 584.459
L163.204 584.102
L163.296 584.013
L163.296 583.924
L163.577 583.835
L163.577 583.746
L163.779 583.657
L163.887 583.479
L164.12 583.39
L164.152 583.212
L164.488 583.123
L164.581 582.767
L164.636 582.678
L164.636 582.589
L164.805 582.5
L164.894 582.233
L164.938 582.144
L164.938 582.054
L165.283 581.965
L165.283 581.876
L165.617 581.787
L165.697 581.52
L165.785 581.431
L165.785 581.342
L166.071 581.253
L166.176 580.986
L166.36 580.897
L166.36 580.808
L166.59 580.719
L166.698 580.452
L167.077 580.363
L167.113 580.185
L167.32 580.096
L167.413 579.739
L167.47 579.65
L167.47 579.561
L167.691 579.472
L167.713 579.294
L167.989 579.205
L168.077 578.938
L168.191 578.849
L168.227 578.671
L168.488 578.582
L168.488 578.493
L168.625 578.404
L168.625 578.315
L169.072 578.226
L169.072 578.137
L169.574 578.048
L169.641 577.87
L169.738 577.781
L169.738 577.692
L169.964 577.602
L169.964 577.513
L170.225 577.424
L170.272 577.068
L170.45 576.979
L170.525 576.712
L170.621 576.623
L170.724 576.356
L170.865 576.267
L170.865 576.178
L171.221 576.089
L171.221 576
L171.617 575.911
L171.618 575.733
L171.862 575.644
L171.945 575.287
L172.223 575.198
L172.254 575.02
L172.773 574.931
L172.773 574.842
L173.322 574.753
L173.322 574.664
L173.494 574.575
L173.58 574.308
L173.686 574.219
L173.795 574.041
L173.954 573.952
L174.013 573.774
L174.422 573.685
L174.513 573.507
L174.631 573.418
L174.734 573.15
L174.891 573.061
L174.913 572.883
L175.045 572.794
L175.045 572.705
L175.548 572.616
L175.591 572.26
L175.717 572.171
L175.791 571.993
L175.91 571.904
L175.999 571.459
L176.177 571.37
L176.284 571.192
L176.368 571.103
L176.396 570.924
L176.714 570.835
L176.756 570.568
L176.945 570.479
L176.97 570.301
L177.335 570.212
L177.335 570.123
L177.656 570.034
L177.723 569.856
L177.981 569.767
L178.045 569.5
L178.229 569.411
L178.339 569.144
L178.466 569.055
L178.466 568.966
L178.99 568.877
L179.093 568.698
L179.133 568.609
L179.172 568.431
L179.439 568.342
L179.439 568.253
L179.763 568.164
L179.763 568.075
L179.924 567.986
L180.026 567.808
L180.197 567.719
L180.304 567.541
L180.559 567.452
L180.559 567.363
L180.811 567.274
L180.811 567.185
L181.086 567.096
L181.19 566.918
L181.284 566.829
L181.362 566.562
L181.769 566.472
L181.839 566.116
L182.162 566.027
L182.172 565.849
L182.479 565.76
L182.479 565.671
L182.835 565.582
L182.892 565.315
L183.105 565.226
L183.154 564.959
L183.317 564.87
L183.399 564.603
L183.651 564.514
L183.675 564.336
L183.944 564.246
L183.981 564.068
L184.114 563.979
L184.215 563.623
L184.274 563.534
L184.317 563.267
L184.526 563.178
L184.545 563
L184.687 562.911
L184.768 562.644
L185.382 562.555
L185.382 562.466
L185.517 562.377
L185.591 562.11
L185.876 562.02
L185.978 561.664
L186.262 561.575
L186.372 561.308
L186.535 561.219
L186.59 561.041
L186.771 560.952
L186.858 560.685
L187.111 560.596
L187.111 560.507
L187.257 560.418
L187.295 560.24
L187.373 560.151
L187.373 560.062
L187.591 559.973
L187.682 559.705
L187.762 559.616
L187.762 559.527
L187.968 559.438
L188.062 559.26
L188.416 559.171
L188.508 558.993
L188.838 558.904
L188.879 558.726
L189.114 558.637
L189.201 558.459
L189.27 558.37
L189.314 558.192
L189.71 558.103
L189.737 557.925
L189.991 557.836
L190.044 557.568
L190.216 557.479
L190.283 557.301
L190.423 557.212
L190.423 557.123
L190.664 557.034
L190.667 556.856
L191.213 556.767
L191.263 556.411
L191.489 556.322
L191.588 556.055
L191.738 555.966
L191.752 555.699
L191.882 555.61
L191.882 555.521
L192.064 555.432
L192.165 555.075
L192.319 554.986
L192.319 554.897
L192.572 554.808
L192.68 554.63
L192.893 554.541
L192.955 554.185
L193.072 554.096
L193.072 554.007
L193.252 553.918
L193.331 553.651
L193.406 553.562
L193.409 553.384
L193.838 553.295
L193.887 553.027
L194.196 552.938
L194.25 552.671
L194.769 552.582
L194.769 552.493
L195.195 552.404
L195.275 552.226
L195.348 552.137
L195.348 552.048
L195.919 551.959
L196.007 551.603
L196.201 551.514
L196.201 551.425
L196.483 551.336
L196.483 551.247
L196.866 551.158
L196.866 551.069
L197.149 550.98
L197.17 550.801
L197.392 550.712
L197.392 550.623
L197.536 550.534
L197.62 550.089
L197.828 550
L197.828 549.911
L198.106 549.822
L198.188 549.644
L198.297 549.555
L198.297 549.466
L198.647 549.377
L198.698 549.11
L198.931 549.021
L199.018 548.664
L199.207 548.575
L199.28 548.397
L199.324 548.308
L199.324 548.219
L199.634 548.13
L199.742 547.952
L199.895 547.863
L199.956 547.685
L200.108 547.596
L200.153 547.418
L200.246 547.329
L200.341 546.973
L200.494 546.884
L200.494 546.795
L200.746 546.706
L200.827 546.528
L200.929 546.438
L200.959 546.26
L201.127 546.171
L201.204 545.993
L201.395 545.904
L201.445 545.726
L201.744 545.637
L201.744 545.548
L201.889 545.459
L201.995 545.281
L202.384 545.192
L202.384 545.103
L202.552 545.014
L202.644 544.747
L202.774 544.658
L202.774 544.569
L203.013 544.48
L203.013 544.391
L203.228 544.302
L203.31 543.945
L203.67 543.856
L203.712 543.678
L203.917 543.589
L203.953 543.233
L204.042 543.144
L204.042 543.055
L204.351 542.966
L204.442 542.788
L204.516 542.699
L204.516 542.61
L204.877 542.521
L204.977 542.343
L205.118 542.254
L205.226 541.897
L205.546 541.808
L205.609 541.63
L205.884 541.541
L205.984 541.096
L206.37 541.007
L206.37 540.918
L206.758 540.829
L206.758 540.74
L206.923 540.651
L206.986 540.384
L207.417 540.295
L207.504 539.671
L207.845 539.582
L207.945 539.404
L208.147 539.315
L208.147 539.226
L208.294 539.137
L208.387 538.87
L208.514 538.781
L208.625 538.514
L208.727 538.425
L208.727 538.336
L208.898 538.247
L209.003 537.98
L209.314 537.891
L209.314 537.802
L209.701 537.713
L209.701 537.624
L210.402 537.534
L210.46 537.356
L210.681 537.267
L210.681 537.178
L210.925 537.089
L210.925 537
L211.271 536.911
L211.317 536.733
L211.525 536.644
L211.553 536.288
L211.741 536.199
L211.779 536.021
L212.021 535.932
L212.069 535.754
L212.21 535.665
L212.29 535.219
L212.362 535.13
L212.472 534.952
L212.682 534.863
L212.736 534.507
L212.977 534.418
L213.078 533.973
L213.198 533.884
L213.29 533.706
L213.385 533.617
L213.489 533.35
L213.609 533.261
L213.715 533.082
L213.957 532.993
L213.957 532.904
L214.26 532.815
L214.358 532.459
L214.487 532.37
L214.574 532.103
L214.755 532.014
L214.808 531.836
L215.23 531.747
L215.333 531.391
L215.411 531.302
L215.501 531.124
L215.68 531.035
L215.753 530.678
L215.957 530.589
L216.064 530.322
L216.136 530.233
L216.199 529.966
L216.452 529.877
L216.515 529.61
L216.72 529.521
L216.745 529.343
L217.148 529.254
L217.254 528.987
L217.614 528.898
L217.722 528.452
L217.919 528.363
L217.919 528.274
L218.274 528.185
L218.37 527.651
L218.5 527.562
L218.5 527.473
L218.836 527.384
L218.932 527.206
L219.024 527.117
L219.122 526.85
L219.173 526.761
L219.173 526.672
L219.395 526.583
L219.474 526.226
L219.541 526.137
L219.605 525.959
L219.801 525.87
L219.879 525.603
L219.999 525.514
L219.999 525.425
L220.176 525.336
L220.176 525.247
L220.463 525.158
L220.472 524.98
L221.018 524.891
L221.106 524.446
L221.236 524.357
L221.294 524.089
L221.381 524
L221.474 523.733
L221.77 523.644
L221.849 523.466
L222.066 523.377
L222.144 523.199
L222.347 523.11
L222.347 523.021
L222.85 522.932
L222.941 522.576
L223.054 522.487
L223.15 522.22
L223.308 522.131
L223.308 522.042
L224.092 521.952
L224.19 521.685
L224.294 521.596
L224.397 521.418
L224.447 521.329
L224.528 521.151
L224.817 521.062
L224.878 520.884
L224.951 520.795
L224.951 520.706
L225.157 520.617
L225.179 520.439
L225.642 520.35
L225.75 520.083
L225.837 519.994
L225.894 519.726
L226.093 519.637
L226.133 519.37
L226.581 519.281
L226.668 519.103
L226.937 519.014
L226.981 518.836
L227.202 518.747
L227.283 518.569
L227.388 518.48
L227.388 518.391
L227.835 518.302
L227.835 518.213
L228.621 518.124
L228.665 517.857
L228.911 517.768
L229.013 517.5
L229.059 517.411
L229.063 517.233
L229.294 517.144
L229.378 516.966
L229.675 516.877
L229.675 516.788
L229.838 516.699
L229.838 516.61
L230.096 516.521
L230.15 516.076
L230.259 515.987
L230.37 515.809
L230.531 515.72
L230.592 515.453
L230.87 515.364
L230.976 515.007
L231.415 514.918
L231.415 514.829
L231.65 514.74
L231.758 514.473
L231.829 514.384
L231.935 514.028
L232.138 513.939
L232.248 513.672
L232.323 513.583
L232.323 513.494
L232.48 513.405
L232.48 513.316
L232.694 513.227
L232.736 513.048
L232.967 512.959
L232.967 512.87
L233.162 512.781
L233.162 512.692
L233.471 512.603
L233.533 512.247
L233.742 512.158
L233.849 511.98
L234.08 511.891
L234.08 511.802
L234.272 511.713
L234.374 511.446
L234.691 511.357
L234.802 511.09
L234.863 511.001
L234.952 510.733
L235.002 510.644
L235.002 510.555
L235.203 510.466
L235.219 510.288
L235.425 510.199
L235.523 509.932
L235.836 509.843
L235.914 509.665
L236.114 509.576
L236.114 509.487
L236.416 509.398
L236.495 509.22
L236.996 509.131
L237.106 508.953
L237.144 508.864
L237.24 508.596
L237.367 508.507
L237.381 508.329
L237.586 508.24
L237.604 508.062
L237.874 507.973
L237.874 507.884
L238.574 507.795
L238.58 507.617
L238.781 507.528
L238.781 507.439
L239.163 507.35
L239.163 507.261
L239.481 507.172
L239.494 506.994
L239.821 506.905
L239.854 506.727
L240.154 506.638
L240.154 506.549
L240.388 506.46
L240.388 506.37
L240.794 506.281
L240.806 506.103
L241.37 506.014
L241.477 505.747
L241.554 505.658
L241.601 505.48
L241.745 505.391
L241.745 505.302
L242.111 505.213
L242.208 504.857
L242.236 504.768
L242.31 504.59
L242.628 504.501
L242.736 504.323
L242.936 504.234
L242.936 504.144
L243.213 504.055
L243.213 503.966
L243.44 503.877
L243.537 503.699
L243.665 503.61
L243.665 503.521
L244.591 503.432
L244.591 503.343
L244.871 503.254
L244.94 503.076
L245.132 502.987
L245.225 502.809
L245.28 502.72
L245.28 502.631
L245.584 502.542
L245.584 502.453
L246.092 502.364
L246.175 502.097
L246.488 502.008
L246.488 501.918
L246.87 501.829
L246.87 501.74
L247.156 501.651
L247.259 501.384
L247.508 501.295
L247.599 500.939
L247.759 500.85
L247.77 500.583
L247.909 500.494
L247.999 500.227
L248.233 500.138
L248.233 500.049
L248.481 499.96
L248.481 499.871
L249 499.782
L249.099 499.603
L249.535 499.514
L249.535 499.425
L249.71 499.336
L249.736 499.158
L250.029 499.069
L250.029 498.98
L250.295 498.891
L250.295 498.802
L250.809 498.713
L250.809 498.624
L251.105 498.535
L251.105 498.446
L251.403 498.357
L251.417 498.09
L251.668 498.001
L251.669 497.823
L252.001 497.734
L252.068 497.556
L252.345 497.466
L252.39 497.199
L252.777 497.11
L252.777 497.021
L253.172 496.932
L253.172 496.843
L253.49 496.754
L253.496 496.576
L253.794 496.487
L253.873 496.309
L253.963 496.22
L253.963 496.131
L254.437 496.042
L254.437 495.953
L255.088 495.864
L255.118 495.686
L255.37 495.597
L255.386 495.33
L255.581 495.24
L255.595 495.062
L256.154 494.973
L256.154 494.884
L256.685 494.795
L256.685 494.706
L257.134 494.617
L257.203 494.35
L257.8 494.261
L257.8 494.172
L258.159 494.083
L258.198 493.905
L258.533 493.816
L258.563 493.638
L258.999 493.549
L259.017 493.371
L259.245 493.282
L259.245 493.193
L259.533 493.104
L259.644 492.747
L259.773 492.658
L259.785 492.48
L260.098 492.391
L260.166 492.213
L260.389 492.124
L260.389 492.035
L260.695 491.946
L260.695 491.857
L261.689 491.768
L261.762 491.501
L262.117 491.412
L262.185 491.145
L262.735 491.056
L262.791 490.788
L263.642 490.699
L263.701 490.521
L263.874 490.432
L263.893 490.254
L264.342 490.165
L264.414 489.987
L264.668 489.898
L264.729 489.631
L264.861 489.542
L264.922 489.364
L265.512 489.275
L265.534 489.097
L265.955 489.008
L265.955 488.919
L266.329 488.83
L266.368 488.652
L266.619 488.562
L266.663 488.384
L267.076 488.295
L267.08 488.117
L267.471 488.028
L267.515 487.85
L267.958 487.761
L268.019 487.494
L268.551 487.405
L268.66 487.138
L269.268 487.049
L269.268 486.96
L269.506 486.871
L269.506 486.782
L269.963 486.693
L269.982 486.515
L270.324 486.426
L270.324 486.336
L270.631 486.247
L270.707 486.069
L271.187 485.98
L271.278 485.802
L271.887 485.713
L271.988 485.535
L272.104 485.446
L272.104 485.357
L272.618 485.268
L272.648 485.001
L273.196 484.912
L273.284 484.734
L273.76 484.645
L273.76 484.556
L274.135 484.467
L274.175 484.289
L274.592 484.2
L274.686 484.021
L274.865 483.932
L274.865 483.843
L275.626 483.754
L275.626 483.665
L275.746 483.576
L275.746 483.487
L276.451 483.398
L276.451 483.309
L277.312 483.22
L277.312 483.131
L277.855 483.042
L277.855 482.953
L278.949 482.864
L278.987 482.597
L279.434 482.508
L279.434 482.419
L280.467 482.33
L280.467 482.241
L280.639 482.152
L280.688 481.974
L281.017 481.884
L281.112 481.706
L281.985 481.617
L281.985 481.528
L282.486 481.439
L282.486 481.35
L283.251 481.261
L283.251 481.172
L284.008 481.083
L284.008 480.994
L285.494 480.905
L285.515 480.727
L285.786 480.638
L285.786 480.549
L286.861 480.46
L286.921 480.282
L287.565 480.193
L287.565 480.104
L287.789 480.015
L287.789 479.926
L288.209 479.837
L288.26 479.658
L289.335 479.569
L289.335 479.48
L289.934 479.391
L290.014 479.124
L290.313 479.035
L290.313 478.946
L290.837 478.857
L290.837 478.768
L291.403 478.679
L291.444 478.501
L292.323 478.412
L292.323 478.323
L293.807 478.234
L293.871 478.056
L294.951 477.967
L294.951 477.878
L295.356 477.789
L295.365 477.611
L295.717 477.522
L295.717 477.432
L296.813 477.343
L296.813 477.254
L297.802 477.165
L297.802 477.076
L298.102 476.987
L298.102 476.898
L298.252 476.809
L298.313 476.631
L298.851 476.542
L298.851 476.453
L299.822 476.364
L299.822 476.275
L301.067 476.186
L301.067 476.097
L301.424 476.008
L301.424 475.919
L302.528 475.83
L302.613 475.652
L303.217 475.563
L303.217 475.474
L303.951 475.385
L303.951 475.296
L304.747 475.206
L304.747 475.117
L306.272 475.028
L306.272 474.939
L306.939 474.85
L306.939 474.761
L308.082 474.672
L308.082 474.583
L309.861 474.494
L309.861 474.405
L311.082 474.316
L311.082 474.227
L314.027 474.138
L314.027 474.049
L314.848 473.96
L314.848 473.871
L315.274 473.782
L315.274 473.693
L319.718 473.604
L319.718 473.515
L348.143 473.426
L348.143 473.337
L350.071 473.248
L350.071 473.159
L357.681 473.07
L357.681 472.98
L358.59 472.891
L358.59 472.802
L361.15 472.713
L361.15 472.624
L362.068 472.535
L362.068 472.446
L363.611 472.357
L363.611 472.268
L364.329 472.179
L364.329 472.09
L365.539 472.001
L365.539 471.912
L367.09 471.823
L367.09 471.734
L368.474 471.645
L368.474 471.556
L369.093 471.467
L369.093 471.378
L370.537 471.289
L370.537 471.2
L374.127 471.111
L374.127 471.022
L374.748 470.933
L374.748 470.844
L375.905 470.754
L375.905 470.665
L377.174 470.576
L377.174 470.487
L379.319 470.398
L379.319 470.309
L379.998 470.22
L379.998 470.131
L380.366 470.042
L380.366 469.953
L380.863 469.864
L380.863 469.775
L381.983 469.686
L382.083 469.419
L382.203 469.33
L382.3 469.152
L382.524 469.063
L382.524 468.974
L384.966 468.885
L385.049 468.618
L385.353 468.528
L385.353 468.439
L386.003 468.35
L386.003 468.261
L386.459 468.172
L386.459 468.083
L387.425 467.994
L387.425 467.905
L387.695 467.816
L387.695 467.727
L388.046 467.638
L388.046 467.549
L388.29 467.46
L388.29 467.371
L388.698 467.282
L388.698 467.193
L389.173 467.104
L389.173 467.015
L389.877 466.926
L389.912 466.659
L390.079 466.57
L390.079 466.481
L390.695 466.392
L390.695 466.302
L391.097 466.213
L391.097 466.124
L391.725 466.035
L391.737 465.857
L392.121 465.768
L392.121 465.679
L392.65 465.59
L392.65 465.501
L392.941 465.412
L392.941 465.323
L393.701 465.234
L393.717 465.056
L394.063 464.967
L394.063 464.878
L394.538 464.789
L394.538 464.7
L394.761 464.611
L394.761 464.522
L395.693 464.433
L395.765 464.255
L396.146 464.166
L396.254 463.809
L396.607 463.72
L396.697 463.542
L397.305 463.453
L397.305 463.364
L398.598 463.275
L398.705 463.008
L399.301 462.919
L399.411 462.652
L400.151 462.563
L400.214 462.385
L400.397 462.296
L400.443 461.85
L400.551 461.761
L400.551 461.672
L400.799 461.583
L400.799 461.494
L401.073 461.405
L401.153 461.227
L401.434 461.138
L401.521 460.96
L401.621 460.871
L401.652 460.693
L402.085 460.604
L402.194 460.426
L402.867 460.337
L402.867 460.248
L403.005 460.159
L403.005 460.07
L403.286 459.981
L403.342 459.803
L403.673 459.714
L403.749 459.535
L404.004 459.446
L404.047 459.179
L404.456 459.09
L404.529 458.823
L404.749 458.734
L404.753 458.556
L405.045 458.467
L405.045 458.378
L405.62 458.289
L405.685 458.111
L405.79 458.022
L405.79 457.933
L406.335 457.844
L406.399 457.666
L406.813 457.577
L406.813 457.488
L407.028 457.398
L407.028 457.309
L407.452 457.22
L407.554 456.953
L407.844 456.864
L407.877 456.597
L408.804 456.508
L408.868 456.33
L408.926 456.241
L408.926 456.152
L409.189 456.063
L409.189 455.974
L409.519 455.885
L409.519 455.796
L410.258 455.707
L410.36 455.529
L410.813 455.44
L410.813 455.351
L411.016 455.262
L411.122 454.994
L411.243 454.905
L411.341 454.727
L411.665 454.638
L411.677 454.46
L411.863 454.371
L411.883 454.193
L412.04 454.104
L412.102 453.926
L412.348 453.837
L412.422 453.659
L412.747 453.57
L412.851 453.392
L413.454 453.303
L413.547 453.036
L413.981 452.946
L414.043 452.768
L414.395 452.679
L414.419 452.501
L414.7 452.412
L414.774 452.234
L414.974 452.145
L415.084 451.7
L415.925 451.611
L415.925 451.522
L416.421 451.433
L416.421 451.344
L416.757 451.255
L416.757 451.166
L416.982 451.077
L416.982 450.988
L417.241 450.899
L417.31 450.72
L417.746 450.631
L417.799 450.364
L418.153 450.275
L418.197 450.097
L418.422 450.008
L418.422 449.919
L418.642 449.83
L418.733 449.474
L418.949 449.385
L418.981 449.207
L419.14 449.118
L419.14 449.029
L419.357 448.94
L419.464 448.494
L419.78 448.405
L419.78 448.316
L420.441 448.227
L420.499 448.049
L420.982 447.96
L420.982 447.871
L421.553 447.782
L421.579 447.515
L421.737 447.426
L421.788 447.248
L421.904 447.159
L421.904 447.07
L422.12 446.981
L422.195 446.803
L422.362 446.714
L422.362 446.625
L422.575 446.536
L422.575 446.447
L422.828 446.358
L422.828 446.268
L423.141 446.179
L423.173 446.001
L423.458 445.912
L423.537 445.556
L423.843 445.467
L423.915 445.289
L424.325 445.2
L424.38 444.933
L424.526 444.844
L424.526 444.755
L424.767 444.666
L424.767 444.577
L425.108 444.488
L425.198 444.042
L425.245 443.953
L425.245 443.864
L425.596 443.775
L425.622 443.597
L425.892 443.508
L425.898 443.33
L426.214 443.241
L426.258 442.974
L426.359 442.885
L426.459 442.618
L426.861 442.529
L426.958 442.173
L427.026 442.084
L427.058 441.816
L427.511 441.727
L427.511 441.638
L428.321 441.549
L428.321 441.46
L429.127 441.371
L429.134 441.193
L429.574 441.104
L429.634 440.926
L429.744 440.837
L429.744 440.748
L430.188 440.659
L430.188 440.57
L430.572 440.481
L430.609 440.303
L430.848 440.214
L430.853 440.036
L431.006 439.947
L431.043 439.769
L431.229 439.68
L431.281 439.501
L431.619 439.412
L431.619 439.323
L431.771 439.234
L431.832 439.056
L432.318 438.967
L432.429 438.522
L432.487 438.433
L432.487 438.344
L432.692 438.255
L432.724 438.077
L432.906 437.988
L432.906 437.899
L433.419 437.81
L433.419 437.721
L433.561 437.632
L433.656 437.454
L433.828 437.364
L433.828 437.275
L434.098 437.186
L434.174 437.008
L434.412 436.919
L434.412 436.83
L434.548 436.741
L434.651 436.563
L434.854 436.474
L434.881 436.296
L435.67 436.207
L435.731 436.029
L435.873 435.94
L435.982 435.673
L436.023 435.584
L436.023 435.495
L436.615 435.406
L436.703 435.049
L436.84 434.96
L436.84 434.871
L437.047 434.782
L437.047 434.693
L437.189 434.604
L437.259 434.159
L437.491 434.07
L437.573 433.803
L437.677 433.714
L437.783 433.536
L438.048 433.447
L438.092 433.002
L438.318 432.912
L438.344 432.645
L438.447 432.556
L438.447 432.467
L438.657 432.378
L438.657 432.289
L438.919 432.2
L438.919 432.111
L439.128 432.022
L439.137 431.844
L439.307 431.755
L439.388 431.399
L439.672 431.31
L439.672 431.221
L440.021 431.132
L440.118 430.776
L440.373 430.686
L440.373 430.597
L440.692 430.508
L440.707 430.33
L440.907 430.241
L440.907 430.152
L441.147 430.063
L441.181 429.885
L441.441 429.796
L441.441 429.707
L441.698 429.618
L441.698 429.529
L441.861 429.44
L441.861 429.351
L442.046 429.262
L442.046 429.173
L442.175 429.084
L442.278 428.728
L442.488 428.639
L442.488 428.55
L442.691 428.46
L442.691 428.371
L443.022 428.282
L443.034 428.104
L443.274 428.015
L443.274 427.926
L443.404 427.837
L443.43 427.659
L443.596 427.57
L443.596 427.481
L443.806 427.392
L443.915 427.125
L444.027 427.036
L444.087 426.769
L444.334 426.68
L444.334 426.591
L444.763 426.502
L444.832 426.324
L445.053 426.234
L445.071 426.056
L445.245 425.967
L445.316 425.789
L445.67 425.7
L445.67 425.611
L446.077 425.522
L446.143 425.344
L446.285 425.255
L446.381 424.81
L446.5 424.721
L446.524 424.543
L446.655 424.454
L446.739 424.187
L446.92 424.098
L446.995 423.919
L447.082 423.83
L447.137 423.652
L447.288 423.563
L447.288 423.474
L447.546 423.385
L447.546 423.296
L447.894 423.207
L448.002 422.94
L448.425 422.851
L448.425 422.762
L448.748 422.673
L448.856 422.495
L449.133 422.406
L449.216 422.05
L449.291 421.961
L449.362 421.782
L449.581 421.693
L449.581 421.604
L449.762 421.515
L449.764 421.337
L450.047 421.248
L450.154 420.981
L450.625 420.892
L450.723 420.714
L451.071 420.625
L451.071 420.536
L451.274 420.447
L451.362 420.269
L451.418 420.18
L451.418 420.091
L451.769 420.002
L451.811 419.824
L452.31 419.735
L452.31 419.646
L452.478 419.556
L452.571 419.2
L453.023 419.111
L453.089 418.844
L453.347 418.755
L453.347 418.666
L453.478 418.577
L453.546 418.399
L454.002 418.31
L454.095 417.954
L454.24 417.865
L454.288 417.33
L454.476 417.241
L454.553 416.974
L454.762 416.885
L454.762 416.796
L455.159 416.707
L455.265 416.44
L455.353 416.351
L455.452 416.173
L455.5 416.084
L455.601 415.817
L455.66 415.728
L455.767 415.461
L455.835 415.372
L455.85 415.104
L456.238 415.015
L456.238 414.926
L456.395 414.837
L456.451 414.57
L456.554 414.481
L456.64 414.214
L456.738 414.125
L456.818 413.769
L456.952 413.68
L456.995 413.502
L457.428 413.413
L457.428 413.324
L457.806 413.235
L457.872 412.968
L458.121 412.878
L458.143 412.7
L458.642 412.611
L458.642 412.522
L459.177 412.433
L459.285 412.166
L459.497 412.077
L459.509 411.899
L459.865 411.81
L459.906 411.632
L460.091 411.543
L460.091 411.454
L460.273 411.365
L460.273 411.276
L460.404 411.187
L460.407 411.009
L460.63 410.92
L460.63 410.831
L461.09 410.742
L461.176 410.474
L461.271 410.385
L461.34 410.118
L461.492 410.029
L461.603 409.584
L461.721 409.495
L461.74 409.228
L461.968 409.139
L461.997 408.783
L462.141 408.694
L462.141 408.605
L462.515 408.516
L462.624 408.159
L462.905 408.07
L463.001 407.892
L463.219 407.803
L463.219 407.714
L463.353 407.625
L463.459 407.358
L463.611 407.269
L463.611 407.18
L464.05 407.091
L464.14 406.824
L464.318 406.735
L464.318 406.646
L464.785 406.557
L464.882 406.29
L465.044 406.2
L465.12 406.022
L465.614 405.933
L465.614 405.844
L465.911 405.755
L465.929 405.488
L466.705 405.399
L466.752 405.221
L467.062 405.132
L467.062 405.043
L467.257 404.954
L467.282 404.776
L467.661 404.687
L467.725 404.331
L467.793 404.242
L467.879 403.974
L467.922 403.885
L468.021 403.618
L468.274 403.529
L468.368 403.262
L468.653 403.173
L468.719 402.995
L469.356 402.906
L469.436 402.728
L469.593 402.639
L469.593 402.55
L469.932 402.461
L470.028 402.194
L470.22 402.105
L470.286 401.927
L470.406 401.838
L470.462 401.57
L470.619 401.481
L470.692 401.303
L471.018 401.214
L471.018 401.125
L471.181 401.036
L471.282 400.324
L471.61 400.235
L471.678 399.879
L472.032 399.79
L472.122 399.522
L472.252 399.433
L472.322 399.166
L472.59 399.077
L472.669 398.81
L472.758 398.721
L472.831 398.543
L473.122 398.454
L473.217 398.276
L473.323 398.187
L473.431 397.92
L473.681 397.831
L473.681 397.742
L473.897 397.653
L473.897 397.564
L474.167 397.475
L474.167 397.386
L474.314 397.296
L474.32 397.118
L474.835 397.029
L474.917 396.762
L475.136 396.673
L475.16 396.495
L475.54 396.406
L475.606 396.139
L475.67 396.05
L475.731 395.872
L475.849 395.783
L475.859 395.516
L476.051 395.427
L476.083 395.249
L476.223 395.16
L476.308 394.892
L476.628 394.803
L476.692 394.625
L476.892 394.536
L476.954 394.18
L477.179 394.091
L477.179 394.002
L477.316 393.913
L477.377 393.735
L477.701 393.646
L477.809 393.468
L478.097 393.379
L478.097 393.29
L478.341 393.201
L478.341 393.112
L478.538 393.023
L478.635 392.666
L478.782 392.577
L478.848 392.399
L478.97 392.31
L479.061 392.043
L479.56 391.954
L479.56 391.865
L479.951 391.776
L480.04 391.242
L480.158 391.153
L480.259 390.975
L480.389 390.886
L480.495 390.618
L480.515 390.529
L480.619 390.084
L480.786 389.995
L480.894 389.639
L481.172 389.55
L481.264 389.372
L481.836 389.283
L481.945 388.927
L482.221 388.838
L482.266 388.66
L482.443 388.571
L482.548 388.392
L482.612 388.303
L482.702 388.036
L482.843 387.947
L482.843 387.858
L483.169 387.769
L483.189 387.591
L483.495 387.502
L483.581 387.057
L483.672 386.968
L483.708 386.701
L483.823 386.612
L483.823 386.523
L484.165 386.434
L484.272 386.256
L484.442 386.166
L484.514 385.988
L484.694 385.899
L484.694 385.81
L485.148 385.721
L485.148 385.632
L485.33 385.543
L485.33 385.454
L485.518 385.365
L485.615 385.187
L485.795 385.098
L485.819 384.92
L486.046 384.831
L486.046 384.742
L486.233 384.653
L486.291 384.297
L486.516 384.208
L486.516 384.119
L486.729 384.03
L486.782 383.851
L486.956 383.762
L487.057 383.495
L487.117 383.406
L487.226 383.139
L487.456 383.05
L487.519 382.872
L487.702 382.783
L487.798 382.516
L487.99 382.427
L488.008 382.249
L488.146 382.16
L488.146 382.071
L488.571 381.982
L488.571 381.893
L488.817 381.804
L488.883 381.536
L489.189 381.447
L489.189 381.358
L489.473 381.269
L489.477 381.091
L489.601 381.002
L489.688 380.735
L489.891 380.646
L489.947 380.468
L490.172 380.379
L490.271 380.112
L490.374 380.023
L490.441 379.845
L490.605 379.756
L490.644 379.578
L490.975 379.488
L490.975 379.399
L491.363 379.31
L491.471 378.776
L491.489 378.687
L491.489 378.598
L491.664 378.509
L491.664 378.42
L492.205 378.331
L492.289 378.153
L492.43 378.064
L492.43 377.975
L492.574 377.886
L492.592 377.708
L492.747 377.619
L492.747 377.53
L492.965 377.441
L492.965 377.352
L493.416 377.262
L493.442 376.728
L493.752 376.639
L493.752 376.55
L494.079 376.461
L494.165 376.283
L494.523 376.194
L494.523 376.105
L494.695 376.016
L494.778 375.749
L495.049 375.66
L495.087 375.482
L495.27 375.393
L495.27 375.304
L495.493 375.215
L495.581 374.858
L495.699 374.769
L495.699 374.68
L495.991 374.591
L496.055 374.413
L496.163 374.324
L496.163 374.235
L496.457 374.146
L496.549 373.79
L496.608 373.701
L496.713 373.434
L497.059 373.345
L497.059 373.256
L497.295 373.167
L497.365 372.81
L497.519 372.721
L497.545 372.543
L497.794 372.454
L497.831 372.187
L498.065 372.098
L498.065 372.009
L498.315 371.92
L498.315 371.831
L498.547 371.742
L498.626 371.297
L498.71 371.208
L498.762 371.03
L498.905 370.941
L499.01 370.495
L499.19 370.406
L499.278 370.139
L499.756 370.05
L499.837 369.783
L500.03 369.694
L500.127 369.338
L500.225 369.249
L500.325 368.893
L500.667 368.804
L500.667 368.715
L500.841 368.626
L500.95 368.358
L501.182 368.269
L501.182 368.18
L501.367 368.091
L501.427 367.913
L501.515 367.824
L501.515 367.735
L501.689 367.646
L501.689 367.557
L502.052 367.468
L502.052 367.379
L502.725 367.29
L502.824 367.023
L502.872 366.934
L502.917 366.667
L503.232 366.578
L503.232 366.489
L503.473 366.4
L503.557 366.222
L503.641 366.132
L503.74 365.865
L503.799 365.776
L503.909 365.509
L504.101 365.42
L504.19 364.975
L504.411 364.886
L504.411 364.797
L504.576 364.708
L504.576 364.619
L504.832 364.53
L504.926 364.085
L505.343 363.996
L505.343 363.906
L505.589 363.817
L505.699 363.639
L505.891 363.55
L505.945 363.372
L506.217 363.283
L506.311 363.105
L506.597 363.016
L506.663 362.838
L506.914 362.749
L506.914 362.66
L507.111 362.571
L507.111 362.482
L507.398 362.393
L507.398 362.304
L507.733 362.215
L507.733 362.126
L508.458 362.037
L508.552 361.859
L508.994 361.77
L509.086 361.591
L509.151 361.502
L509.151 361.413
L509.322 361.324
L509.322 361.235
L509.565 361.146
L509.668 360.968
L510.43 360.879
L510.43 360.79
L510.701 360.701
L510.805 360.345
L511.241 360.256
L511.277 359.989
L511.572 359.9
L511.605 359.633
L511.776 359.544
L511.776 359.454
L512.262 359.365
L512.361 359.187
L512.564 359.098
L512.631 358.92
L512.688 358.831
L512.703 358.653
L513.114 358.564
L513.114 358.475
L513.33 358.386
L513.33 358.297
L513.582 358.208
L513.652 358.03
L513.82 357.941
L513.881 357.763
L513.991 357.674
L514.017 357.407
L514.172 357.318
L514.236 357.139
L514.395 357.05
L514.395 356.961
L514.861 356.872
L514.861 356.783
L515.197 356.694
L515.234 356.516
L515.407 356.427
L515.464 356.071
L515.645 355.982
L515.684 355.804
L515.851 355.715
L515.959 355.537
L516.236 355.448
L516.331 355.181
L516.478 355.092
L516.58 354.913
L516.975 354.824
L517.047 354.557
L517.206 354.468
L517.206 354.379
L517.894 354.29
L517.894 354.201
L518.094 354.112
L518.19 353.845
L518.391 353.756
L518.391 353.667
L518.835 353.578
L518.835 353.489
L519.069 353.4
L519.069 353.311
L519.336 353.222
L519.43 353.044
L519.531 352.955
L519.531 352.866
L519.935 352.776
L520.018 352.598
L520.363 352.509
L520.363 352.42
L520.982 352.331
L520.983 352.153
L521.41 352.064
L521.41 351.975
L521.736 351.886
L521.818 351.708
L522.336 351.619
L522.336 351.53
L522.909 351.441
L522.909 351.352
L523.237 351.263
L523.258 351.085
L523.448 350.996
L523.542 350.818
L523.795 350.729
L523.795 350.64
L524.055 350.55
L524.126 350.372
L524.569 350.283
L524.655 350.105
L524.803 350.016
L524.838 349.66
L525.123 349.571
L525.22 349.215
L525.606 349.126
L525.659 348.859
L526.093 348.77
L526.093 348.681
L526.453 348.592
L526.453 348.503
L527.052 348.414
L527.052 348.324
L527.601 348.235
L527.601 348.146
L528.13 348.057
L528.13 347.968
L528.38 347.879
L528.38 347.79
L528.549 347.701
L528.609 347.434
L528.966 347.345
L529.048 347.167
L529.368 347.078
L529.459 346.9
L529.72 346.811
L529.78 346.544
L530.174 346.455
L530.206 346.277
L531.087 346.188
L531.087 346.098
L531.964 346.009
L532.06 345.742
L532.367 345.653
L532.367 345.564
L532.716 345.475
L532.716 345.386
L533.733 345.297
L533.733 345.208
L534.313 345.119
L534.39 344.941
L534.831 344.852
L534.915 344.585
L535.173 344.496
L535.173 344.407
L535.36 344.318
L535.36 344.229
L536.039 344.14
L536.092 343.962
L536.564 343.872
L536.564 343.783
L537.159 343.694
L537.263 343.427
L537.439 343.338
L537.439 343.249
L537.891 343.16
L537.891 343.071
L538.313 342.982
L538.313 342.893
L539.064 342.804
L539.104 342.626
L539.427 342.537
L539.427 342.448
L539.691 342.359
L539.691 342.27
L540.26 342.181
L540.26 342.092
L541 342.003
L541.097 341.736
L541.196 341.646
L541.303 341.468
L541.813 341.379
L541.813 341.29
L542.427 341.201
L542.427 341.112
L542.599 341.023
L542.599 340.934
L542.932 340.845
L542.956 340.667
L543.561 340.578
L543.612 340.4
L543.911 340.311
L543.911 340.222
L544.237 340.133
L544.237 340.044
L544.437 339.955
L544.546 339.51
L544.816 339.42
L544.816 339.331
L545.073 339.242
L545.099 339.064
L546.01 338.975
L546.01 338.886
L546.219 338.797
L546.219 338.708
L546.518 338.619
L546.547 338.441
L547.505 338.352
L547.524 338.174
L547.786 338.085
L547.885 337.818
L548.617 337.729
L548.618 337.551
L549.221 337.462
L549.221 337.373
L550.546 337.284
L550.546 337.194
L550.961 337.105
L550.961 337.016
L551.488 336.927
L551.488 336.838
L552.156 336.749
L552.156 336.66
L552.977 336.571
L553.016 336.393
L553.842 336.304
L553.842 336.215
L554.44 336.126
L554.44 336.037
L555.644 335.948
L555.673 335.77
L556.467 335.681
L556.467 335.592
L556.971 335.503
L556.971 335.414
L557.438 335.325
L557.438 335.236
L558.194 335.147
L558.288 334.968
L558.573 334.879
L558.573 334.79
L559.145 334.701
L559.145 334.612
L560.049 334.523
L560.049 334.434
L560.509 334.345
L560.509 334.256
L561.696 334.167
L561.696 334.078
L562.085 333.989
L562.142 333.811
L562.406 333.722
L562.461 333.544
L563.044 333.455
L563.044 333.366
L563.352 333.277
L563.352 333.188
L563.882 333.099
L563.882 333.01
L564.247 332.921
L564.247 332.832
L566.025 332.742
L566.089 332.564
L566.651 332.475
L566.651 332.386
L568.126 332.297
L568.126 332.208
L568.76 332.119
L568.76 332.03
L574.728 331.941
L574.742 331.763
L577.712 331.674
L577.712 331.585
L579.344 331.496
L579.344 331.407
L587.553 331.318
L587.553 331.229
L596.073 331.14
L596.073 331.051
L613.834 330.962
L613.834 330.873
L622.329 330.784
L622.347 330.606
L628.418 330.516
L628.418 330.427
L628.735 330.338
L628.735 330.249
L630.88 330.16
L630.88 330.071
L632.958 329.982
L632.958 329.893
L633.544 329.804
L633.544 329.715
L634.548 329.626
L634.548 329.537
L636.476 329.448
L636.476 329.359
L637.95 329.27
L637.95 329.181
L639.305 329.092
L639.305 329.003
L640.526 328.914
L640.526 328.825
L640.726 328.736
L640.726 328.647
L641.168 328.558
L641.168 328.469
L641.875 328.38
L641.875 328.29
L642.67 328.201
L642.725 328.023
L643.055 327.934
L643.055 327.845
L643.607 327.756
L643.607 327.667
L643.94 327.578
L643.94 327.489
L644.638 327.4
L644.638 327.311
L645.951 327.222
L645.951 327.133
L646.308 327.044
L646.308 326.955
L646.874 326.866
L646.874 326.777
L647.241 326.688
L647.241 326.599
L648.292 326.51
L648.292 326.421
L649.348 326.332
L649.348 326.243
L650.269 326.154
L650.269 326.064
L650.694 325.975
L650.762 325.708
L650.894 325.619
L650.894 325.53
L651.93 325.441
L651.93 325.352
L652.647 325.263
L652.647 325.174
L653.405 325.085
L653.405 324.907
L654.125 324.818
L654.229 324.551
L654.933 324.462
L654.933 324.373
L656.106 324.284
L656.106 324.195
L656.557 324.106
L656.601 323.928
L657.779 323.838
L657.779 323.749
L658.638 323.66
L658.734 323.482
L659.861 323.393
L659.861 323.304
L660.923 323.215
L660.923 323.126
L661.284 323.037
L661.284 322.948
L662.258 322.859
L662.315 322.681
L662.498 322.592
L662.498 322.503
L663.023 322.414
L663.114 322.236
L663.608 322.147
L663.608 322.058
L664.491 321.969
L664.547 321.702
L664.861 321.612
L664.972 321.345
L665.217 321.256
L665.217 321.167
L665.746 321.078
L665.746 320.989
L666.25 320.9
L666.346 320.722
L666.899 320.633
L666.899 320.544
L667.218 320.455
L667.218 320.366
L667.386 320.277
L667.386 320.188
L667.763 320.099
L667.763 320.01
L668.074 319.921
L668.103 319.743
L668.576 319.654
L668.599 319.476
L669.015 319.386
L669.015 319.297
L669.597 319.208
L669.68 318.852
L669.896 318.763
L669.896 318.674
L670.584 318.585
L670.584 318.496
L670.815 318.407
L670.919 318.229
L671.565 318.14
L671.623 317.962
L671.855 317.873
L671.855 317.784
L672.262 317.695
L672.267 317.517
L672.443 317.428
L672.445 317.25
L672.67 317.16
L672.67 317.071
L672.904 316.982
L672.955 316.804
L673.267 316.715
L673.286 316.448
L673.427 316.359
L673.427 316.27
L674.304 316.181
L674.414 316.003
L674.615 315.914
L674.615 315.825
L674.954 315.736
L674.954 315.647
L675.424 315.558
L675.486 315.38
L676.003 315.291
L676.003 315.202
L676.159 315.113
L676.216 314.845
L676.432 314.756
L676.451 314.578
L676.653 314.489
L676.706 314.222
L677.861 314.133
L677.861 314.044
L678.518 313.955
L678.518 313.866
L679.073 313.777
L679.073 313.688
L679.495 313.599
L679.582 313.332
L680.039 313.243
L680.039 313.154
L680.513 313.065
L680.513 312.976
L681.193 312.887
L681.193 312.798
L681.466 312.708
L681.527 312.53
L681.691 312.441
L681.777 312.263
L681.964 312.174
L681.964 312.085
L682.136 311.996
L682.224 311.729
L682.52 311.64
L682.599 311.373
L683.071 311.284
L683.071 311.195
L683.53 311.106
L683.53 311.017
L683.824 310.928
L683.824 310.839
L684.146 310.75
L684.191 310.393
L684.425 310.304
L684.484 310.126
L684.59 310.037
L684.621 309.859
L684.78 309.77
L684.78 309.681
L685.124 309.592
L685.222 309.414
L685.382 309.325
L685.382 309.236
L685.53 309.147
L685.53 309.058
L685.876 308.969
L685.876 308.88
L686.079 308.791
L686.105 308.613
L686.37 308.524
L686.427 308.346
L686.581 308.256
L686.599 308.078
L687.076 307.989
L687.076 307.9
L687.329 307.811
L687.329 307.722
L687.598 307.633
L687.598 307.544
L687.886 307.455
L687.886 307.366
L688.104 307.277
L688.111 307.099
L688.455 307.01
L688.563 306.654
L688.889 306.565
L688.998 306.298
L689.214 306.209
L689.27 306.03
L689.737 305.941
L689.737 305.852
L690.018 305.763
L690.045 305.585
L690.328 305.496
L690.392 305.318
L690.587 305.229
L690.587 305.14
L690.933 305.051
L691.017 304.784
L691.543 304.695
L691.637 304.517
L692.079 304.428
L692.126 304.25
L692.47 304.161
L692.47 304.072
L692.68 303.983
L692.769 303.715
L692.942 303.626
L692.949 303.448
L693.202 303.359
L693.291 303.181
L693.628 303.092
L693.628 303.003
L693.897 302.914
L693.897 302.825
L694.284 302.736
L694.309 302.558
L694.804 302.469
L694.901 302.291
L694.976 302.202
L695.062 301.935
L695.379 301.846
L695.379 301.757
L695.543 301.668
L695.617 301.489
L695.804 301.4
L695.902 301.133
L695.945 301.044
L696.027 300.866
L696.306 300.777
L696.306 300.688
L696.711 300.599
L696.711 300.51
L696.85 300.421
L696.953 300.154
L697.255 300.065
L697.357 299.887
L697.45 299.798
L697.549 299.531
L697.723 299.442
L697.747 299.263
L697.981 299.174
L698.002 298.996
L698.151 298.907
L698.241 298.729
L698.698 298.64
L698.732 298.373
L698.898 298.284
L698.898 298.195
L699.138 298.106
L699.238 297.928
L699.436 297.839
L699.436 297.75
L699.624 297.661
L699.715 297.394
L700.251 297.305
L700.333 297.126
L700.677 297.037
L700.704 296.859
L700.931 296.77
L701.02 296.592
L701.196 296.503
L701.255 296.058
L701.533 295.969
L701.643 295.702
L701.822 295.613
L701.869 295.346
L702 295.257
L702.043 295.079
L702.445 294.99
L702.445 294.811
L702.823 294.722
L702.823 294.633
L703.288 294.544
L703.321 294.366
L703.725 294.277
L703.725 294.188
L703.878 294.099
L703.983 293.921
L704.416 293.832
L704.471 293.654
L704.563 293.565
L704.641 293.387
L704.834 293.298
L704.834 293.209
L705.03 293.12
L705.03 293.031
L705.296 292.942
L705.406 292.674
L705.674 292.585
L705.784 292.229
L706.287 292.14
L706.32 291.873
L706.68 291.784
L706.714 291.606
L706.851 291.517
L706.851 291.428
L707.123 291.339
L707.151 291.161
L707.375 291.072
L707.375 290.983
L707.637 290.894
L707.722 290.716
L708.017 290.627
L708.017 290.538
L708.307 290.448
L708.403 290.27
L708.593 290.181
L708.639 290.003
L708.814 289.914
L708.814 289.825
L709.081 289.736
L709.081 289.647
L709.327 289.558
L709.431 289.291
L709.545 289.202
L709.642 288.668
L710.132 288.579
L710.132 288.49
L710.573 288.401
L710.573 288.312
L711.038 288.222
L711.13 287.866
L711.214 287.777
L711.231 287.51
L711.606 287.421
L711.606 287.332
L711.964 287.243
L711.964 287.154
L712.184 287.065
L712.239 286.709
L712.347 286.62
L712.426 286.264
L712.764 286.175
L712.764 286.086
L712.936 285.996
L712.936 285.907
L713.278 285.818
L713.278 285.729
L713.446 285.64
L713.457 285.462
L713.629 285.373
L713.629 285.284
L714.155 285.195
L714.242 284.928
L714.349 284.839
L714.349 284.75
L714.795 284.661
L714.845 284.483
L714.98 284.394
L714.98 284.305
L715.431 284.216
L715.475 283.86
L715.724 283.77
L715.777 283.414
L715.986 283.325
L716.083 283.147
L716.21 283.058
L716.278 282.791
L716.451 282.702
L716.505 282.524
L716.621 282.435
L716.648 282.257
L716.782 282.168
L716.851 281.812
L716.958 281.723
L716.958 281.544
L717.26 281.455
L717.361 281.277
L717.456 281.188
L717.531 281.01
L717.648 280.921
L717.712 280.743
L717.903 280.654
L717.995 280.387
L718.095 280.298
L718.204 280.031
L718.389 279.942
L718.45 279.586
L718.611 279.497
L718.693 279.229
L718.896 279.14
L718.945 278.962
L719.07 278.873
L719.143 278.606
L719.203 278.517
L719.312 278.339
L719.398 278.25
L719.398 278.161
L719.748 278.072
L719.823 277.716
L720.136 277.627
L720.232 277.449
L720.421 277.36
L720.493 277.182
L720.58 277.092
L720.688 276.914
L720.816 276.825
L720.831 276.647
L721.216 276.558
L721.301 276.38
L721.384 276.291
L721.384 276.202
L722.388 276.113
L722.388 276.024
L722.51 275.935
L722.604 275.668
L722.996 275.579
L723.09 275.045
L723.322 274.956
L723.421 274.421
L723.612 274.332
L723.612 274.243
L723.824 274.154
L723.929 273.976
L724.064 273.887
L724.064 273.798
L724.353 273.709
L724.447 273.353
L724.695 273.264
L724.788 273.086
L724.939 272.997
L724.939 272.908
L725.18 272.819
L725.18 272.73
L725.572 272.64
L725.642 272.462
L725.853 272.373
L725.946 272.195
L726.245 272.106
L726.353 271.661
L726.525 271.572
L726.525 271.483
L726.921 271.394
L726.968 271.127
L727.391 271.038
L727.485 270.86
L727.618 270.771
L727.663 270.414
L727.848 270.325
L727.875 270.058
L728.045 269.969
L728.156 269.613
L728.259 269.524
L728.352 269.346
L728.789 269.257
L728.789 269.168
L729.048 269.079
L729.105 268.901
L729.233 268.812
L729.307 268.456
L729.394 268.367
L729.431 268.099
L729.62 268.01
L729.62 267.921
L729.775 267.832
L729.775 267.743
L729.987 267.654
L729.987 267.565
L730.453 267.476
L730.543 267.031
L730.685 266.942
L730.706 266.764
L731.018 266.675
L731.122 266.23
L731.212 266.141
L731.307 265.962
L731.401 265.873
L731.496 265.428
L731.609 265.339
L731.678 265.161
L731.861 265.072
L731.899 264.894
L732.056 264.805
L732.166 264.627
L732.886 264.538
L732.886 264.449
L733.115 264.36
L733.219 264.182
L733.402 264.093
L733.504 263.826
L733.588 263.736
L733.588 263.647
L734.109 263.558
L734.109 263.469
L734.293 263.38
L734.401 263.024
L734.626 262.935
L734.633 262.757
L734.933 262.668
L734.933 262.579
L735.113 262.49
L735.218 262.134
L735.344 262.045
L735.4 261.867
L735.645 261.778
L735.653 261.6
L736.173 261.51
L736.23 261.065
L736.341 260.976
L736.341 260.887
L736.494 260.798
L736.596 260.62
L736.635 260.531
L736.635 260.442
L736.774 260.353
L736.854 260.175
L737.072 260.086
L737.111 259.908
L737.28 259.819
L737.28 259.73
L737.569 259.641
L737.667 259.463
L737.811 259.374
L737.899 259.195
L738.067 259.106
L738.069 258.928
L738.468 258.839
L738.541 258.483
L738.735 258.394
L738.735 258.305
L738.971 258.216
L738.971 258.127
L739.129 258.038
L739.187 257.682
L739.285 257.593
L739.285 257.504
L739.54 257.415
L739.638 257.148
L739.966 257.058
L739.983 256.88
L740.291 256.791
L740.328 256.613
L740.682 256.524
L740.682 256.435
L741.027 256.346
L741.054 256.168
L741.233 256.079
L741.233 255.99
L741.473 255.901
L741.502 255.723
L741.873 255.634
L741.873 255.456
L742.188 255.367
L742.268 255.1
L742.342 255.011
L742.342 254.922
L742.602 254.832
L742.681 254.565
L743.136 254.476
L743.236 254.209
L743.655 254.12
L743.655 254.031
L743.922 253.942
L743.932 253.764
L744.265 253.675
L744.265 253.586
L744.693 253.497
L744.693 253.408
L744.933 253.319
L744.981 253.141
L745.145 253.052
L745.201 252.874
L745.573 252.785
L745.649 252.428
L745.69 252.339
L745.777 252.072
L746.096 251.983
L746.105 251.805
L746.3 251.716
L746.38 251.449
L747.134 251.36
L747.134 251.271
L747.35 251.182
L747.434 250.826
L747.49 250.737
L747.59 250.47
L747.778 250.38
L747.778 250.291
L748.363 250.202
L748.441 249.846
L748.612 249.757
L748.612 249.668
L749.19 249.579
L749.259 249.401
L749.366 249.312
L749.371 249.134
L749.543 249.045
L749.644 248.511
L749.894 248.422
L749.897 248.244
L750.296 248.154
L750.396 247.976
L750.52 247.887
L750.6 247.709
L750.839 247.62
L750.919 247.353
L751.066 247.264
L751.066 247.175
L751.202 247.086
L751.202 246.997
L751.412 246.908
L751.412 246.819
L751.749 246.73
L751.845 246.552
L751.922 246.463
L751.968 246.285
L752.319 246.196
L752.319 246.107
L752.618 246.018
L752.672 245.75
L753.301 245.661
L753.345 245.394
L753.513 245.305
L753.552 244.949
L753.83 244.86
L753.83 244.771
L754.21 244.682
L754.304 244.326
L754.52 244.237
L754.618 243.97
L754.75 243.881
L754.827 243.524
L755.182 243.435
L755.182 243.346
L755.623 243.257
L755.719 242.812
L755.786 242.723
L755.844 242.367
L756.103 242.278
L756.155 242.011
L756.295 241.922
L756.394 241.655
L756.615 241.566
L756.699 241.387
L757.018 241.298
L757.066 241.031
L757.336 240.942
L757.403 240.764
L757.524 240.675
L757.618 240.408
L757.672 240.319
L757.706 240.141
L757.883 240.052
L757.988 239.696
L758.072 239.607
L758.177 239.429
L758.486 239.34
L758.554 239.161
L758.744 239.072
L758.744 238.983
L758.995 238.894
L758.995 238.805
L759.237 238.716
L759.335 238.538
L759.48 238.449
L759.579 238.093
L759.601 238.004
L759.601 237.915
L759.914 237.826
L760.006 237.648
L760.584 237.559
L760.584 237.47
L760.887 237.381
L760.973 237.024
L761.352 236.935
L761.386 236.757
L761.747 236.668
L761.793 236.401
L761.912 236.312
L761.912 236.223
L762.36 236.134
L762.36 235.956
L762.622 235.867
L762.711 235.689
L762.756 235.6
L762.763 235.422
L763.315 235.333
L763.319 235.155
L763.458 235.066
L763.499 234.888
L763.845 234.798
L763.845 234.709
L764.177 234.62
L764.273 234.264
L764.532 234.175
L764.622 233.908
L764.782 233.819
L764.782 233.73
L765.117 233.641
L765.169 233.374
L765.417 233.285
L765.489 232.929
L765.646 232.84
L765.697 232.662
L766.022 232.572
L766.06 232.305
L766.195 232.216
L766.267 232.038
L766.419 231.949
L766.502 231.593
L766.692 231.504
L766.776 231.237
L766.926 231.148
L767.013 230.881
L767.293 230.792
L767.363 230.436
L767.627 230.346
L767.627 230.257
L767.893 230.168
L767.893 230.079
L768.263 229.99
L768.348 229.634
L768.784 229.545
L768.83 229.367
L768.946 229.278
L769.057 228.833
L769.803 228.744
L769.803 228.655
L770.28 228.566
L770.329 228.299
L770.57 228.21
L770.57 228.12
L771.243 228.031
L771.315 227.853
L771.418 227.764
L771.418 227.675
L771.608 227.586
L771.608 227.497
L771.935 227.408
L772.045 227.052
L772.276 226.963
L772.32 226.696
L772.642 226.607
L772.694 226.429
L772.943 226.34
L772.987 226.073
L773.091 225.984
L773.105 225.805
L773.408 225.716
L773.449 225.538
L774.066 225.449
L774.098 225.271
L774.502 225.182
L774.56 224.826
L774.825 224.737
L774.923 224.559
L775.061 224.47
L775.165 224.114
L775.246 224.025
L775.331 223.758
L775.394 223.668
L775.505 223.312
L775.709 223.223
L775.792 223.045
L775.939 222.956
L775.939 222.867
L776.18 222.778
L776.29 222.6
L776.874 222.511
L776.874 222.422
L777.074 222.333
L777.074 222.244
L777.495 222.155
L777.541 221.977
L777.941 221.888
L778.052 221.532
L778.173 221.442
L778.23 221.264
L778.381 221.175
L778.381 221.086
L778.529 220.997
L778.572 220.819
L778.849 220.73
L778.859 220.552
L779.122 220.463
L779.164 220.285
L779.484 220.196
L779.58 219.929
L779.935 219.84
L779.989 219.662
L780.263 219.573
L780.355 219.216
L780.401 219.127
L780.401 219.038
L780.862 218.949
L780.954 218.593
L781.079 218.504
L781.079 218.415
L781.406 218.326
L781.406 218.237
L781.65 218.148
L781.65 218.059
L782.154 217.97
L782.257 217.703
L782.35 217.614
L782.454 217.436
L782.519 217.347
L782.519 217.258
L782.851 217.169
L782.851 217.08
L783.076 216.99
L783.076 216.901
L783.265 216.812
L783.265 216.723
L783.51 216.634
L783.559 216.367
L784.271 216.278
L784.344 216.011
L784.481 215.922
L784.513 215.744
L784.651 215.655
L784.651 215.566
L784.817 215.477
L784.896 215.21
L785.119 215.121
L785.119 215.032
L785.398 214.943
L785.5 214.586
L785.72 214.497
L785.822 214.319
L786.492 214.23
L786.571 213.963
L786.933 213.874
L787.042 213.607
L787.195 213.518
L787.195 213.429
L787.471 213.34
L787.471 213.251
L787.995 213.162
L787.995 213.073
L788.295 212.984
L788.344 212.717
L788.729 212.628
L788.84 212.271
L789.163 212.182
L789.163 212.093
L789.315 212.004
L789.425 211.826
L789.888 211.737
L789.92 211.559
L790.21 211.47
L790.288 211.114
L790.537 211.025
L790.633 210.758
L790.933 210.669
L790.933 210.58
L791.425 210.491
L791.511 210.223
L791.677 210.134
L791.677 210.045
L791.826 209.956
L791.93 209.689
L792.044 209.6
L792.044 209.511
L792.484 209.422
L792.527 209.244
L793.19 209.155
L793.19 209.066
L793.666 208.977
L793.732 208.71
L794.04 208.621
L794.04 208.532
L794.359 208.443
L794.379 208.265
L794.555 208.176
L794.555 208.086
L794.794 207.997
L794.794 207.908
L795.299 207.819
L795.326 207.641
L795.514 207.552
L795.514 207.463
L795.802 207.374
L795.802 207.285
L796.233 207.196
L796.294 207.018
L796.705 206.929
L796.762 206.751
L797.41 206.662
L797.484 206.395
L798.165 206.306
L798.165 206.217
L798.559 206.128
L798.559 206.039
L798.822 205.95
L798.822 205.86
L799.639 205.771
L799.639 205.682
L800.179 205.593
L800.179 205.504
L800.316 205.415
L800.41 205.237
L800.596 205.148
L800.614 204.97
L801.044 204.881
L801.107 204.703
L801.512 204.614
L801.512 204.525
L801.915 204.436
L801.994 204.258
L802.281 204.169
L802.308 203.991
L802.635 203.902
L802.635 203.813
L802.929 203.724
L802.929 203.634
L803.125 203.545
L803.125 203.456
L803.365 203.367
L803.365 203.278
L803.911 203.189
L803.989 202.922
L804.605 202.833
L804.605 202.744
L804.854 202.655
L804.854 202.566
L805.771 202.477
L805.771 202.388
L805.998 202.299
L806.103 202.121
L806.415 202.032
L806.415 201.943
L806.818 201.854
L806.818 201.765
L807.713 201.676
L807.713 201.587
L808.23 201.498
L808.23 201.408
L808.821 201.319
L808.821 201.23
L809.16 201.141
L809.16 201.052
L809.515 200.963
L809.577 200.785
L809.854 200.696
L809.867 200.518
L810.283 200.429
L810.283 200.34
L810.698 200.251
L810.698 200.162
L810.915 200.073
L810.99 199.806
L811.705 199.717
L811.739 199.539
L811.995 199.45
L811.995 199.361
L812.605 199.272
L812.703 199.093
L812.913 199.004
L813.017 198.737
L813.375 198.648
L813.435 198.381
L813.905 198.292
L813.905 198.203
L814.253 198.114
L814.36 197.847
L815.064 197.758
L815.064 197.669
L815.951 197.58
L815.951 197.491
L816.214 197.402
L816.214 197.313
L817.267 197.224
L817.267 197.135
L818.562 197.046
L818.562 196.956
L818.788 196.867
L818.788 196.778
L819.061 196.689
L819.061 196.6
L819.705 196.511
L819.705 196.422
L820.473 196.333
L820.473 196.244
L821.362 196.155
L821.362 196.066
L821.544 195.977
L821.544 195.888
L822.828 195.799
L822.828 195.71
L823.884 195.621
L823.884 195.532
L824.342 195.443
L824.342 195.354
L824.962 195.265
L824.962 195.176
L825.633 195.087
L825.633 194.998
L826.023 194.909
L826.041 194.73
L826.715 194.641
L826.715 194.552
L828.74 194.463
L828.74 194.374
L829.56 194.285
L829.56 194.196
L831.367 194.107
L831.367 194.018
L832.305 193.929
L832.305 193.84
L833.077 193.751
L833.077 193.662
L836.175 193.573
L836.175 193.484
L837.282 193.395
L837.282 193.306
L838.115 193.217
L838.115 193.128
L838.906 193.039
L838.993 192.861
L839.561 192.772
L839.561 192.683
L841.075 192.594
L841.075 192.504
L842.785 192.415
L842.785 192.326
L845.081 192.237
L845.081 192.148
L845.359 192.059
L845.359 191.97
L845.985 191.881
L846.058 191.703
L848.008 191.614
L848.008 191.525
L850.874 191.436
L850.874 191.347
L891.212 191.258
L891.212 191.169
L895.513 191.08
L895.513 190.991
L898.759 190.902
L898.759 190.813
L900.403 190.724
L900.466 190.546
L901.757 190.457
L901.757 190.368
L903.622 190.278
L903.687 190.1
L904.526 190.011
L904.526 189.922
L905.661 189.833
L905.661 189.744
L906.288 189.655
L906.288 189.566
L907.201 189.477
L907.201 189.388
L908.424 189.299
L908.424 189.21
L908.988 189.121
L908.988 189.032
L910.503 188.943
L910.556 188.765
L910.875 188.676
L910.875 188.587
L911.161 188.498
L911.161 188.409
L912.639 188.32
L912.709 188.142
L913.602 188.052
L913.602 187.963
L913.869 187.874
L913.869 187.785
L914.255 187.696
L914.314 187.518
L914.627 187.429
L914.659 187.251
L915.851 187.162
L915.851 187.073
L917.13 186.984
L917.13 186.895
L917.321 186.806
L917.38 186.628
L917.941 186.539
L917.941 186.45
L918.46 186.361
L918.466 186.183
L919.847 186.094
L919.847 186.005
L919.971 185.916
L919.971 185.826
L920.787 185.737
L920.787 185.648
L921.436 185.559
L921.436 185.47
L921.804 185.381
L921.804 185.292
L922.494 185.203
L922.494 185.114
L923.119 185.025
L923.223 184.758
L924.388 184.669
L924.388 184.58
L924.786 184.491
L924.894 184.313
L925.558 184.224
L925.62 184.046
L926.118 183.957
L926.167 183.779
L926.888 183.69
L926.888 183.6
L927.144 183.511
L927.144 183.422
L928.113 183.333
L928.127 183.155
L928.59 183.066
L928.668 182.888
L929.225 182.799
L929.225 182.71
L929.583 182.621
L929.583 182.532
L929.96 182.443
L929.96 182.354
L930.921 182.265
L930.921 182.176
L931.252 182.087
L931.26 181.909
L931.458 181.82
L931.511 181.642
L931.912 181.553
L931.912 181.464
L932.647 181.374
L932.719 181.196
L933.128 181.107
L933.128 181.018
L933.464 180.929
L933.464 180.84
L933.821 180.751
L933.821 180.662
L934.391 180.573
L934.422 180.306
L934.945 180.217
L935.042 180.039
L935.702 179.95
L935.702 179.861
L936.424 179.772
L936.424 179.683
L937.27 179.594
L937.275 179.416
L937.826 179.327
L937.826 179.238
L938.494 179.148
L938.494 179.059
L939.045 178.97
L939.045 178.881
L939.715 178.792
L939.715 178.703
L940.305 178.614
L940.305 178.525
L940.849 178.436
L940.849 178.347
L941.877 178.258
L941.943 177.991
L942.151 177.902
L942.151 177.813
L942.575 177.724
L942.669 177.546
L942.954 177.457
L943.027 177.279
L943.3 177.19
L943.3 177.101
L943.78 177.012
L943.78 176.922
L944.029 176.833
L944.087 176.566
L944.242 176.477
L944.242 176.388
L944.75 176.299
L944.75 176.21
L945.062 176.121
L945.062 176.032
L945.446 175.943
L945.446 175.854
L945.68 175.765
L945.755 175.498
L946.329 175.409
L946.329 175.32
L946.526 175.231
L946.526 175.142
L946.718 175.053
L946.827 174.875
L946.841 174.786
L946.938 174.607
L947.187 174.518
L947.187 174.429
L947.459 174.34
L947.513 174.073
L948.024 173.984
L948.131 173.717
L948.577 173.628
L948.618 173.45
L949.085 173.361
L949.085 173.272
L949.751 173.183
L949.817 173.005
L950.118 172.916
L950.118 172.827
L950.441 172.738
L950.441 172.649
L950.678 172.56
L950.678 172.47
L950.882 172.381
L950.916 172.203
L951.337 172.114
L951.337 172.025
L951.633 171.936
L951.679 171.758
L951.968 171.669
L951.968 171.58
L952.203 171.491
L952.299 171.313
L952.384 171.224
L952.413 171.046
L952.807 170.957
L952.818 170.779
L953.292 170.69
L953.292 170.601
L953.621 170.512
L953.696 170.244
L953.914 170.155
L954.015 169.799
L954.23 169.71
L954.284 169.532
L954.458 169.443
L954.458 169.354
L954.841 169.265
L954.841 169.176
L955.453 169.087
L955.453 168.998
L955.798 168.909
L955.798 168.82
L956.043 168.731
L956.132 168.464
L956.248 168.375
L956.313 168.197
L956.844 168.108
L956.846 167.929
L957.146 167.84
L957.215 167.662
L957.397 167.573
L957.502 167.217
L957.741 167.128
L957.794 166.95
L957.974 166.861
L958.052 166.594
L958.202 166.505
L958.202 166.416
L958.607 166.327
L958.669 166.149
L958.794 166.06
L958.83 165.792
L959.01 165.703
L959.099 165.347
L959.328 165.258
L959.328 165.169
L959.65 165.08
L959.689 164.902
L960.231 164.813
L960.231 164.724
L960.663 164.635
L960.681 164.368
L960.9 164.279
L960.9 164.19
L961.171 164.101
L961.171 164.012
L961.361 163.923
L961.426 163.656
L961.679 163.566
L961.679 163.477
L961.889 163.388
L961.931 163.121
L962.451 163.032
L962.517 162.676
L962.782 162.587
L962.782 162.498
L963.036 162.409
L963.036 162.32
L963.288 162.231
L963.393 161.697
L963.635 161.608
L963.69 161.34
L963.877 161.251
L963.919 161.073
L964.054 160.984
L964.094 160.806
L964.769 160.717
L964.787 160.539
L964.923 160.45
L964.923 160.361
L965.171 160.272
L965.273 160.094
L965.473 160.005
L965.473 159.916
L965.693 159.827
L965.693 159.738
L966.003 159.649
L966.111 159.293
L966.207 159.204
L966.207 159.114
L966.636 159.025
L966.636 158.936
L966.928 158.847
L967.033 158.669
L967.561 158.58
L967.654 158.135
L967.992 158.046
L967.992 157.957
L968.432 157.868
L968.432 157.779
L969.018 157.69
L969.018 157.601
L969.254 157.512
L969.341 157.156
L969.698 157.067
L969.721 156.888
L969.834 156.799
L969.869 156.621
L970.071 156.532
L970.128 156.354
L970.648 156.265
L970.648 156.176
L971.066 156.087
L971.066 155.998
L971.48 155.909
L971.48 155.82
L971.663 155.731
L971.663 155.642
L971.816 155.553
L971.883 155.197
L972.463 155.108
L972.547 154.752
L972.914 154.662
L972.953 154.306
L973.301 154.217
L973.364 154.039
L973.532 153.95
L973.532 153.861
L973.786 153.772
L973.802 153.594
L974.078 153.505
L974.187 153.327
L974.47 153.238
L974.47 153.149
L974.721 153.06
L974.783 152.882
L974.915 152.793
L974.915 152.704
L975.069 152.615
L975.069 152.526
L975.222 152.436
L975.222 152.347
L975.376 152.258
L975.476 151.991
L975.764 151.902
L975.838 151.724
L976.283 151.635
L976.32 151.368
L976.53 151.279
L976.53 151.19
L976.901 151.101
L976.974 150.745
L977.221 150.656
L977.247 150.478
L977.431 150.389
L977.464 150.21
L977.668 150.121
L977.757 149.943
L978.017 149.854
L978.081 149.587
L978.317 149.498
L978.317 149.409
L978.564 149.32
L978.579 149.142
L978.837 149.053
L978.9 148.786
L979.061 148.697
L979.077 148.519
L979.434 148.43
L979.465 148.163
L979.812 148.074
L979.812 147.984
L979.986 147.895
L980.019 147.717
L980.186 147.628
L980.288 147.361
L980.415 147.272
L980.504 147.094
L980.884 147.005
L980.964 146.827
L981.087 146.738
L981.166 146.56
L981.269 146.471
L981.327 146.115
L981.434 146.026
L981.542 145.669
L981.642 145.58
L981.723 145.313
L981.951 145.224
L982.014 145.046
L982.148 144.957
L982.205 144.779
L982.473 144.69
L982.521 144.423
L982.679 144.334
L982.778 144.067
L982.951 143.978
L983.052 143.622
L983.123 143.532
L983.123 143.443
L983.355 143.354
L983.436 143.176
L983.608 143.087
L983.63 142.82
L983.741 142.731
L983.821 142.553
L984.075 142.464
L984.143 142.197
L984.143 142.197" style="fill:none;stroke:#0000ff;"/>
   </g>
   <g id="line2d_2">
    <path clip-path="url(#pc1c77b9b39)" d="
M136.688 601.02
L145.162 596.124
L153.637 590.359
L162.111 583.776
L170.586 576.461
L179.061 568.527
L187.535 560.114
L196.01 551.379
L204.484 542.494
L212.959 533.634
L221.434 524.977
L229.908 516.688
L238.383 508.922
L246.858 501.81
L255.332 495.458
L263.807 489.943
L272.281 485.306
L280.756 481.555
L289.231 478.662
L297.705 476.565
L306.18 475.17
L314.655 474.355
L323.129 473.975
L331.604 473.867
L340.078 473.86
L348.553 473.774
L357.028 473.437
L365.502 472.684
L373.977 471.368
L382.452 469.364
L390.926 466.573
L399.401 462.931
L407.875 458.404
L416.35 452.996
L424.825 446.745
L433.299 439.722
L441.774 432.03
L450.249 423.798
L458.723 415.177
L467.198 406.333
L475.673 397.441
L484.147 388.678
L492.622 380.217
L501.096 372.216
L509.571 364.817
L518.046 358.138
L526.52 352.268
L534.995 347.263
L543.469 343.145
L551.944 339.901
L560.419 337.482
L568.893 335.808
L577.368 334.768
L585.843 334.226
L594.317 334.026
L602.792 333.999
L611.266 333.967
L619.741 333.755
L628.216 333.194
L636.69 332.129
L645.165 330.424
L653.64 327.971
L662.114 324.689
L670.589 320.531
L679.063 315.487
L687.538 309.58
L696.013 302.867
L704.487 295.439
L712.962 287.415
L721.437 278.936
L729.911 270.164
L738.386 261.27
L746.861 252.432
L755.335 243.825
L763.81 235.614
L772.284 227.949
L780.759 220.959
L789.234 214.743
L797.708 209.374
L806.183 204.886
L814.658 201.282
L823.132 198.529
L831.607 196.557
L840.081 195.269
L848.556 194.537
L857.031 194.215
L865.505 194.137
L873.98 194.128
L882.454 194.012
L890.929 193.617
L899.404 192.779
L907.878 191.355
L916.353 189.224
L924.828 186.294
L933.302 182.505
L941.777 177.829
L950.251 172.275
L958.726 165.888
L967.201 158.745
L975.675 150.952" style="fill:none;stroke:#ff0000;"/>
   </g>
   <g id="matplotlib.axis_1">
    <g id="xtick_1">
     <g id="line2d_3">
      <defs>
       <path d="
M0 0
L0 -4" id="m0012dd4eef" style="stroke:#000000;stroke-linecap:butt;stroke-width:0.5;"/>
      </defs>
      <g>
       <use style="stroke:#000000;stroke-linecap:butt;stroke-width:0.5;" x="136.6875" xlink:href="#m0012dd4eef" y="601.02"/>
      </g>
     </g>
     <g id="line2d_4">
      <defs>
       <path d="
M0 0
L0 4" id="m476344969c" style="stroke:#000000;stroke-linecap:butt;stroke-width:0.5;"/>
      </defs>
      <g>
       <use style="stroke:#000000;stroke-linecap:butt;stroke-width:0.5;" x="136.6875" xlink:href="#m476344969c" y="66.78"/>
      </g>
     </g>
     <g id="text_1">
      <!-- 0 -->
      <defs>
       <path d="
M31.7812 66.4062
Q24.1719 66.4062 20.3281 58.9062
Q16.5 51.4219 16.5 36.375
Q16.5 21.3906 20.3281 13.8906
Q24.1719 6.39062 31.7812 6.39062
Q39.4531 6.39062 43.2812 13.8906
Q47.125 21.3906 47.125 36.375
Q47.125 51.4219 43.2812 58.9062
Q39.4531 66.4062 31.7812 66.4062
M31.7812 74.2188
Q44.0469 74.2188 50.5156 64.5156
Q56.9844 54.8281 56.9844 36.375
Q56.9844 17.9688 50.5156 8.26562
Q44.0469 -1.42188 31.7812 -1.42188
Q19.5312 -1.42188 13.0625 8.26562
Q6.59375 17.9688 6.59375 36.375
Q6.59375 54.8281 13.0625 64.5156
Q19.5312 74.2188 31.7812 74.2188" id="DejaVuSans-30"/>
      </defs>
      <g transform="translate(133.6640625 613.92625)scale(0.12 -0.12)">
       <use xlink:href="#DejaVuSans-30"/>
      </g>
     </g>
    </g>
    <g id="xtick_2">
     <g id="line2d_5">
      <g>
       <use style="stroke:#000000;stroke-linecap:butt;stroke-width:0.5;" x="306.18" xlink:href="#m0012dd4eef" y="601.02"/>
      </g>
     </g>
     <g id="line2d_6">
      <g>
       <use style="stroke:#000000;stroke-linecap:butt;stroke-width:0.5;" x="306.18" xlink:href="#m476344969c" y="66.78"/>
      </g>
     </g>
     <g id="text_2">
      <!-- 20 -->
      <defs>
       <path d="
M19.1875 8.29688
L53.6094 8.29688
L53.6094 0
L7.32812 0
L7.32812 8.29688
Q12.9375 14.1094 22.625 23.8906
Q32.3281 33.6875 34.8125 36.5312
Q39.5469 41.8438 41.4219 45.5312
Q43.3125 49.2188 43.3125 52.7812
Q43.3125 58.5938 39.2344 62.25
Q35.1562 65.9219 28.6094 65.9219
Q23.9688 65.9219 18.8125 64.3125
Q13.6719 62.7031 7.8125 59.4219
L7.8125 69.3906
Q13.7656 71.7812 18.9375 73
Q24.125 74.2188 28.4219 74.2188
Q39.75 74.2188 46.4844 68.5469
Q53.2188 62.8906 53.2188 53.4219
Q53.2188 48.9219 51.5312 44.8906
Q49.8594 40.875 45.4062 35.4062
Q44.1875 33.9844 37.6406 27.2188
Q31.1094 20.4531 19.1875 8.29688" id="DejaVuSans-32"/>
      </defs>
      <g transform="translate(299.383125 613.92625)scale(0.12 -0.12)">
       <use xlink:href="#DejaVuSans-32"/>
       <use x="63.623046875" xlink:href="#DejaVuSans-30"/>
      </g>
     </g>
    </g>
    <g id="xtick_3">
     <g id="line2d_7">
      <g>
       <use style="stroke:#000000;stroke-linecap:butt;stroke-width:0.5;" x="475.6725" xlink:href="#m0012dd4eef" y="601.02"/>
      </g>
     </g>
     <g id="line2d_8">
      <g>
       <use style="stroke:#000000;stroke-linecap:butt;stroke-width:0.5;" x="475.6725" xlink:href="#m476344969c" y="66.78"/>
      </g>
     </g>
     <g id="text_3">
      <!-- 40 -->
      <defs>
       <path d="
M37.7969 64.3125
L12.8906 25.3906
L37.7969 25.3906
z

M35.2031 72.9062
L47.6094 72.9062
L47.6094 25.3906
L58.0156 25.3906
L58.0156 17.1875
L47.6094 17.1875
L47.6094 0
L37.7969 0
L37.7969 17.1875
L4.89062 17.1875
L4.89062 26.7031
z
" id="DejaVuSans-34"/>
      </defs>
      <g transform="translate(468.729375 613.92625)scale(0.12 -0.12)">
       <use xlink:href="#DejaVuSans-34"/>
       <use x="63.623046875" xlink:href="#DejaVuSans-30"/>
      </g>
     </g>
    </g>
    <g id="xtick_4">
     <g id="line2d_9">
      <g>
       <use style="stroke:#000000;stroke-linecap:butt;stroke-width:0.5;" x="645.165" xlink:href="#m0012dd4eef" y="601.02"/>
      </g>
     </g>
     <g id="line2d_10">
      <g>
       <use style="stroke:#000000;stroke-linecap:butt;stroke-width:0.5;" x="645.165" xlink:href="#m476344969c" y="66.78"/>
      </g>
     </g>
     <g id="text_4">
      <!-- 60 -->
      <defs>
       <path d="
M33.0156 40.375
Q26.375 40.375 22.4844 35.8281
Q18.6094 31.2969 18.6094 23.3906
Q18.6094 15.5312 22.4844 10.9531
Q26.375 6.39062 33.0156 6.39062
Q39.6562 6.39062 43.5312 10.9531
Q47.4062 15.5312 47.4062 23.3906
Q47.4062 31.2969 43.5312 35.8281
Q39.6562 40.375 33.0156 40.375
M52.5938 71.2969
L52.5938 62.3125
Q48.875 64.0625 45.0938 64.9844
Q41.3125 65.9219 37.5938 65.9219
Q27.8281 65.9219 22.6719 59.3281
Q17.5312 52.7344 16.7969 39.4062
Q19.6719 43.6562 24.0156 45.9219
Q28.375 48.1875 33.5938 48.1875
Q44.5781 48.1875 50.9531 41.5156
Q57.3281 34.8594 57.3281 23.3906
Q57.3281 12.1562 50.6875 5.35938
Q44.0469 -1.42188 33.0156 -1.42188
Q20.3594 -1.42188 13.6719 8.26562
Q6.98438 17.9688 6.98438 36.375
Q6.98438 53.6562 15.1875 63.9375
Q23.3906 74.2188 37.2031 74.2188
Q40.9219 74.2188 44.7031 73.4844
Q48.4844 72.75 52.5938 71.2969" id="DejaVuSans-36"/>
      </defs>
      <g transform="translate(638.3475 613.92625)scale(0.12 -0.12)">
       <use xlink:href="#DejaVuSans-36"/>
       <use x="63.623046875" xlink:href="#DejaVuSans-30"/>
      </g>
     </g>
    </g>
    <g id="xtick_5">
     <g id="line2d_11">
      <g>
       <use style="stroke:#000000;stroke-linecap:butt;stroke-width:0.5;" x="814.6575" xlink:href="#m0012dd4eef" y="601.02"/>
      </g>
     </g>
     <g id="line2d_12">
      <g>
       <use style="stroke:#000000;stroke-linecap:butt;stroke-width:0.5;" x="814.6575" xlink:href="#m476344969c" y="66.78"/>
      </g>
     </g>
     <g id="text_5">
      <!-- 80 -->
      <defs>
       <path d="
M31.7812 34.625
Q24.75 34.625 20.7188 30.8594
Q16.7031 27.0938 16.7031 20.5156
Q16.7031 13.9219 20.7188 10.1562
Q24.75 6.39062 31.7812 6.39062
Q38.8125 6.39062 42.8594 10.1719
Q46.9219 13.9688 46.9219 20.5156
Q46.9219 27.0938 42.8906 30.8594
Q38.875 34.625 31.7812 34.625
M21.9219 38.8125
Q15.5781 40.375 12.0312 44.7188
Q8.5 49.0781 8.5 55.3281
Q8.5 64.0625 14.7188 69.1406
Q20.9531 74.2188 31.7812 74.2188
Q42.6719 74.2188 48.875 69.1406
Q55.0781 64.0625 55.0781 55.3281
Q55.0781 49.0781 51.5312 44.7188
Q48 40.375 41.7031 38.8125
Q48.8281 37.1562 52.7969 32.3125
Q56.7812 27.4844 56.7812 20.5156
Q56.7812 9.90625 50.3125 4.23438
Q43.8438 -1.42188 31.7812 -1.42188
Q19.7344 -1.42188 13.25 4.23438
Q6.78125 9.90625 6.78125 20.5156
Q6.78125 27.4844 10.7812 32.3125
Q14.7969 37.1562 21.9219 38.8125
M18.3125 54.3906
Q18.3125 48.7344 21.8438 45.5625
Q25.3906 42.3906 31.7812 42.3906
Q38.1406 42.3906 41.7188 45.5625
Q45.3125 48.7344 45.3125 54.3906
Q45.3125 60.0625 41.7188 63.2344
Q38.1406 66.4062 31.7812 66.4062
Q25.3906 66.4062 21.8438 63.2344
Q18.3125 60.0625 18.3125 54.3906" id="DejaVuSans-38"/>
      </defs>
      <g transform="translate(807.8278125 613.92625)scale(0.12 -0.12)">
       <use xlink:href="#DejaVuSans-38"/>
       <use x="63.623046875" xlink:href="#DejaVuSans-30"/>
      </g>
     </g>
    </g>
    <g id="xtick_6">
     <g id="line2d_13">
      <g>
       <use style="stroke:#000000;stroke-linecap:butt;stroke-width:0.5;" x="984.15" xlink:href="#m0012dd4eef" y="601.02"/>
      </g>
     </g>
     <g id="line2d_14">
      <g>
       <use style="stroke:#000000;stroke-linecap:butt;stroke-width:0.5;" x="984.15" xlink:href="#m476344969c" y="66.78"/>
      </g>
     </g>
     <g id="text_6">
      <!-- 100 -->
      <defs>
       <path d="
M12.4062 8.29688
L28.5156 8.29688
L28.5156 63.9219
L10.9844 60.4062
L10.9844 69.3906
L28.4219 72.9062
L38.2812 72.9062
L38.2812 8.29688
L54.3906 8.29688
L54.3906 0
L12.4062 0
z
" id="DejaVuSans-31"/>
      </defs>
      <g transform="translate(973.755 613.92625)scale(0.12 -0.12)">
       <use xlink:href="#DejaVuSans-31"/>
       <use x="63.623046875" xlink:href="#DejaVuSans-30"/>
       <use x="127.24609375" xlink:href="#DejaVuSans-30"/>
      </g>
     </g>
    </g>
    <g id="text_7">
     <!-- Time -->
     <defs>
      <path d="
M52 44.1875
Q55.375 50.25 60.0625 53.125
Q64.75 56 71.0938 56
Q79.6406 56 84.2812 50.0156
Q88.9219 44.0469 88.9219 33.0156
L88.9219 0
L79.8906 0
L79.8906 32.7188
Q79.8906 40.5781 77.0938 44.375
Q74.3125 48.1875 68.6094 48.1875
Q61.625 48.1875 57.5625 43.5469
Q53.5156 38.9219 53.5156 30.9062
L53.5156 0
L44.4844 0
L44.4844 32.7188
Q44.4844 40.625 41.7031 44.4062
Q38.9219 48.1875 33.1094 48.1875
Q26.2188 48.1875 22.1562 43.5312
Q18.1094 38.875 18.1094 30.9062
L18.1094 0
L9.07812 0
L9.07812 54.6875
L18.1094 54.6875
L18.1094 46.1875
Q21.1875 51.2188 25.4844 53.6094
Q29.7812 56 35.6875 56
Q41.6562 56 45.8281 52.9688
Q50 49.9531 52 44.1875" id="DejaVuSans-6d"/>
      <path d="
M9.42188 54.6875
L18.4062 54.6875
L18.4062 0
L9.42188 0
z

M9.42188 75.9844
L18.4062 75.9844
L18.4062 64.5938
L9.42188 64.5938
z
" id="DejaVuSans-69"/>
      <path d="
M56.2031 29.5938
L56.2031 25.2031
L14.8906 25.2031
Q15.4844 15.9219 20.4844 11.0625
Q25.4844 6.20312 34.4219 6.20312
Q39.5938 6.20312 44.4531 7.46875
Q49.3125 8.73438 54.1094 11.2812
L54.1094 2.78125
Q49.2656 0.734375 44.1875 -0.34375
Q39.1094 -1.42188 33.8906 -1.42188
Q20.7969 -1.42188 13.1562 6.1875
Q5.51562 13.8125 5.51562 26.8125
Q5.51562 40.2344 12.7656 48.1094
Q20.0156 56 32.3281 56
Q43.3594 56 49.7812 48.8906
Q56.2031 41.7969 56.2031 29.5938
M47.2188 32.2344
Q47.125 39.5938 43.0938 43.9844
Q39.0625 48.3906 32.4219 48.3906
Q24.9062 48.3906 20.3906 44.1406
Q15.875 39.8906 15.1875 32.1719
z
" id="DejaVuSans-65"/>
      <path d="
M-0.296875 72.9062
L61.375 72.9062
L61.375 64.5938
L35.5 64.5938
L35.5 0
L25.5938 0
L25.5938 64.5938
L-0.296875 64.5938
z
" id="DejaVuSans-54"/>
     </defs>
     <g transform="translate(546.0403125 628.215)scale(0.12 -0.12)">
      <use xlink:href="#DejaVuSans-54"/>
      <use x="57.958984375" xlink:href="#DejaVuSans-69"/>
      <use x="85.7421875" xlink:href="#DejaVuSans-6d"/>
      <use x="183.154296875" xlink:href="#DejaVuSans-65"/>
     </g>
    </g>
   </g>
   <g id="matplotlib.axis_2">
    <g id="ytick_1">
     <g id="line2d_15">
      <defs>
       <path d="
M0 0
L4 0" id="me8a85f7bf6" style="stroke:#000000;stroke-linecap:butt;stroke-width:0.5;"/>
      </defs>
      <g>
       <use style="stroke:#000000;stroke-linecap:butt;stroke-width:0.5;" x="136.6875" xlink:href="#me8a85f7bf6" y="601.02"/>
      </g>
     </g>
     <g id="line2d_16">
      <defs>
       <path d="
M0 0
L-4 0" id="m1a32005dea" style="stroke:#000000;stroke-linecap:butt;stroke-width:0.5;"/>
      </defs>
      <g>
       <use style="stroke:#000000;stroke-linecap:butt;stroke-width:0.5;" x="984.15" xlink:href="#m1a32005dea" y="601.02"/>
      </g>
     </g>
     <g id="text_8">
      <!-- 0 -->
      <g transform="translate(126.640625 605.3878125)scale(0.12 -0.12)">
       <use xlink:href="#DejaVuSans-30"/>
      </g>
     </g>
    </g>
    <g id="ytick_2">
     <g id="line2d_17">
      <g>
       <use style="stroke:#000000;stroke-linecap:butt;stroke-width:0.5;" x="136.6875" xlink:href="#me8a85f7bf6" y="511.98"/>
      </g>
     </g>
     <g id="line2d_18">
      <g>
       <use style="stroke:#000000;stroke-linecap:butt;stroke-width:0.5;" x="984.15" xlink:href="#m1a32005dea" y="511.98"/>
      </g>
     </g>
     <g id="text_9">
      <!-- 20 -->
      <g transform="translate(119.09375 516.3478125)scale(0.12 -0.12)">
       <use xlink:href="#DejaVuSans-32"/>
       <use x="63.623046875" xlink:href="#DejaVuSans-30"/>
      </g>
     </g>
    </g>
    <g id="ytick_3">
     <g id="line2d_19">
      <g>
       <use style="stroke:#000000;stroke-linecap:butt;stroke-width:0.5;" x="136.6875" xlink:href="#me8a85f7bf6" y="422.94"/>
      </g>
     </g>
     <g id="line2d_20">
      <g>
       <use style="stroke:#000000;stroke-linecap:butt;stroke-width:0.5;" x="984.15" xlink:href="#m1a32005dea" y="422.94"/>
      </g>
     </g>
     <g id="text_10">
      <!-- 40 -->
      <g transform="translate(118.80125 427.3078125)scale(0.12 -0.12)">
       <use xlink:href="#DejaVuSans-34"/>
       <use x="63.623046875" xlink:href="#DejaVuSans-30"/>
      </g>
     </g>
    </g>
    <g id="ytick_4">
     <g id="line2d_21">
      <g>
       <use style="stroke:#000000;stroke-linecap:butt;stroke-width:0.5;" x="136.6875" xlink:href="#me8a85f7bf6" y="333.9"/>
      </g>
     </g>
     <g id="line2d_22">
      <g>
       <use style="stroke:#000000;stroke-linecap:butt;stroke-width:0.5;" x="984.15" xlink:href="#m1a32005dea" y="333.9"/>
      </g>
     </g>
     <g id="text_11">
      <!-- 60 -->
      <g transform="translate(119.0525 338.2678125)scale(0.12 -0.12)">
       <use xlink:href="#DejaVuSans-36"/>
       <use x="63.623046875" xlink:href="#DejaVuSans-30"/>
      </g>
     </g>
    </g>
    <g id="ytick_5">
     <g id="line2d_23">
      <g>
       <use style="stroke:#000000;stroke-linecap:butt;stroke-width:0.5;" x="136.6875" xlink:href="#me8a85f7bf6" y="244.86"/>
      </g>
     </g>
     <g id="line2d_24">
      <g>
       <use style="stroke:#000000;stroke-linecap:butt;stroke-width:0.5;" x="984.15" xlink:href="#m1a32005dea" y="244.86"/>
      </g>
     </g>
     <g id="text_12">
      <!-- 80 -->
      <g transform="translate(119.028125 249.2278125)scale(0.12 -0.12)">
       <use xlink:href="#DejaVuSans-38"/>
       <use x="63.623046875" xlink:href="#DejaVuSans-30"/>
      </g>
     </g>
    </g>
    <g id="ytick_6">
     <g id="line2d_25">
      <g>
       <use style="stroke:#000000;stroke-linecap:butt;stroke-width:0.5;" x="136.6875" xlink:href="#me8a85f7bf6" y="155.82"/>
      </g>
     </g>
     <g id="line2d_26">
      <g>
       <use style="stroke:#000000;stroke-linecap:butt;stroke-width:0.5;" x="984.15" xlink:href="#m1a32005dea" y="155.82"/>
      </g>
     </g>
     <g id="text_13">
      <!-- 100 -->
      <g transform="translate(111.8975 160.1878125)scale(0.12 -0.12)">
       <use xlink:href="#DejaVuSans-31"/>
       <use x="63.623046875" xlink:href="#DejaVuSans-30"/>
       <use x="127.24609375" xlink:href="#DejaVuSans-30"/>
      </g>
     </g>
    </g>
    <g id="ytick_7">
     <g id="line2d_27">
      <g>
       <use style="stroke:#000000;stroke-linecap:butt;stroke-width:0.5;" x="136.6875" xlink:href="#me8a85f7bf6" y="66.78"/>
      </g>
     </g>
     <g id="line2d_28">
      <g>
       <use style="stroke:#000000;stroke-linecap:butt;stroke-width:0.5;" x="984.15" xlink:href="#m1a32005dea" y="66.78"/>
      </g>
     </g>
     <g id="text_14">
      <!-- 120 -->
      <g transform="translate(111.8975 71.1478125)scale(0.12 -0.12)">
       <use xlink:href="#DejaVuSans-31"/>
       <use x="63.623046875" xlink:href="#DejaVuSans-32"/>
       <use x="127.24609375" xlink:href="#DejaVuSans-30"/>
      </g>
     </g>
    </g>
    <g id="text_15">
     <!-- Emissions -->
     <defs>
      <path d="
M30.6094 48.3906
Q23.3906 48.3906 19.1875 42.75
Q14.9844 37.1094 14.9844 27.2969
Q14.9844 17.4844 19.1562 11.8438
Q23.3438 6.20312 30.6094 6.20312
Q37.7969 6.20312 41.9844 11.8594
Q46.1875 17.5312 46.1875 27.2969
Q46.1875 37.0156 41.9844 42.7031
Q37.7969 48.3906 30.6094 48.3906
M30.6094 56
Q42.3281 56 49.0156 48.375
Q55.7188 40.7656 55.7188 27.2969
Q55.7188 13.875 49.0156 6.21875
Q42.3281 -1.42188 30.6094 -1.42188
Q18.8438 -1.42188 12.1719 6.21875
Q5.51562 13.875 5.51562 27.2969
Q5.51562 40.7656 12.1719 48.375
Q18.8438 56 30.6094 56" id="DejaVuSans-6f"/>
      <path d="
M9.8125 72.9062
L55.9062 72.9062
L55.9062 64.5938
L19.6719 64.5938
L19.6719 43.0156
L54.3906 43.0156
L54.3906 34.7188
L19.6719 34.7188
L19.6719 8.29688
L56.7812 8.29688
L56.7812 0
L9.8125 0
z
" id="DejaVuSans-45"/>
      <path d="
M54.8906 33.0156
L54.8906 0
L45.9062 0
L45.9062 32.7188
Q45.9062 40.4844 42.875 44.3281
Q39.8438 48.1875 33.7969 48.1875
Q26.5156 48.1875 22.3125 43.5469
Q18.1094 38.9219 18.1094 30.9062
L18.1094 0
L9.07812 0
L9.07812 54.6875
L18.1094 54.6875
L18.1094 46.1875
Q21.3438 51.125 25.7031 53.5625
Q30.0781 56 35.7969 56
Q45.2188 56 50.0469 50.1719
Q54.8906 44.3438 54.8906 33.0156" id="DejaVuSans-6e"/>
      <path d="
M44.2812 53.0781
L44.2812 44.5781
Q40.4844 46.5312 36.375 47.5
Q32.2812 48.4844 27.875 48.4844
Q21.1875 48.4844 17.8438 46.4375
Q14.5 44.3906 14.5 40.2812
Q14.5 37.1562 16.8906 35.375
Q19.2812 33.5938 26.5156 31.9844
L29.5938 31.2969
Q39.1562 29.25 43.1875 25.5156
Q47.2188 21.7812 47.2188 15.0938
Q47.2188 7.46875 41.1875 3.01562
Q35.1562 -1.42188 24.6094 -1.42188
Q20.2188 -1.42188 15.4531 -0.5625
Q10.6875 0.296875 5.42188 2
L5.42188 11.2812
Q10.4062 8.6875 15.2344 7.39062
Q20.0625 6.10938 24.8125 6.10938
Q31.1562 6.10938 34.5625 8.28125
Q37.9844 10.4531 37.9844 14.4062
Q37.9844 18.0625 35.5156 20.0156
Q33.0625 21.9688 24.7031 23.7812
L21.5781 24.5156
Q13.2344 26.2656 9.51562 29.9062
Q5.8125 33.5469 5.8125 39.8906
Q5.8125 47.6094 11.2812 51.7969
Q16.75 56 26.8125 56
Q31.7812 56 36.1719 55.2656
Q40.5781 54.5469 44.2812 53.0781" id="DejaVuSans-73"/>
     </defs>
     <g transform="translate(106.8975 362.668125)rotate(-90.0)scale(0.12 -0.12)">
      <use xlink:href="#DejaVuSans-45"/>
      <use x="63.18359375" xlink:href="#DejaVuSans-6d"/>
      <use x="160.595703125" xlink:href="#DejaVuSans-69"/>
      <use x="188.37890625" xlink:href="#DejaVuSans-73"/>
      <use x="240.478515625" xlink:href="#DejaVuSans-73"/>
      <use x="292.578125" xlink:href="#DejaVuSans-69"/>
      <use x="320.361328125" xlink:href="#DejaVuSans-6f"/>
      <use x="381.54296875" xlink:href="#DejaVuSans-6e"/>
      <use x="444.921875" xlink:href="#DejaVuSans-73"/>
     </g>
    </g>
   </g>
   <g id="patch_3">
    <path d="
M136.688 66.78
L984.15 66.78" style="fill:none;stroke:#000000;"/>
   </g>
   <g id="patch_4">
    <path d="
M984.15 601.02
L984.15 66.78" style="fill:none;stroke:#000000;"/>
   </g>
   <g id="patch_5">
    <path d="
M136.688 601.02
L984.15 601.02" style="fill:none;stroke:#000000;"/>
   </g>
   <g id="patch_6">
    <path d="
M136.688 601.02
L136.688 66.78" style="fill:none;stroke:#000000;"/>
   </g>
   <g id="text_16">
    <!-- 103.06 -->
    <defs>
     <path d="
M40.5781 39.3125
Q47.6562 37.7969 51.625 33
Q55.6094 28.2188 55.6094 21.1875
Q55.6094 10.4062 48.1875 4.48438
Q40.7656 -1.42188 27.0938 -1.42188
Q22.5156 -1.42188 17.6562 -0.515625
Q12.7969 0.390625 7.625 2.20312
L7.625 11.7188
Q11.7188 9.32812 16.5938 8.10938
Q21.4844 6.89062 26.8125 6.89062
Q36.0781 6.89062 40.9375 10.5469
Q45.7969 14.2031 45.7969 21.1875
Q45.7969 27.6406 41.2812 31.2656
Q36.7656 34.9062 28.7188 34.9062
L20.2188 34.9062
L20.2188 43.0156
L29.1094 43.0156
Q36.375 43.0156 40.2344 45.9219
Q44.0938 48.8281 44.0938 54.2969
Q44.0938 59.9062 40.1094 62.9062
Q36.1406 65.9219 28.7188 65.9219
Q24.6562 65.9219 20.0156 65.0312
Q15.375 64.1562 9.8125 62.3125
L9.8125 71.0938
Q15.4375 72.6562 20.3438 73.4375
Q25.25 74.2188 29.5938 74.2188
Q40.8281 74.2188 47.3594 69.1094
Q53.9062 64.0156 53.9062 55.3281
Q53.9062 49.2656 50.4375 45.0938
Q46.9688 40.9219 40.5781 39.3125" id="DejaVuSans-33"/>
     <path d="
M10.6875 12.4062
L21 12.4062
L21 0
L10.6875 0
z
" id="DejaVuSans-2e"/>
    </defs>
    <g transform="translate(992.618069283 142.19688)scale(0.12 -0.12)">
     <use xlink:href="#DejaVuSans-31"/>
     <use x="63.623046875" xlink:href="#DejaVuSans-30"/>
     <use x="127.24609375" xlink:href="#DejaVuSans-33"/>
     <use x="190.869140625" xlink:href="#DejaVuSans-2e"/>
     <use x="222.65625" xlink:href="#DejaVuSans-30"/>
     <use x="286.279296875" xlink:href="#DejaVuSans-36"/>
    </g>
   </g>
   <g id="legend_1">
    <g id="patch_7">
     <path d="
M793.62 120.573
L976.95 120.573
L976.95 73.98
L793.62 73.98
L793.62 120.573
z
" style="fill:#ffffff;stroke:#000000;"/>
    </g>
    <g id="line2d_29">
     <path d="
M803.7 85.6417
L823.86 85.6417" style="fill:none;stroke:#0000ff;"/>
    </g>
    <g id="line2d_30"/>
    <g id="text_17">
     <!-- Estimated integral -->
     <defs>
      <path d="
M9.42188 75.9844
L18.4062 75.9844
L18.4062 0
L9.42188 0
z
" id="DejaVuSans-6c"/>
      <path id="DejaVuSans-20"/>
      <path d="
M18.3125 70.2188
L18.3125 54.6875
L36.8125 54.6875
L36.8125 47.7031
L18.3125 47.7031
L18.3125 18.0156
Q18.3125 11.3281 20.1406 9.42188
Q21.9688 7.51562 27.5938 7.51562
L36.8125 7.51562
L36.8125 0
L27.5938 0
Q17.1875 0 13.2344 3.875
Q9.28125 7.76562 9.28125 18.0156
L9.28125 47.7031
L2.6875 47.7031
L2.6875 54.6875
L9.28125 54.6875
L9.28125 70.2188
z
" id="DejaVuSans-74"/>
      <path d="
M45.4062 27.9844
Q45.4062 37.75 41.375 43.1094
Q37.3594 48.4844 30.0781 48.4844
Q22.8594 48.4844 18.8281 43.1094
Q14.7969 37.75 14.7969 27.9844
Q14.7969 18.2656 18.8281 12.8906
Q22.8594 7.51562 30.0781 7.51562
Q37.3594 7.51562 41.375 12.8906
Q45.4062 18.2656 45.4062 27.9844
M54.3906 6.78125
Q54.3906 -7.17188 48.1875 -13.9844
Q42 -20.7969 29.2031 -20.7969
Q24.4688 -20.7969 20.2656 -20.0938
Q16.0625 -19.3906 12.1094 -17.9219
L12.1094 -9.1875
Q16.0625 -11.3281 19.9219 -12.3438
Q23.7812 -13.375 27.7812 -13.375
Q36.625 -13.375 41.0156 -8.76562
Q45.4062 -4.15625 45.4062 5.17188
L45.4062 9.625
Q42.625 4.78125 38.2812 2.39062
Q33.9375 0 27.875 0
Q17.8281 0 11.6719 7.65625
Q5.51562 15.3281 5.51562 27.9844
Q5.51562 40.6719 11.6719 48.3281
Q17.8281 56 27.875 56
Q33.9375 56 38.2812 53.6094
Q42.625 51.2188 45.4062 46.3906
L45.4062 54.6875
L54.3906 54.6875
z
" id="DejaVuSans-67"/>
      <path d="
M45.4062 46.3906
L45.4062 75.9844
L54.3906 75.9844
L54.3906 0
L45.4062 0
L45.4062 8.20312
Q42.5781 3.32812 38.25 0.953125
Q33.9375 -1.42188 27.875 -1.42188
Q17.9688 -1.42188 11.7344 6.48438
Q5.51562 14.4062 5.51562 27.2969
Q5.51562 40.1875 11.7344 48.0938
Q17.9688 56 27.875 56
Q33.9375 56 38.25 53.625
Q42.5781 51.2656 45.4062 46.3906
M14.7969 27.2969
Q14.7969 17.3906 18.875 11.75
Q22.9531 6.10938 30.0781 6.10938
Q37.2031 6.10938 41.2969 11.75
Q45.4062 17.3906 45.4062 27.2969
Q45.4062 37.2031 41.2969 42.8438
Q37.2031 48.4844 30.0781 48.4844
Q22.9531 48.4844 18.875 42.8438
Q14.7969 37.2031 14.7969 27.2969" id="DejaVuSans-64"/>
      <path d="
M34.2812 27.4844
Q23.3906 27.4844 19.1875 25
Q14.9844 22.5156 14.9844 16.5
Q14.9844 11.7188 18.1406 8.90625
Q21.2969 6.10938 26.7031 6.10938
Q34.1875 6.10938 38.7031 11.4062
Q43.2188 16.7031 43.2188 25.4844
L43.2188 27.4844
z

M52.2031 31.2031
L52.2031 0
L43.2188 0
L43.2188 8.29688
Q40.1406 3.32812 35.5469 0.953125
Q30.9531 -1.42188 24.3125 -1.42188
Q15.9219 -1.42188 10.9531 3.29688
Q6 8.01562 6 15.9219
Q6 25.1406 12.1719 29.8281
Q18.3594 34.5156 30.6094 34.5156
L43.2188 34.5156
L43.2188 35.4062
Q43.2188 41.6094 39.1406 45
Q35.0625 48.3906 27.6875 48.3906
Q23 48.3906 18.5469 47.2656
Q14.1094 46.1406 10.0156 43.8906
L10.0156 52.2031
Q14.9375 54.1094 19.5781 55.0469
Q24.2188 56 28.6094 56
Q40.4844 56 46.3438 49.8438
Q52.2031 43.7031 52.2031 31.2031" id="DejaVuSans-61"/>
      <path d="
M41.1094 46.2969
Q39.5938 47.1719 37.8125 47.5781
Q36.0312 48 33.8906 48
Q26.2656 48 22.1875 43.0469
Q18.1094 38.0938 18.1094 28.8125
L18.1094 0
L9.07812 0
L9.07812 54.6875
L18.1094 54.6875
L18.1094 46.1875
Q20.9531 51.1719 25.4844 53.5781
Q30.0312 56 36.5312 56
Q37.4531 56 38.5781 55.875
Q39.7031 55.7656 41.0625 55.5156
z
" id="DejaVuSans-72"/>
     </defs>
     <g transform="translate(839.7 90.68175)scale(0.144 -0.144)">
      <use xlink:href="#DejaVuSans-45"/>
      <use x="63.18359375" xlink:href="#DejaVuSans-73"/>
      <use x="115.283203125" xlink:href="#DejaVuSans-74"/>
      <use x="154.4921875" xlink:href="#DejaVuSans-69"/>
      <use x="182.275390625" xlink:href="#DejaVuSans-6d"/>
      <use x="279.6875" xlink:href="#DejaVuSans-61"/>
      <use x="340.966796875" xlink:href="#DejaVuSans-74"/>
      <use x="380.17578125" xlink:href="#DejaVuSans-65"/>
      <use x="441.69921875" xlink:href="#DejaVuSans-64"/>
      <use x="505.17578125" xlink:href="#DejaVuSans-20"/>
      <use x="536.962890625" xlink:href="#DejaVuSans-69"/>
      <use x="564.74609375" xlink:href="#DejaVuSans-6e"/>
      <use x="628.125" xlink:href="#DejaVuSans-74"/>
      <use x="667.333984375" xlink:href="#DejaVuSans-65"/>
      <use x="728.857421875" xlink:href="#DejaVuSans-67"/>
      <use x="792.333984375" xlink:href="#DejaVuSans-72"/>
      <use x="833.447265625" xlink:href="#DejaVuSans-61"/>
      <use x="894.7265625" xlink:href="#DejaVuSans-6c"/>
     </g>
    </g>
    <g id="line2d_31">
     <path d="
M803.7 106.778
L823.86 106.778" style="fill:none;stroke:#ff0000;"/>
    </g>
    <g id="line2d_32"/>
    <g id="text_18">
     <!-- True integral -->
     <defs>
      <path d="
M8.5 21.5781
L8.5 54.6875
L17.4844 54.6875
L17.4844 21.9219
Q17.4844 14.1562 20.5 10.2656
Q23.5312 6.39062 29.5938 6.39062
Q36.8594 6.39062 41.0781 11.0312
Q45.3125 15.6719 45.3125 23.6875
L45.3125 54.6875
L54.2969 54.6875
L54.2969 0
L45.3125 0
L45.3125 8.40625
Q42.0469 3.42188 37.7188 1
Q33.4062 -1.42188 27.6875 -1.42188
Q18.2656 -1.42188 13.375 4.4375
Q8.5 10.2969 8.5 21.5781
M31.1094 56
z
" id="DejaVuSans-75"/>
     </defs>
     <g transform="translate(839.7 111.81825)scale(0.144 -0.144)">
      <use xlink:href="#DejaVuSans-54"/>
      <use x="46.333984375" xlink:href="#DejaVuSans-72"/>
      <use x="87.447265625" xlink:href="#DejaVuSans-75"/>
      <use x="150.826171875" xlink:href="#DejaVuSans-65"/>
      <use x="212.349609375" xlink:href="#DejaVuSans-20"/>
      <use x="244.13671875" xlink:href="#DejaVuSans-69"/>
      <use x="271.919921875" xlink:href="#DejaVuSans-6e"/>
      <use x="335.298828125" xlink:href="#DejaVuSans-74"/>
      <use x="374.5078125" xlink:href="#DejaVuSans-65"/>
      <use x="436.03125" xlink:href="#DejaVuSans-67"/>
      <use x="499.5078125" xlink:href="#DejaVuSans-72"/>
      <use x="540.62109375" xlink:href="#DejaVuSans-61"/>
      <use x="601.900390625" xlink:href="#DejaVuSans-6c"/>
     </g>
    </g>
   </g>
  </g>
 </g>
 <defs>
  <clipPath id="pc1c77b9b39">
   <rect height="534.24" width="847.4625" x="136.6875" y="66.78"/>
  </clipPath>
 </defs>
</svg>
