<?xml version="1.0" encoding="utf-8" standalone="no"?>
<!DOCTYPE svg PUBLIC "-//W3C//DTD SVG 1.1//EN"
  "http://www.w3.org/Graphics/SVG/1.1/DTD/svg11.dtd">
<!-- Created with matplotlib (http://matplotlib.sourceforge.net/) -->
<svg height="667pt" version="1.1" viewBox="0 0 1093 667" width="1093pt" xmlns="http://www.w3.org/2000/svg" xmlns:xlink="http://www.w3.org/1999/xlink">
 <defs>
  <style type="text/css">
*{stroke-linecap:square;stroke-linejoin:round;}
  </style>
 </defs>
 <g id="figure_1">
  <g id="patch_1">
   <path d="
M0 667.8
L1093.5 667.8
L1093.5 0
L0 0
z
" style="fill:#ffffff;"/>
  </g>
  <g id="axes_1">
   <g id="patch_2">
    <path d="
M136.688 601.02
L984.15 601.02
L984.15 66.78
L136.688 66.78
z
" style="fill:#ffffff;"/>
   </g>
   <g id="line2d_1">
    <path clip-path="url(#pc1c77b9b39)" d="
M136.688 601.02
L137.968 601.02
L137.968 600.257
L138.671 600.257
L138.7 598.73
L140.909 598.73
L140.909 597.967
L144.525 597.967
L144.525 597.204
L147.754 597.204
L147.754 596.441
L148.054 596.441
L148.054 595.678
L148.773 595.678
L148.773 594.914
L148.913 594.914
L148.913 594.151
L154.301 594.151
L154.301 593.388
L157.963 593.388
L157.963 592.625
L158.986 592.625
L158.986 591.862
L159.817 591.862
L159.817 591.098
L160.856 591.098
L160.856 590.335
L165.971 590.335
L165.971 589.572
L167.227 589.572
L167.227 588.809
L167.994 588.809
L167.994 588.046
L168.413 588.046
L168.413 587.282
L168.904 587.282
L168.904 586.519
L169.416 586.519
L169.416 585.756
L172.043 585.756
L172.043 584.993
L172.607 584.993
L172.607 584.23
L172.899 584.23
L172.899 583.466
L176.76 583.466
L176.76 582.703
L178.35 582.703
L178.35 581.94
L182.957 581.94
L182.957 581.177
L184.239 581.177
L184.239 580.414
L184.85 580.414
L184.85 579.65
L186.529 579.65
L186.529 578.887
L187.619 578.887
L187.619 578.124
L193.019 578.124
L193.019 577.361
L194.055 577.361
L194.055 576.598
L195.37 576.598
L195.37 575.834
L196.166 575.834
L196.166 575.071
L196.428 575.071
L196.428 574.308
L196.717 574.308
L196.717 573.545
L198.489 573.545
L198.489 572.782
L198.605 572.782
L198.605 572.018
L199.003 572.018
L199.003 571.255
L202.733 571.255
L202.733 570.492
L206.912 570.492
L206.912 569.729
L207.655 569.729
L207.655 568.966
L208.185 568.966
L208.185 568.202
L208.83 568.202
L208.83 567.439
L210.322 567.439
L210.322 566.676
L212.151 566.676
L212.151 565.913
L212.798 565.913
L212.798 565.15
L217.97 565.15
L217.97 564.386
L218.16 564.386
L218.16 563.623
L220.033 563.623
L220.033 562.86
L221.141 562.86
L221.141 562.097
L226.594 562.097
L226.594 561.334
L229.373 561.334
L229.38 559.807
L230.404 559.807
L230.404 559.044
L232.65 559.044
L232.65 558.281
L233.459 558.281
L233.459 557.518
L233.947 557.518
L233.947 556.754
L235.866 556.754
L235.866 555.991
L237.687 555.991
L237.687 555.228
L240.733 555.228
L240.733 554.465
L241.231 554.465
L241.231 553.702
L241.755 553.702
L241.755 552.938
L242.37 552.938
L242.37 552.175
L243.482 552.175
L243.482 551.412
L244.207 551.412
L244.207 550.649
L244.564 550.649
L244.564 549.886
L244.94 549.886
L244.94 549.122
L245.86 549.122
L245.86 548.359
L246.497 548.359
L246.497 547.596
L248.148 547.596
L248.148 546.833
L250.025 546.833
L250.025 546.07
L252.357 546.07
L252.357 545.306
L252.797 545.306
L252.797 544.543
L252.981 544.543
L252.981 543.78
L254.921 543.78
L254.921 543.017
L257.532 543.017
L257.532 542.254
L257.943 542.254
L257.943 541.49
L258.436 541.49
L258.436 540.727
L264.026 540.727
L264.026 539.964
L265.272 539.964
L265.272 539.201
L266.003 539.201
L266.003 538.438
L267.22 538.438
L267.22 537.674
L268.741 537.674
L268.741 536.911
L271.841 536.911
L271.841 536.148
L274.16 536.148
L274.16 535.385
L274.647 535.385
L274.647 534.622
L275.19 534.622
L275.19 533.858
L275.316 533.858
L275.316 533.095
L279.508 533.095
L279.508 532.332
L280.191 532.332
L280.191 531.569
L281.463 531.569
L281.463 530.806
L282.569 530.806
L282.569 530.042
L286.01 530.042
L286.01 529.279
L286.235 529.279
L286.344 527.753
L288.965 527.753
L288.965 526.99
L290.032 526.99
L290.032 526.226
L291.956 526.226
L291.956 525.463
L293.938 525.463
L293.938 524.7
L295.283 524.7
L295.283 523.937
L296.425 523.937
L296.425 523.174
L297.77 523.174
L297.77 522.41
L298.764 522.41
L298.764 521.647
L300.068 521.647
L300.068 520.884
L301.246 520.884
L301.246 520.121
L304.353 520.121
L304.353 519.358
L305.36 519.358
L305.36 518.594
L308.909 518.594
L308.989 517.068
L310.358 517.068
L310.358 516.305
L312.675 516.305
L312.675 515.542
L312.932 515.542
L312.932 514.778
L313.11 514.778
L313.11 514.015
L314.198 514.015
L314.198 513.252
L316.373 513.252
L316.373 512.489
L317.464 512.489
L317.464 511.726
L320.042 511.726
L320.042 510.962
L321.937 510.962
L321.937 510.199
L322.44 510.199
L322.44 509.436
L322.757 509.436
L322.757 508.673
L323.575 508.673
L323.575 507.91
L323.695 507.91
L323.695 507.146
L324.35 507.146
L324.35 506.383
L326.211 506.383
L326.211 505.62
L330.015 505.62
L330.015 504.857
L330.923 504.857
L330.923 504.094
L331.306 504.094
L331.306 503.33
L332.475 503.33
L332.475 502.567
L333.088 502.567
L333.088 501.804
L333.773 501.804
L333.773 501.041
L334.749 501.041
L334.749 500.278
L338.676 500.278
L338.676 499.514
L340.936 499.514
L340.936 498.751
L343.226 498.751
L343.226 497.988
L346.334 497.988
L346.438 496.462
L349.058 496.462
L349.058 495.698
L351.853 495.698
L351.853 494.935
L352.292 494.935
L352.292 494.172
L355.858 494.172
L355.858 493.409
L356.636 493.409
L356.636 492.646
L361.086 492.646
L361.101 491.119
L363.047 491.119
L363.047 490.356
L364.056 490.356
L364.056 489.593
L365.169 489.593
L365.169 488.83
L366.843 488.83
L366.843 488.066
L369.436 488.066
L369.436 487.303
L371.637 487.303
L371.637 486.54
L371.812 486.54
L371.812 485.777
L373.54 485.777
L373.54 485.014
L374.25 485.014
L374.25 484.25
L374.485 484.25
L374.485 483.487
L375.077 483.487
L375.077 482.724
L380.728 482.724
L380.728 481.961
L382.309 481.961
L382.309 481.198
L386.657 481.198
L386.657 480.434
L390.996 480.434
L390.996 479.671
L391.622 479.671
L391.622 478.908
L394.704 478.908
L394.704 478.145
L395.833 478.145
L395.833 477.382
L396.06 477.382
L396.06 476.618
L397.089 476.618
L397.089 475.855
L397.927 475.855
L397.927 475.092
L400.813 475.092
L400.813 474.329
L401.659 474.329
L401.659 473.566
L402.244 473.566
L402.312 472.039
L405.969 472.039
L405.969 471.276
L406.509 471.276
L406.509 470.513
L406.875 470.513
L406.875 469.75
L407.485 469.75
L407.485 468.986
L407.665 468.986
L407.665 468.223
L408.06 468.223
L408.06 467.46
L408.345 467.46
L408.345 466.697
L408.873 466.697
L408.873 465.934
L409.491 465.934
L409.491 465.17
L410.091 465.17
L410.101 463.644
L410.279 463.644
L410.279 462.881
L411.28 462.881
L411.332 461.354
L412.411 461.354
L412.411 460.591
L413.711 460.591
L413.711 459.828
L414.231 459.828
L414.231 459.065
L414.723 459.065
L414.723 458.302
L416.537 458.302
L416.537 457.538
L416.862 457.538
L416.862 456.775
L420.752 456.775
L420.752 456.012
L421.019 456.012
L421.019 455.249
L422.791 455.249
L422.791 454.486
L423.133 454.486
L423.133 453.722
L424.088 453.722
L424.088 452.959
L424.404 452.959
L424.404 452.196
L424.935 452.196
L424.935 451.433
L426.287 451.433
L426.334 449.143
L427.804 449.143
L427.822 447.617
L428.044 447.617
L428.044 446.854
L428.761 446.854
L428.761 446.09
L429.472 446.09
L429.472 445.327
L429.668 445.327
L429.668 444.564
L430.187 444.564
L430.187 443.801
L431.135 443.801
L431.135 443.038
L431.975 443.038
L431.975 442.274
L433.062 442.274
L433.062 441.511
L433.407 441.511
L433.407 440.748
L433.828 440.748
L433.828 439.985
L435.453 439.985
L435.453 439.222
L435.765 439.222
L435.765 438.458
L435.879 438.458
L435.879 437.695
L436.937 437.695
L436.937 436.932
L437.601 436.932
L437.601 436.169
L438.11 436.169
L438.131 434.642
L438.959 434.642
L438.959 433.879
L440.316 433.879
L440.316 433.116
L440.805 433.116
L440.805 432.353
L442.267 432.353
L442.267 431.59
L443.106 431.59
L443.106 430.826
L444.367 430.826
L444.367 430.063
L444.804 430.063
L444.804 429.3
L447.288 429.3
L447.288 428.537
L447.892 428.537
L447.892 427.774
L449.517 427.774
L449.517 427.01
L450.43 427.01
L450.43 426.247
L451.359 426.247
L451.359 425.484
L452.133 425.484
L452.133 424.721
L453.506 424.721
L453.591 423.194
L455.471 423.194
L455.49 421.668
L455.79 421.668
L455.79 420.905
L457.316 420.905
L457.316 420.142
L458.936 420.142
L458.936 419.378
L459.06 419.378
L459.06 418.615
L460.399 418.615
L460.399 417.852
L460.968 417.852
L460.968 417.089
L461.114 417.089
L461.13 415.562
L461.314 415.562
L461.314 414.799
L461.429 414.799
L461.429 414.036
L461.938 414.036
L461.938 413.273
L463.415 413.273
L463.415 412.51
L463.871 412.51
L463.871 411.746
L464.178 411.746
L464.178 410.983
L465.385 410.983
L465.385 410.22
L466.298 410.22
L466.298 409.457
L467.082 409.457
L467.082 408.694
L469.541 408.694
L469.541 407.93
L470.114 407.93
L470.123 406.404
L471.895 406.404
L471.895 405.641
L472.65 405.641
L472.65 404.878
L473.039 404.878
L473.039 404.114
L473.361 404.114
L473.361 403.351
L475.53 403.351
L475.53 402.588
L476.221 402.588
L476.221 401.825
L477.613 401.825
L477.613 401.062
L478.24 401.062
L478.24 400.298
L479.058 400.298
L479.058 399.535
L481.802 399.535
L481.802 398.772
L482.367 398.772
L482.367 398.009
L482.76 398.009
L482.76 397.246
L484.092 397.246
L484.092 396.482
L484.376 396.482
L484.376 395.719
L485.951 395.719
L485.951 394.956
L486.858 394.956
L486.886 393.43
L487.366 393.43
L487.366 392.666
L487.901 392.666
L487.901 391.903
L488.169 391.903
L488.169 391.14
L489.139 391.14
L489.139 390.377
L491.927 390.377
L491.927 389.614
L493.172 389.614
L493.172 388.85
L494.969 388.85
L494.969 388.087
L495.517 388.087
L495.517 387.324
L497.09 387.324
L497.09 386.561
L497.692 386.561
L497.692 385.798
L497.956 385.798
L497.994 384.271
L498.544 384.271
L498.653 382.745
L498.848 382.745
L498.848 381.982
L499.39 381.982
L499.39 381.218
L500.051 381.218
L500.051 380.455
L500.947 380.455
L500.947 379.692
L501.232 379.692
L501.232 378.929
L502.032 378.929
L502.032 378.166
L502.846 378.166
L502.846 377.402
L504.065 377.402
L504.065 376.639
L505.138 376.639
L505.138 375.876
L506.639 375.876
L506.639 375.113
L506.868 375.113
L506.868 374.35
L507.066 374.35
L507.066 373.586
L508.632 373.586
L508.632 372.823
L509.166 372.823
L509.243 370.534
L511.012 370.534
L511.012 369.77
L512.107 369.77
L512.107 369.007
L512.31 369.007
L512.31 368.244
L513.573 368.244
L513.573 367.481
L513.88 367.481
L513.88 366.718
L514.07 366.718
L514.07 365.954
L514.235 365.954
L514.235 365.191
L518.835 365.191
L518.835 364.428
L519.521 364.428
L519.521 363.665
L521.559 363.665
L521.559 362.902
L521.935 362.902
L521.935 362.138
L523.484 362.138
L523.484 361.375
L525.095 361.375
L525.095 360.612
L527.376 360.612
L527.376 359.849
L528.191 359.849
L528.191 359.086
L528.621 359.086
L528.621 358.322
L528.83 358.322
L528.874 356.796
L529.333 356.796
L529.333 356.033
L530.268 356.033
L530.268 355.27
L530.906 355.27
L530.906 354.506
L531.825 354.506
L531.825 353.743
L533.591 353.743
L533.591 352.98
L534.711 352.98
L534.711 352.217
L535.106 352.217
L535.106 351.454
L537.2 351.454
L537.2 350.69
L537.72 350.69
L537.72 349.927
L539.453 349.927
L539.453 349.164
L541.163 349.164
L541.163 348.401
L541.368 348.401
L541.368 347.638
L545.165 347.638
L545.165 346.874
L545.454 346.874
L545.454 346.111
L545.695 346.111
L545.695 345.348
L549.055 345.348
L549.055 344.585
L549.537 344.585
L549.541 343.058
L549.773 343.058
L549.773 342.295
L550.089 342.295
L550.089 341.532
L551.163 341.532
L551.163 340.769
L551.817 340.769
L551.817 340.006
L552.09 340.006
L552.09 339.242
L553.536 339.242
L553.591 337.716
L555.007 337.716
L555.007 336.953
L556.992 336.953
L556.992 336.19
L559.097 336.19
L559.097 335.426
L559.262 335.426
L559.283 333.9
L559.546 333.9
L559.546 333.137
L559.688 333.137
L559.688 332.374
L560.63 332.374
L560.63 331.61
L561.039 331.61
L561.039 330.847
L561.239 330.847
L561.239 330.084
L564.72 330.084
L564.72 329.321
L566.908 329.321
L566.908 328.558
L567.049 328.558
L567.049 327.794
L567.285 327.794
L567.285 327.031
L568.241 327.031
L568.241 326.268
L569.752 326.268
L569.752 325.505
L571.484 325.505
L571.547 323.978
L571.87 323.978
L571.87 323.215
L572.398 323.215
L572.398 322.452
L573.857 322.452
L573.857 321.689
L574.209 321.689
L574.209 320.926
L578.598 320.926
L578.598 320.162
L579.619 320.162
L579.619 319.399
L580.8 319.399
L580.8 318.636
L582.779 318.636
L582.779 317.873
L584.705 317.873
L584.705 317.11
L587.781 317.11
L587.781 316.346
L590.695 316.346
L590.695 315.583
L590.917 315.583
L590.917 314.82
L591.945 314.82
L592.029 313.294
L592.874 313.294
L592.874 312.53
L593.719 312.53
L593.719 311.767
L594.447 311.767
L594.447 311.004
L600.612 311.004
L600.658 309.478
L601.925 309.478
L602.005 307.951
L602.797 307.951
L602.797 307.188
L603.207 307.188
L603.207 306.425
L604.502 306.425
L604.502 305.662
L604.643 305.662
L604.643 304.898
L605.174 304.898
L605.174 304.135
L605.419 304.135
L605.419 303.372
L609.533 303.372
L609.533 302.609
L611.111 302.609
L611.111 301.846
L612.066 301.846
L612.066 301.082
L612.668 301.082
L612.668 300.319
L613.06 300.319
L613.06 299.556
L613.416 299.556
L613.416 298.793
L613.945 298.793
L613.945 298.03
L616.354 298.03
L616.354 297.266
L616.615 297.266
L616.615 296.503
L621.197 296.503
L621.197 295.74
L623.412 295.74
L623.412 294.977
L624.164 294.977
L624.24 293.45
L624.784 293.45
L624.884 291.161
L625.362 291.161
L625.362 290.398
L629.026 290.398
L629.026 289.634
L629.658 289.634
L629.658 288.871
L630.089 288.871
L630.089 288.108
L631.447 288.108
L631.447 287.345
L632.813 287.345
L632.839 285.818
L634.098 285.818
L634.178 284.292
L638.285 284.292
L638.285 283.529
L638.738 283.529
L638.738 282.766
L639.246 282.766
L639.246 282.002
L642.774 282.002
L642.774 281.239
L645.048 281.239
L645.048 280.476
L649.439 280.476
L649.439 279.713
L650.797 279.713
L650.797 278.95
L652.259 278.95
L652.259 278.186
L656.371 278.186
L656.371 277.423
L661.42 277.423
L661.42 276.66
L661.834 276.66
L661.834 275.897
L675.324 275.897
L675.324 275.134
L676.914 275.134
L676.914 274.37
L677.896 274.37
L677.896 273.607
L680.136 273.607
L680.136 272.844
L680.646 272.844
L680.646 272.081
L683.749 272.081
L683.749 271.318
L685.181 271.318
L685.181 270.554
L686.532 270.554
L686.548 269.028
L686.779 269.028
L686.779 268.265
L687.691 268.265
L687.691 267.502
L687.86 267.502
L687.86 266.738
L693.081 266.738
L693.081 265.975
L694.212 265.975
L694.212 265.212
L694.968 265.212
L694.968 264.449
L699.244 264.449
L699.244 263.686
L699.9 263.686
L699.9 262.922
L700.517 262.922
L700.517 262.159
L701.027 262.159
L701.027 261.396
L701.281 261.396
L701.281 260.633
L702.114 260.633
L702.114 259.87
L708.676 259.87
L708.676 259.106
L710.562 259.106
L710.562 258.343
L710.99 258.343
L710.99 257.58
L712.795 257.58
L712.795 256.817
L717.309 256.817
L717.309 256.054
L717.464 256.054
L717.464 255.29
L720.752 255.29
L720.752 254.527
L721.986 254.527
L721.986 253.764
L723.907 253.764
L723.908 252.238
L725.242 252.238
L725.242 251.474
L725.969 251.474
L725.969 250.711
L727.012 250.711
L727.012 249.948
L728.414 249.948
L728.414 249.185
L734.695 249.185
L734.707 247.658
L736.595 247.658
L736.595 246.895
L737.063 246.895
L737.063 246.132
L737.24 246.132
L737.24 245.369
L737.546 245.369
L737.546 244.606
L738.247 244.606
L738.247 243.842
L741.206 243.842
L741.206 243.079
L742.502 243.079
L742.502 242.316
L743.786 242.316
L743.786 241.553
L744.858 241.553
L744.858 240.79
L745.109 240.79
L745.109 240.026
L747.636 240.026
L747.636 239.263
L747.946 239.263
L747.946 238.5
L748.662 238.5
L748.662 237.737
L749.943 237.737
L749.943 236.974
L750.869 236.974
L750.869 236.21
L754.877 236.21
L754.877 235.447
L755.389 235.447
L755.389 234.684
L756.845 234.684
L756.845 233.921
L758.425 233.921
L758.425 233.158
L758.965 233.158
L758.965 232.394
L759.672 232.394
L759.672 231.631
L760.437 231.631
L760.437 230.868
L761.517 230.868
L761.517 230.105
L761.776 230.105
L761.776 229.342
L763.294 229.342
L763.294 228.578
L767.918 228.578
L767.918 227.815
L768.746 227.815
L768.746 227.052
L770.532 227.052
L770.532 226.289
L771.634 226.289
L771.634 225.526
L775.998 225.526
L775.998 224.762
L779.021 224.762
L779.131 223.236
L780.998 223.236
L780.998 222.473
L781.6 222.473
L781.6 221.71
L781.82 221.71
L781.82 220.946
L787.427 220.946
L787.427 220.183
L788.205 220.183
L788.205 219.42
L789.453 219.42
L789.453 218.657
L789.93 218.657
L789.93 217.894
L790.834 217.894
L790.834 217.13
L792.325 217.13
L792.325 216.367
L793.008 216.367
L793.008 215.604
L793.367 215.604
L793.367 214.841
L793.699 214.841
L793.699 214.078
L794.061 214.078
L794.061 213.314
L796.267 213.314
L796.267 212.551
L798.361 212.551
L798.361 211.788
L801.995 211.788
L801.995 211.025
L802.963 211.025
L802.963 210.262
L806.864 210.262
L806.864 209.498
L807.215 209.498
L807.215 208.735
L808.038 208.735
L808.038 207.972
L809.559 207.972
L809.559 207.209
L812.814 207.209
L812.814 206.446
L812.989 206.446
L812.989 205.682
L813.271 205.682
L813.271 204.919
L814.053 204.919
L814.12 203.393
L817.795 203.393
L817.795 202.63
L818.341 202.63
L818.341 201.866
L819.938 201.866
L819.938 201.103
L821.187 201.103
L821.187 200.34
L821.953 200.34
L821.953 199.577
L824.262 199.577
L824.262 198.814
L825.276 198.814
L825.276 198.05
L826.219 198.05
L826.219 197.287
L827.354 197.287
L827.354 196.524
L830.634 196.524
L830.634 195.761
L831.748 195.761
L831.748 194.998
L832.482 194.998
L832.482 194.234
L835.982 194.234
L835.982 193.471
L838.561 193.471
L838.657 191.945
L838.701 191.945
L838.701 191.182
L839.351 191.182
L839.351 190.418
L840.228 190.418
L840.228 189.655
L840.379 189.655
L840.379 188.892
L841.717 188.892
L841.717 188.129
L843.447 188.129
L843.447 187.366
L847.799 187.366
L847.8 185.839
L848.271 185.839
L848.271 185.076
L849.326 185.076
L849.326 184.313
L853.949 184.313
L853.949 183.55
L855.091 183.55
L855.091 182.786
L859.064 182.786
L859.064 182.023
L860.736 182.023
L860.736 181.26
L863.378 181.26
L863.378 180.497
L864.172 180.497
L864.172 179.734
L872.864 179.734
L872.864 178.97
L873.425 178.97
L873.425 178.207
L874.798 178.207
L874.798 177.444
L876.366 177.444
L876.366 176.681
L879.448 176.681
L879.448 175.918
L882.028 175.918
L882.028 175.154
L883.263 175.154
L883.301 173.628
L886.026 173.628
L886.026 172.865
L887.102 172.865
L887.102 172.102
L888.351 172.102
L888.351 171.338
L896.293 171.338
L896.293 170.575
L897.811 170.575
L897.811 169.812
L898.265 169.812
L898.265 169.049
L898.84 169.049
L898.84 168.286
L899.866 168.286
L899.866 167.522
L901.67 167.522
L901.67 166.759
L903.202 166.759
L903.202 165.996
L903.505 165.996
L903.505 165.233
L903.664 165.233
L903.664 164.47
L905.762 164.47
L905.762 163.706
L906.15 163.706
L906.15 162.943
L909.194 162.943
L909.194 162.18
L913.863 162.18
L913.945 160.654
L916.87 160.654
L916.87 159.89
L918.082 159.89
L918.087 158.364
L921.246 158.364
L921.246 157.601
L921.651 157.601
L921.651 156.838
L923.059 156.838
L923.059 156.074
L923.662 156.074
L923.662 155.311
L926.048 155.311
L926.048 154.548
L929.542 154.548
L929.542 153.785
L931.298 153.785
L931.298 153.022
L931.434 153.022
L931.434 152.258
L931.986 152.258
L931.986 151.495
L936.072 151.495
L936.072 150.732
L936.516 150.732
L936.516 149.969
L938.805 149.969
L938.805 149.206
L941.091 149.206
L941.091 148.442
L941.932 148.442
L941.932 147.679
L942.233 147.679
L942.342 146.153
L943.52 146.153
L943.52 145.39
L945.618 145.39
L945.618 144.626
L945.964 144.626
L945.964 143.863
L946.439 143.863
L946.439 143.1
L950.678 143.1
L950.678 142.337
L951.023 142.337
L951.023 141.574
L951.523 141.574
L951.523 140.81
L955.299 140.81
L955.299 140.047
L955.874 140.047
L955.874 139.284
L957.981 139.284
L957.981 138.521
L963.353 138.521
L963.438 136.994
L964.107 136.994
L964.107 136.231
L966.08 136.231
L966.08 135.468
L966.745 135.468
L966.745 134.705
L969.138 134.705
L969.138 133.942
L970.418 133.942
L970.418 133.178
L972.238 133.178
L972.238 132.415
L974.305 132.415
L974.305 131.652
L976.392 131.652
L976.392 130.889
L978.262 130.889
L978.262 130.126
L979.073 130.126
L979.073 129.362
L980.158 129.362
L980.158 128.599
L981.698 128.599
L981.698 127.836
L981.698 127.836" style="fill:none;stroke:#0000ff;"/>
   </g>
   <g id="line2d_2">
    <path clip-path="url(#pc1c77b9b39)" d="
M136.688 601.02
L145.162 597.204
L153.637 593.388
L162.111 589.572
L170.586 585.756
L179.061 581.94
L187.535 578.124
L196.01 574.308
L204.484 570.492
L212.959 566.676
L221.434 562.86
L229.908 559.044
L238.383 555.228
L246.858 551.412
L255.332 547.596
L263.807 543.78
L272.281 539.964
L280.756 536.148
L289.231 532.332
L297.705 528.516
L306.18 524.7
L314.655 520.884
L323.129 517.068
L331.604 513.252
L340.078 509.436
L348.553 505.62
L357.028 501.804
L365.502 497.988
L373.977 494.172
L382.452 490.356
L390.926 486.54
L399.401 478.908
L407.875 471.276
L416.35 463.644
L424.825 456.012
L433.299 448.38
L441.774 440.748
L450.249 433.116
L458.723 425.484
L467.198 417.852
L475.673 410.22
L484.147 402.588
L492.622 394.956
L501.096 387.324
L509.571 379.692
L518.046 372.06
L526.52 364.428
L534.995 356.796
L543.469 349.164
L551.944 341.532
L560.419 333.9
L568.893 330.084
L577.368 326.268
L585.843 322.452
L594.317 318.636
L602.792 314.82
L611.266 311.004
L619.741 307.188
L628.216 303.372
L636.69 299.556
L645.165 295.74
L653.64 291.924
L662.114 288.108
L670.589 284.292
L679.063 280.476
L687.538 276.66
L696.013 272.844
L704.487 269.028
L712.962 265.212
L721.437 261.396
L729.911 257.58
L738.386 253.764
L746.861 249.948
L755.335 246.132
L763.81 242.316
L772.284 238.5
L780.759 234.684
L789.234 230.868
L797.708 227.052
L806.183 223.236
L814.658 219.42
L823.132 215.604
L831.607 211.788
L840.081 207.972
L848.556 204.156
L857.031 200.34
L865.505 196.524
L873.98 192.708
L882.454 188.892
L890.929 185.076
L899.404 181.26
L907.878 177.444
L916.353 173.628
L924.828 169.812
L933.302 165.996
L941.777 162.18
L950.251 158.364
L958.726 154.548
L967.201 150.732
L975.675 146.916" style="fill:none;stroke:#ff0000;"/>
   </g>
   <g id="matplotlib.axis_1">
    <g id="xtick_1">
     <g id="line2d_3">
      <defs>
       <path d="
M0 0
L0 -4" id="m0012dd4eef" style="stroke:#000000;stroke-linecap:butt;stroke-width:0.5;"/>
      </defs>
      <g>
       <use style="stroke:#000000;stroke-linecap:butt;stroke-width:0.5;" x="136.6875" xlink:href="#m0012dd4eef" y="601.02"/>
      </g>
     </g>
     <g id="line2d_4">
      <defs>
       <path d="
M0 0
L0 4" id="m476344969c" style="stroke:#000000;stroke-linecap:butt;stroke-width:0.5;"/>
      </defs>
      <g>
       <use style="stroke:#000000;stroke-linecap:butt;stroke-width:0.5;" x="136.6875" xlink:href="#m476344969c" y="66.78"/>
      </g>
     </g>
     <g id="text_1">
      <!-- 0 -->
      <defs>
       <path d="
M31.7812 66.4062
Q24.1719 66.4062 20.3281 58.9062
Q16.5 51.4219 16.5 36.375
Q16.5 21.3906 20.3281 13.8906
Q24.1719 6.39062 31.7812 6.39062
Q39.4531 6.39062 43.2812 13.8906
Q47.125 21.3906 47.125 36.375
Q47.125 51.4219 43.2812 58.9062
Q39.4531 66.4062 31.7812 66.4062
M31.7812 74.2188
Q44.0469 74.2188 50.5156 64.5156
Q56.9844 54.8281 56.9844 36.375
Q56.9844 17.9688 50.5156 8.26562
Q44.0469 -1.42188 31.7812 -1.42188
Q19.5312 -1.42188 13.0625 8.26562
Q6.59375 17.9688 6.59375 36.375
Q6.59375 54.8281 13.0625 64.5156
Q19.5312 74.2188 31.7812 74.2188" id="DejaVuSans-30"/>
      </defs>
      <g transform="translate(133.6640625 613.92625)scale(0.12 -0.12)">
       <use xlink:href="#DejaVuSans-30"/>
      </g>
     </g>
    </g>
    <g id="xtick_2">
     <g id="line2d_5">
      <g>
       <use style="stroke:#000000;stroke-linecap:butt;stroke-width:0.5;" x="306.18" xlink:href="#m0012dd4eef" y="601.02"/>
      </g>
     </g>
     <g id="line2d_6">
      <g>
       <use style="stroke:#000000;stroke-linecap:butt;stroke-width:0.5;" x="306.18" xlink:href="#m476344969c" y="66.78"/>
      </g>
     </g>
     <g id="text_2">
      <!-- 20 -->
      <defs>
       <path d="
M19.1875 8.29688
L53.6094 8.29688
L53.6094 0
L7.32812 0
L7.32812 8.29688
Q12.9375 14.1094 22.625 23.8906
Q32.3281 33.6875 34.8125 36.5312
Q39.5469 41.8438 41.4219 45.5312
Q43.3125 49.2188 43.3125 52.7812
Q43.3125 58.5938 39.2344 62.25
Q35.1562 65.9219 28.6094 65.9219
Q23.9688 65.9219 18.8125 64.3125
Q13.6719 62.7031 7.8125 59.4219
L7.8125 69.3906
Q13.7656 71.7812 18.9375 73
Q24.125 74.2188 28.4219 74.2188
Q39.75 74.2188 46.4844 68.5469
Q53.2188 62.8906 53.2188 53.4219
Q53.2188 48.9219 51.5312 44.8906
Q49.8594 40.875 45.4062 35.4062
Q44.1875 33.9844 37.6406 27.2188
Q31.1094 20.4531 19.1875 8.29688" id="DejaVuSans-32"/>
      </defs>
      <g transform="translate(299.383125 613.92625)scale(0.12 -0.12)">
       <use xlink:href="#DejaVuSans-32"/>
       <use x="63.623046875" xlink:href="#DejaVuSans-30"/>
      </g>
     </g>
    </g>
    <g id="xtick_3">
     <g id="line2d_7">
      <g>
       <use style="stroke:#000000;stroke-linecap:butt;stroke-width:0.5;" x="475.6725" xlink:href="#m0012dd4eef" y="601.02"/>
      </g>
     </g>
     <g id="line2d_8">
      <g>
       <use style="stroke:#000000;stroke-linecap:butt;stroke-width:0.5;" x="475.6725" xlink:href="#m476344969c" y="66.78"/>
      </g>
     </g>
     <g id="text_3">
      <!-- 40 -->
      <defs>
       <path d="
M37.7969 64.3125
L12.8906 25.3906
L37.7969 25.3906
z

M35.2031 72.9062
L47.6094 72.9062
L47.6094 25.3906
L58.0156 25.3906
L58.0156 17.1875
L47.6094 17.1875
L47.6094 0
L37.7969 0
L37.7969 17.1875
L4.89062 17.1875
L4.89062 26.7031
z
" id="DejaVuSans-34"/>
      </defs>
      <g transform="translate(468.729375 613.92625)scale(0.12 -0.12)">
       <use xlink:href="#DejaVuSans-34"/>
       <use x="63.623046875" xlink:href="#DejaVuSans-30"/>
      </g>
     </g>
    </g>
    <g id="xtick_4">
     <g id="line2d_9">
      <g>
       <use style="stroke:#000000;stroke-linecap:butt;stroke-width:0.5;" x="645.165" xlink:href="#m0012dd4eef" y="601.02"/>
      </g>
     </g>
     <g id="line2d_10">
      <g>
       <use style="stroke:#000000;stroke-linecap:butt;stroke-width:0.5;" x="645.165" xlink:href="#m476344969c" y="66.78"/>
      </g>
     </g>
     <g id="text_4">
      <!-- 60 -->
      <defs>
       <path d="
M33.0156 40.375
Q26.375 40.375 22.4844 35.8281
Q18.6094 31.2969 18.6094 23.3906
Q18.6094 15.5312 22.4844 10.9531
Q26.375 6.39062 33.0156 6.39062
Q39.6562 6.39062 43.5312 10.9531
Q47.4062 15.5312 47.4062 23.3906
Q47.4062 31.2969 43.5312 35.8281
Q39.6562 40.375 33.0156 40.375
M52.5938 71.2969
L52.5938 62.3125
Q48.875 64.0625 45.0938 64.9844
Q41.3125 65.9219 37.5938 65.9219
Q27.8281 65.9219 22.6719 59.3281
Q17.5312 52.7344 16.7969 39.4062
Q19.6719 43.6562 24.0156 45.9219
Q28.375 48.1875 33.5938 48.1875
Q44.5781 48.1875 50.9531 41.5156
Q57.3281 34.8594 57.3281 23.3906
Q57.3281 12.1562 50.6875 5.35938
Q44.0469 -1.42188 33.0156 -1.42188
Q20.3594 -1.42188 13.6719 8.26562
Q6.98438 17.9688 6.98438 36.375
Q6.98438 53.6562 15.1875 63.9375
Q23.3906 74.2188 37.2031 74.2188
Q40.9219 74.2188 44.7031 73.4844
Q48.4844 72.75 52.5938 71.2969" id="DejaVuSans-36"/>
      </defs>
      <g transform="translate(638.3475 613.92625)scale(0.12 -0.12)">
       <use xlink:href="#DejaVuSans-36"/>
       <use x="63.623046875" xlink:href="#DejaVuSans-30"/>
      </g>
     </g>
    </g>
    <g id="xtick_5">
     <g id="line2d_11">
      <g>
       <use style="stroke:#000000;stroke-linecap:butt;stroke-width:0.5;" x="814.6575" xlink:href="#m0012dd4eef" y="601.02"/>
      </g>
     </g>
     <g id="line2d_12">
      <g>
       <use style="stroke:#000000;stroke-linecap:butt;stroke-width:0.5;" x="814.6575" xlink:href="#m476344969c" y="66.78"/>
      </g>
     </g>
     <g id="text_5">
      <!-- 80 -->
      <defs>
       <path d="
M31.7812 34.625
Q24.75 34.625 20.7188 30.8594
Q16.7031 27.0938 16.7031 20.5156
Q16.7031 13.9219 20.7188 10.1562
Q24.75 6.39062 31.7812 6.39062
Q38.8125 6.39062 42.8594 10.1719
Q46.9219 13.9688 46.9219 20.5156
Q46.9219 27.0938 42.8906 30.8594
Q38.875 34.625 31.7812 34.625
M21.9219 38.8125
Q15.5781 40.375 12.0312 44.7188
Q8.5 49.0781 8.5 55.3281
Q8.5 64.0625 14.7188 69.1406
Q20.9531 74.2188 31.7812 74.2188
Q42.6719 74.2188 48.875 69.1406
Q55.0781 64.0625 55.0781 55.3281
Q55.0781 49.0781 51.5312 44.7188
Q48 40.375 41.7031 38.8125
Q48.8281 37.1562 52.7969 32.3125
Q56.7812 27.4844 56.7812 20.5156
Q56.7812 9.90625 50.3125 4.23438
Q43.8438 -1.42188 31.7812 -1.42188
Q19.7344 -1.42188 13.25 4.23438
Q6.78125 9.90625 6.78125 20.5156
Q6.78125 27.4844 10.7812 32.3125
Q14.7969 37.1562 21.9219 38.8125
M18.3125 54.3906
Q18.3125 48.7344 21.8438 45.5625
Q25.3906 42.3906 31.7812 42.3906
Q38.1406 42.3906 41.7188 45.5625
Q45.3125 48.7344 45.3125 54.3906
Q45.3125 60.0625 41.7188 63.2344
Q38.1406 66.4062 31.7812 66.4062
Q25.3906 66.4062 21.8438 63.2344
Q18.3125 60.0625 18.3125 54.3906" id="DejaVuSans-38"/>
      </defs>
      <g transform="translate(807.8278125 613.92625)scale(0.12 -0.12)">
       <use xlink:href="#DejaVuSans-38"/>
       <use x="63.623046875" xlink:href="#DejaVuSans-30"/>
      </g>
     </g>
    </g>
    <g id="xtick_6">
     <g id="line2d_13">
      <g>
       <use style="stroke:#000000;stroke-linecap:butt;stroke-width:0.5;" x="984.15" xlink:href="#m0012dd4eef" y="601.02"/>
      </g>
     </g>
     <g id="line2d_14">
      <g>
       <use style="stroke:#000000;stroke-linecap:butt;stroke-width:0.5;" x="984.15" xlink:href="#m476344969c" y="66.78"/>
      </g>
     </g>
     <g id="text_6">
      <!-- 100 -->
      <defs>
       <path d="
M12.4062 8.29688
L28.5156 8.29688
L28.5156 63.9219
L10.9844 60.4062
L10.9844 69.3906
L28.4219 72.9062
L38.2812 72.9062
L38.2812 8.29688
L54.3906 8.29688
L54.3906 0
L12.4062 0
z
" id="DejaVuSans-31"/>
      </defs>
      <g transform="translate(973.755 613.92625)scale(0.12 -0.12)">
       <use xlink:href="#DejaVuSans-31"/>
       <use x="63.623046875" xlink:href="#DejaVuSans-30"/>
       <use x="127.24609375" xlink:href="#DejaVuSans-30"/>
      </g>
     </g>
    </g>
    <g id="text_7">
     <!-- Time -->
     <defs>
      <path d="
M52 44.1875
Q55.375 50.25 60.0625 53.125
Q64.75 56 71.0938 56
Q79.6406 56 84.2812 50.0156
Q88.9219 44.0469 88.9219 33.0156
L88.9219 0
L79.8906 0
L79.8906 32.7188
Q79.8906 40.5781 77.0938 44.375
Q74.3125 48.1875 68.6094 48.1875
Q61.625 48.1875 57.5625 43.5469
Q53.5156 38.9219 53.5156 30.9062
L53.5156 0
L44.4844 0
L44.4844 32.7188
Q44.4844 40.625 41.7031 44.4062
Q38.9219 48.1875 33.1094 48.1875
Q26.2188 48.1875 22.1562 43.5312
Q18.1094 38.875 18.1094 30.9062
L18.1094 0
L9.07812 0
L9.07812 54.6875
L18.1094 54.6875
L18.1094 46.1875
Q21.1875 51.2188 25.4844 53.6094
Q29.7812 56 35.6875 56
Q41.6562 56 45.8281 52.9688
Q50 49.9531 52 44.1875" id="DejaVuSans-6d"/>
      <path d="
M9.42188 54.6875
L18.4062 54.6875
L18.4062 0
L9.42188 0
z

M9.42188 75.9844
L18.4062 75.9844
L18.4062 64.5938
L9.42188 64.5938
z
" id="DejaVuSans-69"/>
      <path d="
M56.2031 29.5938
L56.2031 25.2031
L14.8906 25.2031
Q15.4844 15.9219 20.4844 11.0625
Q25.4844 6.20312 34.4219 6.20312
Q39.5938 6.20312 44.4531 7.46875
Q49.3125 8.73438 54.1094 11.2812
L54.1094 2.78125
Q49.2656 0.734375 44.1875 -0.34375
Q39.1094 -1.42188 33.8906 -1.42188
Q20.7969 -1.42188 13.1562 6.1875
Q5.51562 13.8125 5.51562 26.8125
Q5.51562 40.2344 12.7656 48.1094
Q20.0156 56 32.3281 56
Q43.3594 56 49.7812 48.8906
Q56.2031 41.7969 56.2031 29.5938
M47.2188 32.2344
Q47.125 39.5938 43.0938 43.9844
Q39.0625 48.3906 32.4219 48.3906
Q24.9062 48.3906 20.3906 44.1406
Q15.875 39.8906 15.1875 32.1719
z
" id="DejaVuSans-65"/>
      <path d="
M-0.296875 72.9062
L61.375 72.9062
L61.375 64.5938
L35.5 64.5938
L35.5 0
L25.5938 0
L25.5938 64.5938
L-0.296875 64.5938
z
" id="DejaVuSans-54"/>
     </defs>
     <g transform="translate(546.0403125 628.215)scale(0.12 -0.12)">
      <use xlink:href="#DejaVuSans-54"/>
      <use x="57.958984375" xlink:href="#DejaVuSans-69"/>
      <use x="85.7421875" xlink:href="#DejaVuSans-6d"/>
      <use x="183.154296875" xlink:href="#DejaVuSans-65"/>
     </g>
    </g>
   </g>
   <g id="matplotlib.axis_2">
    <g id="ytick_1">
     <g id="line2d_15">
      <defs>
       <path d="
M0 0
L4 0" id="me8a85f7bf6" style="stroke:#000000;stroke-linecap:butt;stroke-width:0.5;"/>
      </defs>
      <g>
       <use style="stroke:#000000;stroke-linecap:butt;stroke-width:0.5;" x="136.6875" xlink:href="#me8a85f7bf6" y="601.02"/>
      </g>
     </g>
     <g id="line2d_16">
      <defs>
       <path d="
M0 0
L-4 0" id="m1a32005dea" style="stroke:#000000;stroke-linecap:butt;stroke-width:0.5;"/>
      </defs>
      <g>
       <use style="stroke:#000000;stroke-linecap:butt;stroke-width:0.5;" x="984.15" xlink:href="#m1a32005dea" y="601.02"/>
      </g>
     </g>
     <g id="text_8">
      <!-- 0 -->
      <g transform="translate(126.640625 605.3878125)scale(0.12 -0.12)">
       <use xlink:href="#DejaVuSans-30"/>
      </g>
     </g>
    </g>
    <g id="ytick_2">
     <g id="line2d_17">
      <g>
       <use style="stroke:#000000;stroke-linecap:butt;stroke-width:0.5;" x="136.6875" xlink:href="#me8a85f7bf6" y="524.7"/>
      </g>
     </g>
     <g id="line2d_18">
      <g>
       <use style="stroke:#000000;stroke-linecap:butt;stroke-width:0.5;" x="984.15" xlink:href="#m1a32005dea" y="524.7"/>
      </g>
     </g>
     <g id="text_9">
      <!-- 100 -->
      <g transform="translate(111.8975 529.0678125)scale(0.12 -0.12)">
       <use xlink:href="#DejaVuSans-31"/>
       <use x="63.623046875" xlink:href="#DejaVuSans-30"/>
       <use x="127.24609375" xlink:href="#DejaVuSans-30"/>
      </g>
     </g>
    </g>
    <g id="ytick_3">
     <g id="line2d_19">
      <g>
       <use style="stroke:#000000;stroke-linecap:butt;stroke-width:0.5;" x="136.6875" xlink:href="#me8a85f7bf6" y="448.38"/>
      </g>
     </g>
     <g id="line2d_20">
      <g>
       <use style="stroke:#000000;stroke-linecap:butt;stroke-width:0.5;" x="984.15" xlink:href="#m1a32005dea" y="448.38"/>
      </g>
     </g>
     <g id="text_10">
      <!-- 200 -->
      <g transform="translate(111.45875 452.7478125)scale(0.12 -0.12)">
       <use xlink:href="#DejaVuSans-32"/>
       <use x="63.623046875" xlink:href="#DejaVuSans-30"/>
       <use x="127.24609375" xlink:href="#DejaVuSans-30"/>
      </g>
     </g>
    </g>
    <g id="ytick_4">
     <g id="line2d_21">
      <g>
       <use style="stroke:#000000;stroke-linecap:butt;stroke-width:0.5;" x="136.6875" xlink:href="#me8a85f7bf6" y="372.06"/>
      </g>
     </g>
     <g id="line2d_22">
      <g>
       <use style="stroke:#000000;stroke-linecap:butt;stroke-width:0.5;" x="984.15" xlink:href="#m1a32005dea" y="372.06"/>
      </g>
     </g>
     <g id="text_11">
      <!-- 300 -->
      <defs>
       <path d="
M40.5781 39.3125
Q47.6562 37.7969 51.625 33
Q55.6094 28.2188 55.6094 21.1875
Q55.6094 10.4062 48.1875 4.48438
Q40.7656 -1.42188 27.0938 -1.42188
Q22.5156 -1.42188 17.6562 -0.515625
Q12.7969 0.390625 7.625 2.20312
L7.625 11.7188
Q11.7188 9.32812 16.5938 8.10938
Q21.4844 6.89062 26.8125 6.89062
Q36.0781 6.89062 40.9375 10.5469
Q45.7969 14.2031 45.7969 21.1875
Q45.7969 27.6406 41.2812 31.2656
Q36.7656 34.9062 28.7188 34.9062
L20.2188 34.9062
L20.2188 43.0156
L29.1094 43.0156
Q36.375 43.0156 40.2344 45.9219
Q44.0938 48.8281 44.0938 54.2969
Q44.0938 59.9062 40.1094 62.9062
Q36.1406 65.9219 28.7188 65.9219
Q24.6562 65.9219 20.0156 65.0312
Q15.375 64.1562 9.8125 62.3125
L9.8125 71.0938
Q15.4375 72.6562 20.3438 73.4375
Q25.25 74.2188 29.5938 74.2188
Q40.8281 74.2188 47.3594 69.1094
Q53.9062 64.0156 53.9062 55.3281
Q53.9062 49.2656 50.4375 45.0938
Q46.9688 40.9219 40.5781 39.3125" id="DejaVuSans-33"/>
      </defs>
      <g transform="translate(111.494375 376.4278125)scale(0.12 -0.12)">
       <use xlink:href="#DejaVuSans-33"/>
       <use x="63.623046875" xlink:href="#DejaVuSans-30"/>
       <use x="127.24609375" xlink:href="#DejaVuSans-30"/>
      </g>
     </g>
    </g>
    <g id="ytick_5">
     <g id="line2d_23">
      <g>
       <use style="stroke:#000000;stroke-linecap:butt;stroke-width:0.5;" x="136.6875" xlink:href="#me8a85f7bf6" y="295.74"/>
      </g>
     </g>
     <g id="line2d_24">
      <g>
       <use style="stroke:#000000;stroke-linecap:butt;stroke-width:0.5;" x="984.15" xlink:href="#m1a32005dea" y="295.74"/>
      </g>
     </g>
     <g id="text_12">
      <!-- 400 -->
      <g transform="translate(111.16625 300.1078125)scale(0.12 -0.12)">
       <use xlink:href="#DejaVuSans-34"/>
       <use x="63.623046875" xlink:href="#DejaVuSans-30"/>
       <use x="127.24609375" xlink:href="#DejaVuSans-30"/>
      </g>
     </g>
    </g>
    <g id="ytick_6">
     <g id="line2d_25">
      <g>
       <use style="stroke:#000000;stroke-linecap:butt;stroke-width:0.5;" x="136.6875" xlink:href="#me8a85f7bf6" y="219.42"/>
      </g>
     </g>
     <g id="line2d_26">
      <g>
       <use style="stroke:#000000;stroke-linecap:butt;stroke-width:0.5;" x="984.15" xlink:href="#m1a32005dea" y="219.42"/>
      </g>
     </g>
     <g id="text_13">
      <!-- 500 -->
      <defs>
       <path d="
M10.7969 72.9062
L49.5156 72.9062
L49.5156 64.5938
L19.8281 64.5938
L19.8281 46.7344
Q21.9688 47.4688 24.1094 47.8281
Q26.2656 48.1875 28.4219 48.1875
Q40.625 48.1875 47.75 41.5
Q54.8906 34.8125 54.8906 23.3906
Q54.8906 11.625 47.5625 5.09375
Q40.2344 -1.42188 26.9062 -1.42188
Q22.3125 -1.42188 17.5469 -0.640625
Q12.7969 0.140625 7.71875 1.70312
L7.71875 11.625
Q12.1094 9.23438 16.7969 8.0625
Q21.4844 6.89062 26.7031 6.89062
Q35.1562 6.89062 40.0781 11.3281
Q45.0156 15.7656 45.0156 23.3906
Q45.0156 31 40.0781 35.4375
Q35.1562 39.8906 26.7031 39.8906
Q22.75 39.8906 18.8125 39.0156
Q14.8906 38.1406 10.7969 36.2812
z
" id="DejaVuSans-35"/>
      </defs>
      <g transform="translate(111.505625 223.7878125)scale(0.12 -0.12)">
       <use xlink:href="#DejaVuSans-35"/>
       <use x="63.623046875" xlink:href="#DejaVuSans-30"/>
       <use x="127.24609375" xlink:href="#DejaVuSans-30"/>
      </g>
     </g>
    </g>
    <g id="ytick_7">
     <g id="line2d_27">
      <g>
       <use style="stroke:#000000;stroke-linecap:butt;stroke-width:0.5;" x="136.6875" xlink:href="#me8a85f7bf6" y="143.1"/>
      </g>
     </g>
     <g id="line2d_28">
      <g>
       <use style="stroke:#000000;stroke-linecap:butt;stroke-width:0.5;" x="984.15" xlink:href="#m1a32005dea" y="143.1"/>
      </g>
     </g>
     <g id="text_14">
      <!-- 600 -->
      <g transform="translate(111.4175 147.4678125)scale(0.12 -0.12)">
       <use xlink:href="#DejaVuSans-36"/>
       <use x="63.623046875" xlink:href="#DejaVuSans-30"/>
       <use x="127.24609375" xlink:href="#DejaVuSans-30"/>
      </g>
     </g>
    </g>
    <g id="ytick_8">
     <g id="line2d_29">
      <g>
       <use style="stroke:#000000;stroke-linecap:butt;stroke-width:0.5;" x="136.6875" xlink:href="#me8a85f7bf6" y="66.78"/>
      </g>
     </g>
     <g id="line2d_30">
      <g>
       <use style="stroke:#000000;stroke-linecap:butt;stroke-width:0.5;" x="984.15" xlink:href="#m1a32005dea" y="66.78"/>
      </g>
     </g>
     <g id="text_15">
      <!-- 700 -->
      <defs>
       <path d="
M8.20312 72.9062
L55.0781 72.9062
L55.0781 68.7031
L28.6094 0
L18.3125 0
L43.2188 64.5938
L8.20312 64.5938
z
" id="DejaVuSans-37"/>
      </defs>
      <g transform="translate(111.56375 71.1478125)scale(0.12 -0.12)">
       <use xlink:href="#DejaVuSans-37"/>
       <use x="63.623046875" xlink:href="#DejaVuSans-30"/>
       <use x="127.24609375" xlink:href="#DejaVuSans-30"/>
      </g>
     </g>
    </g>
    <g id="text_16">
     <!-- Emissions -->
     <defs>
      <path d="
M30.6094 48.3906
Q23.3906 48.3906 19.1875 42.75
Q14.9844 37.1094 14.9844 27.2969
Q14.9844 17.4844 19.1562 11.8438
Q23.3438 6.20312 30.6094 6.20312
Q37.7969 6.20312 41.9844 11.8594
Q46.1875 17.5312 46.1875 27.2969
Q46.1875 37.0156 41.9844 42.7031
Q37.7969 48.3906 30.6094 48.3906
M30.6094 56
Q42.3281 56 49.0156 48.375
Q55.7188 40.7656 55.7188 27.2969
Q55.7188 13.875 49.0156 6.21875
Q42.3281 -1.42188 30.6094 -1.42188
Q18.8438 -1.42188 12.1719 6.21875
Q5.51562 13.875 5.51562 27.2969
Q5.51562 40.7656 12.1719 48.375
Q18.8438 56 30.6094 56" id="DejaVuSans-6f"/>
      <path d="
M9.8125 72.9062
L55.9062 72.9062
L55.9062 64.5938
L19.6719 64.5938
L19.6719 43.0156
L54.3906 43.0156
L54.3906 34.7188
L19.6719 34.7188
L19.6719 8.29688
L56.7812 8.29688
L56.7812 0
L9.8125 0
z
" id="DejaVuSans-45"/>
      <path d="
M54.8906 33.0156
L54.8906 0
L45.9062 0
L45.9062 32.7188
Q45.9062 40.4844 42.875 44.3281
Q39.8438 48.1875 33.7969 48.1875
Q26.5156 48.1875 22.3125 43.5469
Q18.1094 38.9219 18.1094 30.9062
L18.1094 0
L9.07812 0
L9.07812 54.6875
L18.1094 54.6875
L18.1094 46.1875
Q21.3438 51.125 25.7031 53.5625
Q30.0781 56 35.7969 56
Q45.2188 56 50.0469 50.1719
Q54.8906 44.3438 54.8906 33.0156" id="DejaVuSans-6e"/>
      <path d="
M44.2812 53.0781
L44.2812 44.5781
Q40.4844 46.5312 36.375 47.5
Q32.2812 48.4844 27.875 48.4844
Q21.1875 48.4844 17.8438 46.4375
Q14.5 44.3906 14.5 40.2812
Q14.5 37.1562 16.8906 35.375
Q19.2812 33.5938 26.5156 31.9844
L29.5938 31.2969
Q39.1562 29.25 43.1875 25.5156
Q47.2188 21.7812 47.2188 15.0938
Q47.2188 7.46875 41.1875 3.01562
Q35.1562 -1.42188 24.6094 -1.42188
Q20.2188 -1.42188 15.4531 -0.5625
Q10.6875 0.296875 5.42188 2
L5.42188 11.2812
Q10.4062 8.6875 15.2344 7.39062
Q20.0625 6.10938 24.8125 6.10938
Q31.1562 6.10938 34.5625 8.28125
Q37.9844 10.4531 37.9844 14.4062
Q37.9844 18.0625 35.5156 20.0156
Q33.0625 21.9688 24.7031 23.7812
L21.5781 24.5156
Q13.2344 26.2656 9.51562 29.9062
Q5.8125 33.5469 5.8125 39.8906
Q5.8125 47.6094 11.2812 51.7969
Q16.75 56 26.8125 56
Q31.7812 56 36.1719 55.2656
Q40.5781 54.5469 44.2812 53.0781" id="DejaVuSans-73"/>
     </defs>
     <g transform="translate(106.16625 362.668125)rotate(-90.0)scale(0.12 -0.12)">
      <use xlink:href="#DejaVuSans-45"/>
      <use x="63.18359375" xlink:href="#DejaVuSans-6d"/>
      <use x="160.595703125" xlink:href="#DejaVuSans-69"/>
      <use x="188.37890625" xlink:href="#DejaVuSans-73"/>
      <use x="240.478515625" xlink:href="#DejaVuSans-73"/>
      <use x="292.578125" xlink:href="#DejaVuSans-69"/>
      <use x="320.361328125" xlink:href="#DejaVuSans-6f"/>
      <use x="381.54296875" xlink:href="#DejaVuSans-6e"/>
      <use x="444.921875" xlink:href="#DejaVuSans-73"/>
     </g>
    </g>
   </g>
   <g id="patch_3">
    <path d="
M136.688 66.78
L984.15 66.78" style="fill:none;stroke:#000000;"/>
   </g>
   <g id="patch_4">
    <path d="
M984.15 601.02
L984.15 66.78" style="fill:none;stroke:#000000;"/>
   </g>
   <g id="patch_5">
    <path d="
M136.688 601.02
L984.15 601.02" style="fill:none;stroke:#000000;"/>
   </g>
   <g id="patch_6">
    <path d="
M136.688 601.02
L136.688 66.78" style="fill:none;stroke:#000000;"/>
   </g>
   <g id="text_17">
    <!-- 620 -->
    <g transform="translate(990.172533316 127.836)scale(0.12 -0.12)">
     <use xlink:href="#DejaVuSans-36"/>
     <use x="63.623046875" xlink:href="#DejaVuSans-32"/>
     <use x="127.24609375" xlink:href="#DejaVuSans-30"/>
    </g>
   </g>
  </g>
 </g>
 <defs>
  <clipPath id="pc1c77b9b39">
   <rect height="534.24" width="847.4625" x="136.6875" y="66.78"/>
  </clipPath>
 </defs>
</svg>
