<?xml version="1.0" encoding="utf-8" standalone="no"?>
<!DOCTYPE svg PUBLIC "-//W3C//DTD SVG 1.1//EN"
  "http://www.w3.org/Graphics/SVG/1.1/DTD/svg11.dtd">
<!-- Created with matplotlib (http://matplotlib.sourceforge.net/) -->
<svg height="667pt" version="1.1" viewBox="0 0 1093 667" width="1093pt" xmlns="http://www.w3.org/2000/svg" xmlns:xlink="http://www.w3.org/1999/xlink">
 <defs>
  <style type="text/css">
*{stroke-linecap:square;stroke-linejoin:round;}
  </style>
 </defs>
 <g id="figure_1">
  <g id="patch_1">
   <path d="
M0 667.8
L1093.5 667.8
L1093.5 0
L0 0
z
" style="fill:#ffffff;"/>
  </g>
  <g id="axes_1">
   <g id="patch_2">
    <path d="
M136.688 601.02
L984.15 601.02
L984.15 66.78
L136.688 66.78
z
" style="fill:#ffffff;"/>
   </g>
   <g id="line2d_1">
    <path clip-path="url(#pc1c77b9b39)" d="
M136.688 601.02
L137.496 601.02
L137.496 600.13
L142.061 600.13
L142.061 599.239
L143.52 599.239
L143.52 598.349
L148.478 598.349
L148.478 597.458
L148.957 597.458
L148.957 596.568
L150.308 596.568
L150.308 595.678
L155.006 595.678
L155.006 594.787
L157.125 594.787
L157.125 593.897
L158.336 593.897
L158.336 593.006
L160.983 593.006
L160.983 592.116
L165.038 592.116
L165.038 591.226
L166.734 591.226
L166.734 590.335
L171.22 590.335
L171.22 589.445
L171.502 589.445
L171.502 588.554
L173.544 588.554
L173.544 587.664
L175.475 587.664
L175.475 586.774
L191.843 586.774
L191.843 585.883
L192.607 585.883
L192.607 584.993
L192.749 584.993
L192.749 584.102
L197.103 584.102
L197.103 583.212
L199.709 583.212
L199.709 582.322
L200.418 582.322
L200.418 581.431
L200.628 581.431
L200.628 580.541
L202.129 580.541
L202.129 579.65
L202.874 579.65
L202.874 578.76
L206.308 578.76
L206.35 576.979
L207.574 576.979
L207.574 576.089
L208.989 576.089
L208.989 575.198
L211.343 575.198
L211.343 574.308
L211.786 574.308
L211.786 573.418
L214.525 573.418
L214.525 572.527
L217.666 572.527
L217.666 571.637
L218.44 571.637
L218.491 569.856
L219.799 569.856
L219.799 568.966
L221.07 568.966
L221.07 568.075
L222.946 568.075
L222.946 567.185
L224.301 567.185
L224.301 566.294
L224.501 566.294
L224.501 565.404
L226.071 565.404
L226.071 564.514
L226.896 564.514
L226.896 563.623
L228.038 563.623
L228.038 562.733
L228.532 562.733
L228.593 560.952
L235.688 560.952
L235.688 560.062
L239.421 560.062
L239.421 559.171
L241.058 559.171
L241.058 558.281
L246.21 558.281
L246.21 557.39
L248.953 557.39
L248.953 556.5
L252.57 556.5
L252.57 555.61
L255.68 555.61
L255.68 554.719
L255.832 554.719
L255.832 553.829
L256.34 553.829
L256.34 552.938
L256.831 552.938
L256.831 552.048
L257.788 552.048
L257.883 550.267
L259.54 550.267
L259.54 549.377
L260.212 549.377
L260.212 548.486
L261.709 548.486
L261.709 547.596
L261.909 547.596
L261.909 546.706
L263.245 546.706
L263.245 545.815
L265.912 545.815
L265.912 544.925
L267.281 544.925
L267.281 544.034
L267.679 544.034
L267.679 543.144
L269.922 543.144
L269.922 542.254
L272.439 542.254
L272.439 541.363
L274.227 541.363
L274.227 540.473
L274.735 540.473
L274.735 539.582
L275.177 539.582
L275.177 538.692
L277.774 538.692
L277.774 537.802
L278.167 537.802
L278.167 536.911
L281.196 536.911
L281.196 536.021
L281.797 536.021
L281.797 535.13
L282.449 535.13
L282.509 533.35
L285.069 533.35
L285.069 532.459
L288.48 532.459
L288.48 531.569
L292.135 531.569
L292.135 530.678
L294.025 530.678
L294.025 529.788
L294.547 529.788
L294.547 528.898
L301.267 528.898
L301.267 528.007
L304.29 528.007
L304.29 527.117
L304.681 527.117
L304.681 526.226
L306.308 526.226
L306.308 525.336
L308.914 525.336
L308.914 524.446
L309.366 524.446
L309.366 523.555
L309.955 523.555
L309.955 522.665
L311.359 522.665
L311.359 521.774
L312.166 521.774
L312.166 520.884
L314.068 520.884
L314.068 519.994
L314.589 519.994
L314.589 519.103
L315.194 519.103
L315.194 518.213
L316.494 518.213
L316.494 517.322
L317.328 517.322
L317.328 516.432
L317.665 516.432
L317.665 515.542
L317.959 515.542
L317.959 514.651
L320.311 514.651
L320.311 513.761
L325.065 513.761
L325.065 512.87
L325.65 512.87
L325.65 511.98
L331.097 511.98
L331.097 511.09
L336.567 511.09
L336.567 510.199
L341.131 510.199
L341.131 509.309
L342.955 509.309
L342.955 508.418
L343.835 508.418
L343.835 507.528
L345.077 507.528
L345.077 506.638
L345.558 506.638
L345.558 505.747
L345.674 505.747
L345.674 504.857
L349.231 504.857
L349.231 503.966
L350.575 503.966
L350.575 503.076
L352.115 503.076
L352.115 502.186
L354.601 502.186
L354.601 501.295
L360.41 501.295
L360.41 500.405
L360.56 500.405
L360.56 499.514
L360.891 499.514
L360.891 498.624
L366 498.624
L366 497.734
L366.965 497.734
L366.965 496.843
L367.863 496.843
L367.863 495.953
L369.781 495.953
L369.781 495.062
L374.333 495.062
L374.333 494.172
L375.519 494.172
L375.519 493.282
L376.931 493.282
L376.931 492.391
L377.135 492.391
L377.135 491.501
L378.104 491.501
L378.104 490.61
L378.556 490.61
L378.556 489.72
L379.517 489.72
L379.517 488.83
L381.759 488.83
L381.759 487.939
L382.054 487.939
L382.054 487.049
L384.331 487.049
L384.331 486.158
L384.875 486.158
L384.875 485.268
L387.262 485.268
L387.262 484.378
L392.168 484.378
L392.168 483.487
L393.562 483.487
L393.562 482.597
L393.753 482.597
L393.753 481.706
L394.341 481.706
L394.341 480.816
L396.897 480.816
L396.897 479.926
L399.619 479.926
L399.619 479.035
L400.214 479.035
L400.214 478.145
L400.797 478.145
L400.797 477.254
L400.912 477.254
L400.912 476.364
L401.609 476.364
L401.609 475.474
L402.48 475.474
L402.48 474.583
L404.009 474.583
L404.009 473.693
L404.441 473.693
L404.441 472.802
L405.729 472.802
L405.729 471.912
L406.394 471.912
L406.502 470.131
L406.83 470.131
L406.935 468.35
L407.211 468.35
L407.211 467.46
L407.803 467.46
L407.803 466.57
L408.174 466.57
L408.174 465.679
L410.767 465.679
L410.767 464.789
L411.403 464.789
L411.403 463.898
L411.515 463.898
L411.515 463.008
L411.651 463.008
L411.754 461.227
L411.987 461.227
L412.091 459.446
L412.703 459.446
L412.703 458.556
L413.211 458.556
L413.211 457.666
L413.616 457.666
L413.616 456.775
L413.903 456.775
L413.903 455.885
L414.147 455.885
L414.147 454.994
L418.147 454.994
L418.147 454.104
L418.544 454.104
L418.544 453.214
L418.947 453.214
L418.947 452.323
L419.1 452.323
L419.1 451.433
L420.069 451.433
L420.069 450.542
L420.808 450.542
L420.808 449.652
L421.154 449.652
L421.154 448.762
L422.368 448.762
L422.368 447.871
L422.897 447.871
L422.897 446.981
L423.887 446.981
L423.887 446.09
L424.222 446.09
L424.222 445.2
L424.689 445.2
L424.689 444.31
L425.765 444.31
L425.765 443.419
L427.259 443.419
L427.259 442.529
L427.734 442.529
L427.734 441.638
L428.58 441.638
L428.58 440.748
L429.039 440.748
L429.039 439.858
L431.433 439.858
L431.433 438.967
L431.565 438.967
L431.565 438.077
L432.329 438.077
L432.329 437.186
L433.061 437.186
L433.061 436.296
L434.223 436.296
L434.223 435.406
L434.507 435.406
L434.507 434.515
L435.047 434.515
L435.047 433.625
L435.288 433.625
L435.288 432.734
L436.046 432.734
L436.046 431.844
L436.81 431.844
L436.81 430.954
L436.968 430.954
L436.968 430.063
L437.218 430.063
L437.218 429.173
L437.353 429.173
L437.445 427.392
L438.139 427.392
L438.139 426.502
L440.066 426.502
L440.123 424.721
L441.356 424.721
L441.356 423.83
L442.14 423.83
L442.14 422.94
L442.418 422.94
L442.418 422.05
L442.707 422.05
L442.707 421.159
L443.085 421.159
L443.085 420.269
L443.845 420.269
L443.845 419.378
L445.87 419.378
L445.87 418.488
L446.61 418.488
L446.61 417.598
L448.176 417.598
L448.176 416.707
L448.342 416.707
L448.442 414.926
L449.8 414.926
L449.817 413.146
L451.437 413.146
L451.437 412.255
L452.486 412.255
L452.486 411.365
L452.849 411.365
L452.849 410.474
L454.69 410.474
L454.69 409.584
L455.085 409.584
L455.085 408.694
L456.564 408.694
L456.638 406.913
L457.89 406.913
L457.89 406.022
L459.161 406.022
L459.161 405.132
L460.34 405.132
L460.359 403.351
L461.217 403.351
L461.217 402.461
L463.465 402.461
L463.465 401.57
L464.534 401.57
L464.534 400.68
L465.174 400.68
L465.174 399.79
L466.857 399.79
L466.857 398.899
L467.673 398.899
L467.673 398.009
L467.808 398.009
L467.867 396.228
L468.938 396.228
L468.938 395.338
L469.54 395.338
L469.54 394.447
L470.392 394.447
L470.392 393.557
L471.869 393.557
L471.869 392.666
L472.816 392.666
L472.816 391.776
L474.287 391.776
L474.287 390.886
L474.824 390.886
L474.824 389.995
L475.084 389.995
L475.084 389.105
L476.32 389.105
L476.32 388.214
L476.473 388.214
L476.473 387.324
L477.443 387.324
L477.443 386.434
L477.79 386.434
L477.79 385.543
L478.089 385.543
L478.089 384.653
L481.335 384.653
L481.335 383.762
L485.93 383.762
L485.93 382.872
L487.442 382.872
L487.442 381.982
L487.839 381.982
L487.839 381.091
L488.658 381.091
L488.658 380.201
L488.924 380.201
L488.924 379.31
L491.806 379.31
L491.806 378.42
L493.556 378.42
L493.597 375.749
L494.423 375.749
L494.423 374.858
L495.469 374.858
L495.469 373.968
L495.848 373.968
L495.848 373.078
L496.055 373.078
L496.071 371.297
L497.164 371.297
L497.227 368.626
L498.18 368.626
L498.18 367.735
L499.211 367.735
L499.211 366.845
L499.51 366.845
L499.51 365.954
L502.318 365.954
L502.318 365.064
L504.715 365.064
L504.715 364.174
L504.935 364.174
L504.935 363.283
L505.091 363.283
L505.091 362.393
L505.403 362.393
L505.403 361.502
L506.277 361.502
L506.286 359.722
L507.569 359.722
L507.569 358.831
L509.035 358.831
L509.035 357.941
L511.29 357.941
L511.29 357.05
L512.082 357.05
L512.082 356.16
L512.424 356.16
L512.424 355.27
L513.744 355.27
L513.744 354.379
L514.616 354.379
L514.677 352.598
L515.68 352.598
L515.777 350.818
L517.122 350.818
L517.122 349.927
L520.204 349.927
L520.204 349.037
L520.42 349.037
L520.423 347.256
L522.247 347.256
L522.247 346.366
L524.453 346.366
L524.453 345.475
L524.698 345.475
L524.698 344.585
L524.961 344.585
L524.961 343.694
L525.234 343.694
L525.234 342.804
L526.225 342.804
L526.225 341.914
L526.99 341.914
L526.99 341.023
L527.604 341.023
L527.604 340.133
L527.967 340.133
L527.967 339.242
L528.963 339.242
L528.963 338.352
L529.181 338.352
L529.181 337.462
L530.071 337.462
L530.071 336.571
L531.082 336.571
L531.082 335.681
L531.53 335.681
L531.53 334.79
L531.678 334.79
L531.717 333.01
L533.881 333.01
L533.961 331.229
L534.041 331.229
L534.041 330.338
L534.807 330.338
L534.807 329.448
L535.187 329.448
L535.187 328.558
L536.252 328.558
L536.252 327.667
L537.072 327.667
L537.072 326.777
L537.837 326.777
L537.877 324.996
L538.127 324.996
L538.127 324.106
L540.926 324.106
L540.996 322.325
L541.379 322.325
L541.379 321.434
L541.917 321.434
L541.917 320.544
L542.659 320.544
L542.768 318.763
L545.442 318.763
L545.442 317.873
L546.697 317.873
L546.697 316.982
L547.599 316.982
L547.599 316.092
L547.845 316.092
L547.845 315.202
L548.176 315.202
L548.176 314.311
L548.695 314.311
L548.695 313.421
L549.666 313.421
L549.666 312.53
L550.214 312.53
L550.214 311.64
L551.187 311.64
L551.187 310.75
L551.34 310.75
L551.34 309.859
L551.469 309.859
L551.469 308.969
L551.589 308.969
L551.589 308.078
L555.01 308.078
L555.01 307.188
L555.282 307.188
L555.282 306.298
L555.673 306.298
L555.673 305.407
L556.944 305.407
L556.944 304.517
L557.597 304.517
L557.597 303.626
L559.351 303.626
L559.351 302.736
L559.469 302.736
L559.469 301.846
L561.452 301.846
L561.452 300.955
L561.586 300.955
L561.586 300.065
L564.581 300.065
L564.581 299.174
L569.757 299.174
L569.757 298.284
L570.434 298.284
L570.434 297.394
L570.64 297.394
L570.64 296.503
L574.007 296.503
L574.007 295.613
L574.278 295.613
L574.278 294.722
L576.51 294.722
L576.51 293.832
L577.557 293.832
L577.557 292.942
L578.79 292.942
L578.79 292.051
L580.4 292.051
L580.4 291.161
L583.305 291.161
L583.305 290.27
L585.166 290.27
L585.166 289.38
L586.387 289.38
L586.463 287.599
L587.235 287.599
L587.235 286.709
L589.394 286.709
L589.394 285.818
L590.279 285.818
L590.279 284.928
L591.848 284.928
L591.901 283.147
L593.033 283.147
L593.033 282.257
L596.548 282.257
L596.548 281.366
L600.291 281.366
L600.291 280.476
L605.405 280.476
L605.405 279.586
L606.007 279.586
L606.007 278.695
L607.463 278.695
L607.463 277.805
L608.422 277.805
L608.422 276.914
L609.609 276.914
L609.665 275.134
L613.766 275.134
L613.77 273.353
L614.764 273.353
L614.764 272.462
L615.616 272.462
L615.616 271.572
L616.202 271.572
L616.202 270.682
L619.512 270.682
L619.512 269.791
L621.143 269.791
L621.143 268.901
L621.589 268.901
L621.589 268.01
L622.82 268.01
L622.82 267.12
L629.509 267.12
L629.509 266.23
L632.249 266.23
L632.249 265.339
L633.629 265.339
L633.629 264.449
L636.744 264.449
L636.744 263.558
L637.002 263.558
L637.002 262.668
L639.454 262.668
L639.454 261.778
L641.09 261.778
L641.09 260.887
L642.008 260.887
L642.008 259.997
L642.185 259.997
L642.185 259.106
L643.934 259.106
L643.934 258.216
L647.553 258.216
L647.553 257.326
L650.756 257.326
L650.756 256.435
L653.339 256.435
L653.339 255.545
L655.886 255.545
L655.886 254.654
L656.191 254.654
L656.191 253.764
L657.099 253.764
L657.099 252.874
L659.907 252.874
L659.907 251.983
L663.809 251.983
L663.809 251.093
L666.367 251.093
L666.367 250.202
L667.003 250.202
L667.003 249.312
L667.357 249.312
L667.357 248.422
L667.701 248.422
L667.701 247.531
L668.214 247.531
L668.214 246.641
L671.189 246.641
L671.189 245.75
L671.444 245.75
L671.444 244.86
L672.36 244.86
L672.36 243.97
L675.981 243.97
L675.981 243.079
L676.105 243.079
L676.105 242.189
L676.74 242.189
L676.74 241.298
L676.912 241.298
L676.912 240.408
L677.591 240.408
L677.591 239.518
L678.144 239.518
L678.144 238.627
L680.053 238.627
L680.125 236.846
L684.147 236.846
L684.147 235.956
L686.999 235.956
L686.999 235.066
L687.156 235.066
L687.156 234.175
L688.051 234.175
L688.051 233.285
L689.688 233.285
L689.688 232.394
L690.059 232.394
L690.059 231.504
L693.361 231.504
L693.361 230.614
L693.668 230.614
L693.668 229.723
L694.008 229.723
L694.008 228.833
L694.217 228.833
L694.217 227.942
L694.59 227.942
L694.59 227.052
L696.178 227.052
L696.178 226.162
L702.924 226.162
L702.924 225.271
L703.046 225.271
L703.046 224.381
L704.229 224.381
L704.229 223.49
L704.964 223.49
L704.964 222.6
L707.681 222.6
L707.681 221.71
L711.413 221.71
L711.413 220.819
L713.353 220.819
L713.353 219.929
L714.195 219.929
L714.195 219.038
L715.404 219.038
L715.404 218.148
L715.623 218.148
L715.623 217.258
L717.247 217.258
L717.247 216.367
L717.83 216.367
L717.83 215.477
L718.874 215.477
L718.874 214.586
L719.493 214.586
L719.493 213.696
L722.069 213.696
L722.069 212.806
L723.555 212.806
L723.555 211.915
L728.925 211.915
L728.925 211.025
L730.157 211.025
L730.157 210.134
L732.504 210.134
L732.504 209.244
L734.291 209.244
L734.291 208.354
L736.531 208.354
L736.61 206.573
L736.647 206.573
L736.647 205.682
L739.678 205.682
L739.678 204.792
L740.525 204.792
L740.525 203.902
L741.606 203.902
L741.606 203.011
L745.189 203.011
L745.189 202.121
L745.931 202.121
L745.931 201.23
L747.37 201.23
L747.37 200.34
L748.072 200.34
L748.072 199.45
L751.835 199.45
L751.835 198.559
L760.151 198.559
L760.151 197.669
L761.161 197.669
L761.161 196.778
L761.43 196.778
L761.43 195.888
L766.028 195.888
L766.028 194.998
L766.307 194.998
L766.307 194.107
L767.626 194.107
L767.626 193.217
L768.661 193.217
L768.661 192.326
L771.269 192.326
L771.269 191.436
L771.5 191.436
L771.5 190.546
L772.333 190.546
L772.333 189.655
L777.007 189.655
L777.007 188.765
L778.023 188.765
L778.023 187.874
L779.042 187.874
L779.042 186.984
L779.758 186.984
L779.758 186.094
L786.04 186.094
L786.04 185.203
L787.291 185.203
L787.385 183.422
L787.588 183.422
L787.588 182.532
L791.455 182.532
L791.455 181.642
L793.157 181.642
L793.157 180.751
L794.783 180.751
L794.889 178.97
L795.268 178.97
L795.268 178.08
L796.082 178.08
L796.082 177.19
L796.38 177.19
L796.38 176.299
L797.596 176.299
L797.596 175.409
L803.153 175.409
L803.153 174.518
L805.28 174.518
L805.28 173.628
L807.805 173.628
L807.805 172.738
L811.078 172.738
L811.078 171.847
L815.544 171.847
L815.544 170.957
L816.263 170.957
L816.263 170.066
L816.883 170.066
L816.883 169.176
L817.659 169.176
L817.659 168.286
L823.346 168.286
L823.346 167.395
L823.518 167.395
L823.518 166.505
L824.914 166.505
L824.914 165.614
L827.791 165.614
L827.791 164.724
L828.56 164.724
L828.56 163.834
L830.781 163.834
L830.889 162.053
L831.85 162.053
L831.85 161.162
L833.078 161.162
L833.078 160.272
L835.481 160.272
L835.481 159.382
L837.384 159.382
L837.384 158.491
L839.135 158.491
L839.135 157.601
L840.717 157.601
L840.717 156.71
L843.462 156.71
L843.462 155.82
L847.98 155.82
L847.98 154.93
L848.545 154.93
L848.545 154.039
L854.336 154.039
L854.336 153.149
L855.468 153.149
L855.468 152.258
L855.979 152.258
L855.979 151.368
L856.557 151.368
L856.557 150.478
L857.061 150.478
L857.061 149.587
L860.96 149.587
L860.96 148.697
L864.24 148.697
L864.24 147.806
L864.688 147.806
L864.688 146.916
L866.603 146.916
L866.603 146.026
L872.348 146.026
L872.348 145.135
L873.588 145.135
L873.588 144.245
L875.694 144.245
L875.694 143.354
L876.709 143.354
L876.709 142.464
L877.24 142.464
L877.24 141.574
L879.148 141.574
L879.148 140.683
L880.666 140.683
L880.774 138.902
L880.832 138.902
L880.832 138.012
L885.246 138.012
L885.246 137.122
L887.526 137.122
L887.526 136.231
L891.709 136.231
L891.709 135.341
L892.668 135.341
L892.668 134.45
L892.838 134.45
L892.838 133.56
L894.85 133.56
L894.85 132.67
L896.236 132.67
L896.236 131.779
L898.237 131.779
L898.237 130.889
L903.434 130.889
L903.434 129.998
L906.232 129.998
L906.232 129.108
L910.931 129.108
L910.931 128.218
L911.488 128.218
L911.488 127.327
L915.548 127.327
L915.548 126.437
L916.739 126.437
L916.739 125.546
L917.227 125.546
L917.227 124.656
L917.452 124.656
L917.452 123.766
L918.968 123.766
L918.968 122.875
L919.411 122.875
L919.411 121.985
L920.605 121.985
L920.605 121.094
L925.057 121.094
L925.057 120.204
L926.216 120.204
L926.216 119.314
L928.288 119.314
L928.288 118.423
L930.225 118.423
L930.225 117.533
L931.624 117.533
L931.624 116.642
L933.309 116.642
L933.309 115.752
L934.127 115.752
L934.127 114.862
L934.658 114.862
L934.658 113.971
L935.832 113.971
L935.832 113.081
L942.645 113.081
L942.645 112.19
L943.158 112.19
L943.158 111.3
L944.281 111.3
L944.281 110.41
L948.366 110.41
L948.366 109.519
L949.243 109.519
L949.243 108.629
L949.487 108.629
L949.487 107.738
L950.577 107.738
L950.577 106.848
L951.472 106.848
L951.472 105.958
L951.681 105.958
L951.681 105.067
L954.076 105.067
L954.076 104.177
L955.649 104.177
L955.649 103.286
L957.821 103.286
L957.821 102.396
L959.859 102.396
L959.859 101.506
L960.059 101.506
L960.059 100.615
L961.377 100.615
L961.377 99.7248
L961.719 99.7248
L961.719 98.8344
L963.429 98.8344
L963.429 97.944
L964.866 97.944
L964.866 97.0536
L965.626 97.0536
L965.626 96.1632
L970.263 96.1632
L970.263 95.2728
L970.429 95.2728
L970.429 94.3824
L972.489 94.3824
L972.489 93.492
L974.908 93.492
L974.908 92.6016
L976.337 92.6016
L976.337 91.7112
L976.999 91.7112
L977.003 89.9304
L979.092 89.9304
L979.092 89.04
L979.092 89.04" style="fill:none;stroke:#0000ff;"/>
   </g>
   <g id="matplotlib.axis_1">
    <g id="xtick_1">
     <g id="line2d_2">
      <defs>
       <path d="
M0 0
L0 -4" id="m0012dd4eef" style="stroke:#000000;stroke-linecap:butt;stroke-width:0.5;"/>
      </defs>
      <g>
       <use style="stroke:#000000;stroke-linecap:butt;stroke-width:0.5;" x="136.6875" xlink:href="#m0012dd4eef" y="601.02"/>
      </g>
     </g>
     <g id="line2d_3">
      <defs>
       <path d="
M0 0
L0 4" id="m476344969c" style="stroke:#000000;stroke-linecap:butt;stroke-width:0.5;"/>
      </defs>
      <g>
       <use style="stroke:#000000;stroke-linecap:butt;stroke-width:0.5;" x="136.6875" xlink:href="#m476344969c" y="66.78"/>
      </g>
     </g>
     <g id="text_1">
      <!-- 0 -->
      <defs>
       <path d="
M31.7812 66.4062
Q24.1719 66.4062 20.3281 58.9062
Q16.5 51.4219 16.5 36.375
Q16.5 21.3906 20.3281 13.8906
Q24.1719 6.39062 31.7812 6.39062
Q39.4531 6.39062 43.2812 13.8906
Q47.125 21.3906 47.125 36.375
Q47.125 51.4219 43.2812 58.9062
Q39.4531 66.4062 31.7812 66.4062
M31.7812 74.2188
Q44.0469 74.2188 50.5156 64.5156
Q56.9844 54.8281 56.9844 36.375
Q56.9844 17.9688 50.5156 8.26562
Q44.0469 -1.42188 31.7812 -1.42188
Q19.5312 -1.42188 13.0625 8.26562
Q6.59375 17.9688 6.59375 36.375
Q6.59375 54.8281 13.0625 64.5156
Q19.5312 74.2188 31.7812 74.2188" id="DejaVuSans-30"/>
      </defs>
      <g transform="translate(133.6640625 613.92625)scale(0.12 -0.12)">
       <use xlink:href="#DejaVuSans-30"/>
      </g>
     </g>
    </g>
    <g id="xtick_2">
     <g id="line2d_4">
      <g>
       <use style="stroke:#000000;stroke-linecap:butt;stroke-width:0.5;" x="306.18" xlink:href="#m0012dd4eef" y="601.02"/>
      </g>
     </g>
     <g id="line2d_5">
      <g>
       <use style="stroke:#000000;stroke-linecap:butt;stroke-width:0.5;" x="306.18" xlink:href="#m476344969c" y="66.78"/>
      </g>
     </g>
     <g id="text_2">
      <!-- 20 -->
      <defs>
       <path d="
M19.1875 8.29688
L53.6094 8.29688
L53.6094 0
L7.32812 0
L7.32812 8.29688
Q12.9375 14.1094 22.625 23.8906
Q32.3281 33.6875 34.8125 36.5312
Q39.5469 41.8438 41.4219 45.5312
Q43.3125 49.2188 43.3125 52.7812
Q43.3125 58.5938 39.2344 62.25
Q35.1562 65.9219 28.6094 65.9219
Q23.9688 65.9219 18.8125 64.3125
Q13.6719 62.7031 7.8125 59.4219
L7.8125 69.3906
Q13.7656 71.7812 18.9375 73
Q24.125 74.2188 28.4219 74.2188
Q39.75 74.2188 46.4844 68.5469
Q53.2188 62.8906 53.2188 53.4219
Q53.2188 48.9219 51.5312 44.8906
Q49.8594 40.875 45.4062 35.4062
Q44.1875 33.9844 37.6406 27.2188
Q31.1094 20.4531 19.1875 8.29688" id="DejaVuSans-32"/>
      </defs>
      <g transform="translate(299.383125 613.92625)scale(0.12 -0.12)">
       <use xlink:href="#DejaVuSans-32"/>
       <use x="63.623046875" xlink:href="#DejaVuSans-30"/>
      </g>
     </g>
    </g>
    <g id="xtick_3">
     <g id="line2d_6">
      <g>
       <use style="stroke:#000000;stroke-linecap:butt;stroke-width:0.5;" x="475.6725" xlink:href="#m0012dd4eef" y="601.02"/>
      </g>
     </g>
     <g id="line2d_7">
      <g>
       <use style="stroke:#000000;stroke-linecap:butt;stroke-width:0.5;" x="475.6725" xlink:href="#m476344969c" y="66.78"/>
      </g>
     </g>
     <g id="text_3">
      <!-- 40 -->
      <defs>
       <path d="
M37.7969 64.3125
L12.8906 25.3906
L37.7969 25.3906
z

M35.2031 72.9062
L47.6094 72.9062
L47.6094 25.3906
L58.0156 25.3906
L58.0156 17.1875
L47.6094 17.1875
L47.6094 0
L37.7969 0
L37.7969 17.1875
L4.89062 17.1875
L4.89062 26.7031
z
" id="DejaVuSans-34"/>
      </defs>
      <g transform="translate(468.729375 613.92625)scale(0.12 -0.12)">
       <use xlink:href="#DejaVuSans-34"/>
       <use x="63.623046875" xlink:href="#DejaVuSans-30"/>
      </g>
     </g>
    </g>
    <g id="xtick_4">
     <g id="line2d_8">
      <g>
       <use style="stroke:#000000;stroke-linecap:butt;stroke-width:0.5;" x="645.165" xlink:href="#m0012dd4eef" y="601.02"/>
      </g>
     </g>
     <g id="line2d_9">
      <g>
       <use style="stroke:#000000;stroke-linecap:butt;stroke-width:0.5;" x="645.165" xlink:href="#m476344969c" y="66.78"/>
      </g>
     </g>
     <g id="text_4">
      <!-- 60 -->
      <defs>
       <path d="
M33.0156 40.375
Q26.375 40.375 22.4844 35.8281
Q18.6094 31.2969 18.6094 23.3906
Q18.6094 15.5312 22.4844 10.9531
Q26.375 6.39062 33.0156 6.39062
Q39.6562 6.39062 43.5312 10.9531
Q47.4062 15.5312 47.4062 23.3906
Q47.4062 31.2969 43.5312 35.8281
Q39.6562 40.375 33.0156 40.375
M52.5938 71.2969
L52.5938 62.3125
Q48.875 64.0625 45.0938 64.9844
Q41.3125 65.9219 37.5938 65.9219
Q27.8281 65.9219 22.6719 59.3281
Q17.5312 52.7344 16.7969 39.4062
Q19.6719 43.6562 24.0156 45.9219
Q28.375 48.1875 33.5938 48.1875
Q44.5781 48.1875 50.9531 41.5156
Q57.3281 34.8594 57.3281 23.3906
Q57.3281 12.1562 50.6875 5.35938
Q44.0469 -1.42188 33.0156 -1.42188
Q20.3594 -1.42188 13.6719 8.26562
Q6.98438 17.9688 6.98438 36.375
Q6.98438 53.6562 15.1875 63.9375
Q23.3906 74.2188 37.2031 74.2188
Q40.9219 74.2188 44.7031 73.4844
Q48.4844 72.75 52.5938 71.2969" id="DejaVuSans-36"/>
      </defs>
      <g transform="translate(638.3475 613.92625)scale(0.12 -0.12)">
       <use xlink:href="#DejaVuSans-36"/>
       <use x="63.623046875" xlink:href="#DejaVuSans-30"/>
      </g>
     </g>
    </g>
    <g id="xtick_5">
     <g id="line2d_10">
      <g>
       <use style="stroke:#000000;stroke-linecap:butt;stroke-width:0.5;" x="814.6575" xlink:href="#m0012dd4eef" y="601.02"/>
      </g>
     </g>
     <g id="line2d_11">
      <g>
       <use style="stroke:#000000;stroke-linecap:butt;stroke-width:0.5;" x="814.6575" xlink:href="#m476344969c" y="66.78"/>
      </g>
     </g>
     <g id="text_5">
      <!-- 80 -->
      <defs>
       <path d="
M31.7812 34.625
Q24.75 34.625 20.7188 30.8594
Q16.7031 27.0938 16.7031 20.5156
Q16.7031 13.9219 20.7188 10.1562
Q24.75 6.39062 31.7812 6.39062
Q38.8125 6.39062 42.8594 10.1719
Q46.9219 13.9688 46.9219 20.5156
Q46.9219 27.0938 42.8906 30.8594
Q38.875 34.625 31.7812 34.625
M21.9219 38.8125
Q15.5781 40.375 12.0312 44.7188
Q8.5 49.0781 8.5 55.3281
Q8.5 64.0625 14.7188 69.1406
Q20.9531 74.2188 31.7812 74.2188
Q42.6719 74.2188 48.875 69.1406
Q55.0781 64.0625 55.0781 55.3281
Q55.0781 49.0781 51.5312 44.7188
Q48 40.375 41.7031 38.8125
Q48.8281 37.1562 52.7969 32.3125
Q56.7812 27.4844 56.7812 20.5156
Q56.7812 9.90625 50.3125 4.23438
Q43.8438 -1.42188 31.7812 -1.42188
Q19.7344 -1.42188 13.25 4.23438
Q6.78125 9.90625 6.78125 20.5156
Q6.78125 27.4844 10.7812 32.3125
Q14.7969 37.1562 21.9219 38.8125
M18.3125 54.3906
Q18.3125 48.7344 21.8438 45.5625
Q25.3906 42.3906 31.7812 42.3906
Q38.1406 42.3906 41.7188 45.5625
Q45.3125 48.7344 45.3125 54.3906
Q45.3125 60.0625 41.7188 63.2344
Q38.1406 66.4062 31.7812 66.4062
Q25.3906 66.4062 21.8438 63.2344
Q18.3125 60.0625 18.3125 54.3906" id="DejaVuSans-38"/>
      </defs>
      <g transform="translate(807.8278125 613.92625)scale(0.12 -0.12)">
       <use xlink:href="#DejaVuSans-38"/>
       <use x="63.623046875" xlink:href="#DejaVuSans-30"/>
      </g>
     </g>
    </g>
    <g id="xtick_6">
     <g id="line2d_12">
      <g>
       <use style="stroke:#000000;stroke-linecap:butt;stroke-width:0.5;" x="984.15" xlink:href="#m0012dd4eef" y="601.02"/>
      </g>
     </g>
     <g id="line2d_13">
      <g>
       <use style="stroke:#000000;stroke-linecap:butt;stroke-width:0.5;" x="984.15" xlink:href="#m476344969c" y="66.78"/>
      </g>
     </g>
     <g id="text_6">
      <!-- 100 -->
      <defs>
       <path d="
M12.4062 8.29688
L28.5156 8.29688
L28.5156 63.9219
L10.9844 60.4062
L10.9844 69.3906
L28.4219 72.9062
L38.2812 72.9062
L38.2812 8.29688
L54.3906 8.29688
L54.3906 0
L12.4062 0
z
" id="DejaVuSans-31"/>
      </defs>
      <g transform="translate(973.755 613.92625)scale(0.12 -0.12)">
       <use xlink:href="#DejaVuSans-31"/>
       <use x="63.623046875" xlink:href="#DejaVuSans-30"/>
       <use x="127.24609375" xlink:href="#DejaVuSans-30"/>
      </g>
     </g>
    </g>
    <g id="text_7">
     <!-- Time -->
     <defs>
      <path d="
M52 44.1875
Q55.375 50.25 60.0625 53.125
Q64.75 56 71.0938 56
Q79.6406 56 84.2812 50.0156
Q88.9219 44.0469 88.9219 33.0156
L88.9219 0
L79.8906 0
L79.8906 32.7188
Q79.8906 40.5781 77.0938 44.375
Q74.3125 48.1875 68.6094 48.1875
Q61.625 48.1875 57.5625 43.5469
Q53.5156 38.9219 53.5156 30.9062
L53.5156 0
L44.4844 0
L44.4844 32.7188
Q44.4844 40.625 41.7031 44.4062
Q38.9219 48.1875 33.1094 48.1875
Q26.2188 48.1875 22.1562 43.5312
Q18.1094 38.875 18.1094 30.9062
L18.1094 0
L9.07812 0
L9.07812 54.6875
L18.1094 54.6875
L18.1094 46.1875
Q21.1875 51.2188 25.4844 53.6094
Q29.7812 56 35.6875 56
Q41.6562 56 45.8281 52.9688
Q50 49.9531 52 44.1875" id="DejaVuSans-6d"/>
      <path d="
M9.42188 54.6875
L18.4062 54.6875
L18.4062 0
L9.42188 0
z

M9.42188 75.9844
L18.4062 75.9844
L18.4062 64.5938
L9.42188 64.5938
z
" id="DejaVuSans-69"/>
      <path d="
M56.2031 29.5938
L56.2031 25.2031
L14.8906 25.2031
Q15.4844 15.9219 20.4844 11.0625
Q25.4844 6.20312 34.4219 6.20312
Q39.5938 6.20312 44.4531 7.46875
Q49.3125 8.73438 54.1094 11.2812
L54.1094 2.78125
Q49.2656 0.734375 44.1875 -0.34375
Q39.1094 -1.42188 33.8906 -1.42188
Q20.7969 -1.42188 13.1562 6.1875
Q5.51562 13.8125 5.51562 26.8125
Q5.51562 40.2344 12.7656 48.1094
Q20.0156 56 32.3281 56
Q43.3594 56 49.7812 48.8906
Q56.2031 41.7969 56.2031 29.5938
M47.2188 32.2344
Q47.125 39.5938 43.0938 43.9844
Q39.0625 48.3906 32.4219 48.3906
Q24.9062 48.3906 20.3906 44.1406
Q15.875 39.8906 15.1875 32.1719
z
" id="DejaVuSans-65"/>
      <path d="
M-0.296875 72.9062
L61.375 72.9062
L61.375 64.5938
L35.5 64.5938
L35.5 0
L25.5938 0
L25.5938 64.5938
L-0.296875 64.5938
z
" id="DejaVuSans-54"/>
     </defs>
     <g transform="translate(546.0403125 628.215)scale(0.12 -0.12)">
      <use xlink:href="#DejaVuSans-54"/>
      <use x="57.958984375" xlink:href="#DejaVuSans-69"/>
      <use x="85.7421875" xlink:href="#DejaVuSans-6d"/>
      <use x="183.154296875" xlink:href="#DejaVuSans-65"/>
     </g>
    </g>
   </g>
   <g id="matplotlib.axis_2">
    <g id="ytick_1">
     <g id="line2d_14">
      <defs>
       <path d="
M0 0
L4 0" id="me8a85f7bf6" style="stroke:#000000;stroke-linecap:butt;stroke-width:0.5;"/>
      </defs>
      <g>
       <use style="stroke:#000000;stroke-linecap:butt;stroke-width:0.5;" x="136.6875" xlink:href="#me8a85f7bf6" y="601.02"/>
      </g>
     </g>
     <g id="line2d_15">
      <defs>
       <path d="
M0 0
L-4 0" id="m1a32005dea" style="stroke:#000000;stroke-linecap:butt;stroke-width:0.5;"/>
      </defs>
      <g>
       <use style="stroke:#000000;stroke-linecap:butt;stroke-width:0.5;" x="984.15" xlink:href="#m1a32005dea" y="601.02"/>
      </g>
     </g>
     <g id="text_8">
      <!-- 0 -->
      <g transform="translate(126.640625 605.3878125)scale(0.12 -0.12)">
       <use xlink:href="#DejaVuSans-30"/>
      </g>
     </g>
    </g>
    <g id="ytick_2">
     <g id="line2d_16">
      <g>
       <use style="stroke:#000000;stroke-linecap:butt;stroke-width:0.5;" x="136.6875" xlink:href="#me8a85f7bf6" y="511.98"/>
      </g>
     </g>
     <g id="line2d_17">
      <g>
       <use style="stroke:#000000;stroke-linecap:butt;stroke-width:0.5;" x="984.15" xlink:href="#m1a32005dea" y="511.98"/>
      </g>
     </g>
     <g id="text_9">
      <!-- 100 -->
      <g transform="translate(111.8975 516.3478125)scale(0.12 -0.12)">
       <use xlink:href="#DejaVuSans-31"/>
       <use x="63.623046875" xlink:href="#DejaVuSans-30"/>
       <use x="127.24609375" xlink:href="#DejaVuSans-30"/>
      </g>
     </g>
    </g>
    <g id="ytick_3">
     <g id="line2d_18">
      <g>
       <use style="stroke:#000000;stroke-linecap:butt;stroke-width:0.5;" x="136.6875" xlink:href="#me8a85f7bf6" y="422.94"/>
      </g>
     </g>
     <g id="line2d_19">
      <g>
       <use style="stroke:#000000;stroke-linecap:butt;stroke-width:0.5;" x="984.15" xlink:href="#m1a32005dea" y="422.94"/>
      </g>
     </g>
     <g id="text_10">
      <!-- 200 -->
      <g transform="translate(111.45875 427.3078125)scale(0.12 -0.12)">
       <use xlink:href="#DejaVuSans-32"/>
       <use x="63.623046875" xlink:href="#DejaVuSans-30"/>
       <use x="127.24609375" xlink:href="#DejaVuSans-30"/>
      </g>
     </g>
    </g>
    <g id="ytick_4">
     <g id="line2d_20">
      <g>
       <use style="stroke:#000000;stroke-linecap:butt;stroke-width:0.5;" x="136.6875" xlink:href="#me8a85f7bf6" y="333.9"/>
      </g>
     </g>
     <g id="line2d_21">
      <g>
       <use style="stroke:#000000;stroke-linecap:butt;stroke-width:0.5;" x="984.15" xlink:href="#m1a32005dea" y="333.9"/>
      </g>
     </g>
     <g id="text_11">
      <!-- 300 -->
      <defs>
       <path d="
M40.5781 39.3125
Q47.6562 37.7969 51.625 33
Q55.6094 28.2188 55.6094 21.1875
Q55.6094 10.4062 48.1875 4.48438
Q40.7656 -1.42188 27.0938 -1.42188
Q22.5156 -1.42188 17.6562 -0.515625
Q12.7969 0.390625 7.625 2.20312
L7.625 11.7188
Q11.7188 9.32812 16.5938 8.10938
Q21.4844 6.89062 26.8125 6.89062
Q36.0781 6.89062 40.9375 10.5469
Q45.7969 14.2031 45.7969 21.1875
Q45.7969 27.6406 41.2812 31.2656
Q36.7656 34.9062 28.7188 34.9062
L20.2188 34.9062
L20.2188 43.0156
L29.1094 43.0156
Q36.375 43.0156 40.2344 45.9219
Q44.0938 48.8281 44.0938 54.2969
Q44.0938 59.9062 40.1094 62.9062
Q36.1406 65.9219 28.7188 65.9219
Q24.6562 65.9219 20.0156 65.0312
Q15.375 64.1562 9.8125 62.3125
L9.8125 71.0938
Q15.4375 72.6562 20.3438 73.4375
Q25.25 74.2188 29.5938 74.2188
Q40.8281 74.2188 47.3594 69.1094
Q53.9062 64.0156 53.9062 55.3281
Q53.9062 49.2656 50.4375 45.0938
Q46.9688 40.9219 40.5781 39.3125" id="DejaVuSans-33"/>
      </defs>
      <g transform="translate(111.494375 338.2678125)scale(0.12 -0.12)">
       <use xlink:href="#DejaVuSans-33"/>
       <use x="63.623046875" xlink:href="#DejaVuSans-30"/>
       <use x="127.24609375" xlink:href="#DejaVuSans-30"/>
      </g>
     </g>
    </g>
    <g id="ytick_5">
     <g id="line2d_22">
      <g>
       <use style="stroke:#000000;stroke-linecap:butt;stroke-width:0.5;" x="136.6875" xlink:href="#me8a85f7bf6" y="244.86"/>
      </g>
     </g>
     <g id="line2d_23">
      <g>
       <use style="stroke:#000000;stroke-linecap:butt;stroke-width:0.5;" x="984.15" xlink:href="#m1a32005dea" y="244.86"/>
      </g>
     </g>
     <g id="text_12">
      <!-- 400 -->
      <g transform="translate(111.16625 249.2278125)scale(0.12 -0.12)">
       <use xlink:href="#DejaVuSans-34"/>
       <use x="63.623046875" xlink:href="#DejaVuSans-30"/>
       <use x="127.24609375" xlink:href="#DejaVuSans-30"/>
      </g>
     </g>
    </g>
    <g id="ytick_6">
     <g id="line2d_24">
      <g>
       <use style="stroke:#000000;stroke-linecap:butt;stroke-width:0.5;" x="136.6875" xlink:href="#me8a85f7bf6" y="155.82"/>
      </g>
     </g>
     <g id="line2d_25">
      <g>
       <use style="stroke:#000000;stroke-linecap:butt;stroke-width:0.5;" x="984.15" xlink:href="#m1a32005dea" y="155.82"/>
      </g>
     </g>
     <g id="text_13">
      <!-- 500 -->
      <defs>
       <path d="
M10.7969 72.9062
L49.5156 72.9062
L49.5156 64.5938
L19.8281 64.5938
L19.8281 46.7344
Q21.9688 47.4688 24.1094 47.8281
Q26.2656 48.1875 28.4219 48.1875
Q40.625 48.1875 47.75 41.5
Q54.8906 34.8125 54.8906 23.3906
Q54.8906 11.625 47.5625 5.09375
Q40.2344 -1.42188 26.9062 -1.42188
Q22.3125 -1.42188 17.5469 -0.640625
Q12.7969 0.140625 7.71875 1.70312
L7.71875 11.625
Q12.1094 9.23438 16.7969 8.0625
Q21.4844 6.89062 26.7031 6.89062
Q35.1562 6.89062 40.0781 11.3281
Q45.0156 15.7656 45.0156 23.3906
Q45.0156 31 40.0781 35.4375
Q35.1562 39.8906 26.7031 39.8906
Q22.75 39.8906 18.8125 39.0156
Q14.8906 38.1406 10.7969 36.2812
z
" id="DejaVuSans-35"/>
      </defs>
      <g transform="translate(111.505625 160.1878125)scale(0.12 -0.12)">
       <use xlink:href="#DejaVuSans-35"/>
       <use x="63.623046875" xlink:href="#DejaVuSans-30"/>
       <use x="127.24609375" xlink:href="#DejaVuSans-30"/>
      </g>
     </g>
    </g>
    <g id="ytick_7">
     <g id="line2d_26">
      <g>
       <use style="stroke:#000000;stroke-linecap:butt;stroke-width:0.5;" x="136.6875" xlink:href="#me8a85f7bf6" y="66.78"/>
      </g>
     </g>
     <g id="line2d_27">
      <g>
       <use style="stroke:#000000;stroke-linecap:butt;stroke-width:0.5;" x="984.15" xlink:href="#m1a32005dea" y="66.78"/>
      </g>
     </g>
     <g id="text_14">
      <!-- 600 -->
      <g transform="translate(111.4175 71.1478125)scale(0.12 -0.12)">
       <use xlink:href="#DejaVuSans-36"/>
       <use x="63.623046875" xlink:href="#DejaVuSans-30"/>
       <use x="127.24609375" xlink:href="#DejaVuSans-30"/>
      </g>
     </g>
    </g>
    <g id="text_15">
     <!-- Emissions -->
     <defs>
      <path d="
M30.6094 48.3906
Q23.3906 48.3906 19.1875 42.75
Q14.9844 37.1094 14.9844 27.2969
Q14.9844 17.4844 19.1562 11.8438
Q23.3438 6.20312 30.6094 6.20312
Q37.7969 6.20312 41.9844 11.8594
Q46.1875 17.5312 46.1875 27.2969
Q46.1875 37.0156 41.9844 42.7031
Q37.7969 48.3906 30.6094 48.3906
M30.6094 56
Q42.3281 56 49.0156 48.375
Q55.7188 40.7656 55.7188 27.2969
Q55.7188 13.875 49.0156 6.21875
Q42.3281 -1.42188 30.6094 -1.42188
Q18.8438 -1.42188 12.1719 6.21875
Q5.51562 13.875 5.51562 27.2969
Q5.51562 40.7656 12.1719 48.375
Q18.8438 56 30.6094 56" id="DejaVuSans-6f"/>
      <path d="
M9.8125 72.9062
L55.9062 72.9062
L55.9062 64.5938
L19.6719 64.5938
L19.6719 43.0156
L54.3906 43.0156
L54.3906 34.7188
L19.6719 34.7188
L19.6719 8.29688
L56.7812 8.29688
L56.7812 0
L9.8125 0
z
" id="DejaVuSans-45"/>
      <path d="
M54.8906 33.0156
L54.8906 0
L45.9062 0
L45.9062 32.7188
Q45.9062 40.4844 42.875 44.3281
Q39.8438 48.1875 33.7969 48.1875
Q26.5156 48.1875 22.3125 43.5469
Q18.1094 38.9219 18.1094 30.9062
L18.1094 0
L9.07812 0
L9.07812 54.6875
L18.1094 54.6875
L18.1094 46.1875
Q21.3438 51.125 25.7031 53.5625
Q30.0781 56 35.7969 56
Q45.2188 56 50.0469 50.1719
Q54.8906 44.3438 54.8906 33.0156" id="DejaVuSans-6e"/>
      <path d="
M44.2812 53.0781
L44.2812 44.5781
Q40.4844 46.5312 36.375 47.5
Q32.2812 48.4844 27.875 48.4844
Q21.1875 48.4844 17.8438 46.4375
Q14.5 44.3906 14.5 40.2812
Q14.5 37.1562 16.8906 35.375
Q19.2812 33.5938 26.5156 31.9844
L29.5938 31.2969
Q39.1562 29.25 43.1875 25.5156
Q47.2188 21.7812 47.2188 15.0938
Q47.2188 7.46875 41.1875 3.01562
Q35.1562 -1.42188 24.6094 -1.42188
Q20.2188 -1.42188 15.4531 -0.5625
Q10.6875 0.296875 5.42188 2
L5.42188 11.2812
Q10.4062 8.6875 15.2344 7.39062
Q20.0625 6.10938 24.8125 6.10938
Q31.1562 6.10938 34.5625 8.28125
Q37.9844 10.4531 37.9844 14.4062
Q37.9844 18.0625 35.5156 20.0156
Q33.0625 21.9688 24.7031 23.7812
L21.5781 24.5156
Q13.2344 26.2656 9.51562 29.9062
Q5.8125 33.5469 5.8125 39.8906
Q5.8125 47.6094 11.2812 51.7969
Q16.75 56 26.8125 56
Q31.7812 56 36.1719 55.2656
Q40.5781 54.5469 44.2812 53.0781" id="DejaVuSans-73"/>
     </defs>
     <g transform="translate(106.16625 362.668125)rotate(-90.0)scale(0.12 -0.12)">
      <use xlink:href="#DejaVuSans-45"/>
      <use x="63.18359375" xlink:href="#DejaVuSans-6d"/>
      <use x="160.595703125" xlink:href="#DejaVuSans-69"/>
      <use x="188.37890625" xlink:href="#DejaVuSans-73"/>
      <use x="240.478515625" xlink:href="#DejaVuSans-73"/>
      <use x="292.578125" xlink:href="#DejaVuSans-69"/>
      <use x="320.361328125" xlink:href="#DejaVuSans-6f"/>
      <use x="381.54296875" xlink:href="#DejaVuSans-6e"/>
      <use x="444.921875" xlink:href="#DejaVuSans-73"/>
     </g>
    </g>
   </g>
   <g id="patch_3">
    <path d="
M136.688 66.78
L984.15 66.78" style="fill:none;stroke:#000000;"/>
   </g>
   <g id="patch_4">
    <path d="
M984.15 601.02
L984.15 66.78" style="fill:none;stroke:#000000;"/>
   </g>
   <g id="patch_5">
    <path d="
M136.688 601.02
L984.15 601.02" style="fill:none;stroke:#000000;"/>
   </g>
   <g id="patch_6">
    <path d="
M136.688 601.02
L136.688 66.78" style="fill:none;stroke:#000000;"/>
   </g>
   <g id="text_16">
    <!-- 575 -->
    <defs>
     <path d="
M8.20312 72.9062
L55.0781 72.9062
L55.0781 68.7031
L28.6094 0
L18.3125 0
L43.2188 64.5938
L8.20312 64.5938
z
" id="DejaVuSans-37"/>
    </defs>
    <g transform="translate(987.566420401 89.04)scale(0.12 -0.12)">
     <use xlink:href="#DejaVuSans-35"/>
     <use x="63.623046875" xlink:href="#DejaVuSans-37"/>
     <use x="127.24609375" xlink:href="#DejaVuSans-35"/>
    </g>
   </g>
  </g>
 </g>
 <defs>
  <clipPath id="pc1c77b9b39">
   <rect height="534.24" width="847.4625" x="136.6875" y="66.78"/>
  </clipPath>
 </defs>
</svg>
